<svg width="65" height="64" viewBox="0 0 65 64" fill="none" xmlns="http://www.w3.org/2000/svg">
<path d="M58.448 39.4667C58.448 37.9899 58.0101 36.5463 57.1896 35.3184C56.3692 34.0905 55.203 33.1335 53.8387 32.5684C52.4743 32.0032 50.973 31.8554 49.5246 32.1435C48.0763 32.4316 46.7458 33.1427 45.7016 34.1869C44.6574 35.2312 43.9462 36.5616 43.6581 38.01C43.37 39.4584 43.5179 40.9597 44.083 42.324C44.6482 43.6884 45.6052 44.8545 46.8331 45.675C48.0609 46.4954 49.5046 46.9333 50.9813 46.9333C52.9609 46.9311 54.8588 46.1437 56.2586 44.7439C57.6583 43.3441 58.4457 41.4463 58.448 39.4667ZM50.9813 44.8C49.9265 44.8 48.8953 44.4872 48.0183 43.9012C47.1412 43.3151 46.4576 42.4822 46.054 41.5076C45.6503 40.5331 45.5447 39.4608 45.7505 38.4262C45.9563 37.3916 46.4642 36.4413 47.2101 35.6954C47.956 34.9496 48.9063 34.4416 49.9408 34.2358C50.9754 34.03 52.0478 34.1356 53.0223 34.5393C53.9968 34.943 54.8298 35.6266 55.4158 36.5036C56.0019 37.3807 56.3147 38.4118 56.3147 39.4667C56.313 40.8806 55.7505 42.2362 54.7507 43.236C53.7509 44.2359 52.3953 44.7983 50.9813 44.8Z" fill="black"/>
<path d="M53.4267 36.5794L49.9141 40.0919L48.5349 38.7127L47.0267 40.221L49.16 42.3543C49.36 42.5543 49.6313 42.6666 49.9141 42.6666C50.197 42.6666 50.4682 42.5543 50.6683 42.3543L54.9349 38.0877L53.4267 36.5794ZM32.8475 54.4002C32.2146 54.4002 31.5959 54.5879 31.0696 54.9395C30.5434 55.2911 30.1332 55.7909 29.891 56.3756C29.6488 56.9603 29.5855 57.6037 29.7089 58.2245C29.8324 58.8452 30.1372 59.4154 30.5847 59.8629C31.0322 60.3105 31.6024 60.6152 32.2232 60.7387C32.8439 60.8622 33.4873 60.7988 34.072 60.5566C34.6568 60.3144 35.1565 59.9043 35.5082 59.378C35.8598 58.8518 36.0475 58.2331 36.0475 57.6002C36.0475 56.7515 35.7103 55.9376 35.1102 55.3375C34.5101 54.7373 33.6962 54.4002 32.8475 54.4002ZM32.8475 58.6669C32.6365 58.6669 32.4303 58.6043 32.2549 58.4871C32.0794 58.3699 31.9427 58.2033 31.862 58.0084C31.7813 57.8135 31.7601 57.599 31.8013 57.3921C31.8424 57.1852 31.944 56.9951 32.0932 56.8459C32.2424 56.6968 32.4325 56.5952 32.6394 56.554C32.8463 56.5129 33.0608 56.534 33.2557 56.6147C33.4506 56.6955 33.6172 56.8322 33.7344 57.0076C33.8516 57.183 33.9141 57.3892 33.9141 57.6002C33.9141 57.8831 33.8017 58.1544 33.6017 58.3544C33.4017 58.5545 33.1304 58.6669 32.8475 58.6669ZM29.6475 3.2002H36.0475V5.33353H29.6475V3.2002Z" fill="#FF0042"/>
<path d="M63.781 23.4667H53.1143V5.33333C53.1126 3.91937 52.5502 2.5638 51.5504 1.56397C50.5505 0.564141 49.195 0.00169371 47.781 0H17.9143C16.5004 0.00169371 15.1448 0.564141 14.145 1.56397C13.1451 2.5638 12.5827 3.91937 12.581 5.33333V10.6667H1.91432C1.63143 10.6667 1.36011 10.779 1.16008 10.9791C0.960037 11.1791 0.847656 11.4504 0.847656 11.7333V35.2C0.847656 35.4829 0.960037 35.7542 1.16008 35.9542C1.36011 36.1543 1.63143 36.2667 1.91432 36.2667H12.581V58.6667C12.5827 60.0806 13.1451 61.4362 14.145 62.436C15.1448 63.4359 16.5004 63.9983 17.9143 64H47.781C49.195 63.9983 50.5505 63.4359 51.5504 62.436C52.5502 61.4362 53.1126 60.0806 53.1143 58.6667V49.0667H63.781C64.0639 49.0667 64.3352 48.9543 64.5352 48.7543C64.7353 48.5542 64.8477 48.2829 64.8477 48V24.5333C64.8477 24.2504 64.7353 23.9791 64.5352 23.7791C64.3352 23.579 64.0639 23.4667 63.781 23.4667ZM62.7143 29.8667H39.2477V25.6H62.7143V29.8667ZM17.9143 2.13333H47.781C48.6297 2.13333 49.4436 2.47048 50.0437 3.07059C50.6438 3.67071 50.981 4.48464 50.981 5.33333V6.4H14.7143V5.33333C14.7143 4.48464 15.0515 3.67071 15.6516 3.07059C16.2517 2.47048 17.0656 2.13333 17.9143 2.13333ZM26.4477 12.8V17.0667H2.98099V12.8H26.4477ZM2.98099 19.2H26.4477V34.1333H2.98099V19.2ZM47.781 61.8667H17.9143C17.0656 61.8667 16.2517 61.5295 15.6516 60.9294C15.0515 60.3293 14.7143 59.5154 14.7143 58.6667V53.3333H50.981V58.6667C50.981 59.5154 50.6438 60.3293 50.0437 60.9294C49.4436 61.5295 48.6297 61.8667 47.781 61.8667ZM50.981 51.2H14.7143V36.2667H27.5143C27.7972 36.2667 28.0685 36.1543 28.2686 35.9542C28.4686 35.7542 28.581 35.4829 28.581 35.2V11.7333C28.581 11.4504 28.4686 11.1791 28.2686 10.9791C28.0685 10.779 27.7972 10.6667 27.5143 10.6667H14.7143V8.53333H50.981V23.4667H38.181C37.8981 23.4667 37.6268 23.579 37.4267 23.7791C37.2267 23.9791 37.1143 24.2504 37.1143 24.5333V48C37.1143 48.2829 37.2267 48.5542 37.4267 48.7543C37.6268 48.9543 37.8981 49.0667 38.181 49.0667H50.981V51.2ZM50.981 46.9333H39.2477V32H62.7143V46.9333H50.981Z" fill="black"/>
<path d="M40.3145 26.6665H42.4478V28.7998H40.3145V26.6665ZM43.5145 26.6665H45.6478V28.7998H43.5145V26.6665ZM46.7145 26.6665H48.8478V28.7998H46.7145V26.6665ZM8.46705 20.7838L5.26705 26.1171C5.16738 26.283 5.11472 26.4729 5.11472 26.6665C5.11472 26.86 5.16738 27.0499 5.26705 27.2158L8.46705 32.5491L10.2953 31.4505L7.42492 26.6665L10.2953 21.8825L8.46705 20.7838ZM20.962 20.7838L19.1337 21.8825L22.0041 26.6665L19.1337 31.4505L20.962 32.5491L24.162 27.2158C24.2617 27.0499 24.3143 26.86 24.3143 26.6665C24.3143 26.4729 24.2617 26.283 24.162 26.1171L20.962 20.7838ZM11.5924 31.6051L15.8559 20.9363L17.8367 21.7289L13.5732 32.3955L11.5924 31.6051ZM4.04785 13.8665H6.18118V15.9998H4.04785V13.8665ZM7.24785 13.8665H9.38118V15.9998H7.24785V13.8665ZM10.4479 13.8665H12.5812V15.9998H10.4479V13.8665ZM30.7145 12.7998H32.8478V14.9331H30.7145V12.7998ZM34.9812 12.7998H39.2478V14.9331H34.9812V12.7998ZM48.8478 14.9331V12.7998H41.3812V14.9331H48.8478ZM30.7145 17.0665H34.9812V19.1998H30.7145V17.0665ZM37.1145 17.0665H39.2478V19.1998H37.1145V17.0665ZM41.3812 17.0665H48.8478V19.1998H41.3812V17.0665ZM17.9145 40.5331H24.3145V42.6665H17.9145V40.5331ZM26.4479 40.5331H32.8478V42.6665H26.4479V40.5331ZM20.0479 44.7998H22.1812V46.9331H20.0479V44.7998ZM24.3145 44.7998H28.5812V46.9331H24.3145V44.7998ZM30.7145 44.7998H32.8478V46.9331H30.7145V44.7998Z" fill="#FF0042"/>
</svg>
