<svg width="40" height="40" viewBox="0 0 40 40" fill="none" xmlns="http://www.w3.org/2000/svg">
<g clip-path="url(#clip0_207_43)">
<path d="M26.4516 23.1445L26.2903 23.2251H25.8952L21.9274 22.088C21.621 21.9993 21.2984 21.9671 20.9758 21.9509L18.0565 21.0154C16.7258 20.588 15.2823 20.5235 13.9194 20.83L12.2581 21.2009L10.2419 21.6445L10.2903 21.459L10.3145 20.2654L2.1129 15.709H0V29.08L6.34677 31.1929H7.58064L7.73387 30.6525L9.67742 31.8219C9.70968 32.8783 10.5565 33.7332 11.6129 33.7654C11.6532 34.8219 12.4919 35.6606 13.5484 35.7009C13.5887 36.7574 14.4274 37.5961 15.4839 37.6364C15.5242 38.7171 16.4032 39.58 17.4919 39.58C17.8952 39.58 18.2903 39.4509 18.621 39.2332L19.1935 39.7412C19.5484 40.0558 20.0161 40.2332 20.4919 40.2332H20.6129C21.6855 40.2332 22.5565 39.3622 22.5726 38.2977C23.6371 38.2816 24.4919 37.4267 24.5081 36.3622C25.5726 36.3461 26.4274 35.4912 26.4435 34.4267C27.5161 34.4025 28.379 33.5235 28.379 32.4509C28.379 32.3864 28.379 32.3219 28.371 32.2574L40 26.4348V16.9993H38.5484L26.4516 23.1445ZM1.29032 16.7735H1.75806L6.39516 19.4832L4.05645 28.8461L1.29032 27.9187V16.7735ZM6.55645 29.6767L5.29032 29.2574L7.56452 20.1606L9.03226 21.0154V21.2009L6.6129 29.6767H6.55645ZM10.9677 31.5316C10.9677 31.338 11.0484 31.1525 11.1774 31.0235L12.3145 29.8864C12.4516 29.7493 12.6371 29.6767 12.8226 29.6767C13.2177 29.6767 13.5484 29.9993 13.5484 30.4025C13.5484 30.5961 13.4677 30.7816 13.3387 30.9106L12.2016 32.0477C12.0645 32.1848 11.879 32.2574 11.6935 32.2574C11.2903 32.2574 10.9677 31.9348 10.9677 31.5316ZM12.9032 33.467C12.9032 33.2735 12.9839 33.088 13.1129 32.959L14.25 31.8219C14.3871 31.6848 14.5726 31.6122 14.7581 31.6122C15.1532 31.6122 15.4839 31.9348 15.4839 32.338C15.4839 32.5316 15.4032 32.717 15.2742 32.8461L14.1371 33.9832C14 34.1203 13.8145 34.1929 13.629 34.1929C13.2258 34.1929 12.9032 33.8703 12.9032 33.467ZM14.8387 35.4025C14.8387 35.209 14.9194 35.0235 15.0484 34.8945L16.1855 33.7574C16.3226 33.6203 16.5081 33.5477 16.6935 33.5477C17.0887 33.5477 17.4194 33.8703 17.4194 34.2735C17.4194 34.467 17.3387 34.6525 17.2097 34.7816L16.0726 35.9187C15.9355 36.0558 15.75 36.1283 15.5645 36.1283C15.1613 36.1283 14.8387 35.8058 14.8387 35.4025ZM17.5 38.0638C17.1048 38.0638 16.7742 37.7412 16.7742 37.338C16.7742 37.1445 16.8548 36.959 16.9839 36.83L18.121 35.6929C18.2581 35.5558 18.4435 35.4832 18.629 35.4832C19.0242 35.4832 19.3548 35.8058 19.3548 36.209C19.3548 36.4025 19.2742 36.588 19.1452 36.7171L18.0081 37.8541C17.871 37.9832 17.6855 38.0638 17.5 38.0638ZM20.621 38.709H20.5C20.3387 38.709 20.1774 38.6525 20.0565 38.5396L19.5726 38.1122L20.0565 37.6283C20.2258 37.459 20.3629 37.2493 20.4597 37.0316L21.0484 37.5235C21.2016 37.6525 21.2903 37.838 21.2903 38.0396C21.2903 38.4106 20.9919 38.709 20.621 38.709ZM26.4032 32.9025H26.2903C26.129 32.9025 25.9677 32.8461 25.8468 32.7412L22.3468 29.8219L21.5242 30.8138L24.9194 33.6445C25.0726 33.7735 25.1613 33.959 25.1613 34.1606C25.1613 34.5316 24.8629 34.83 24.4919 34.83H24.3548C24.2016 34.83 24.0484 34.7735 23.9274 34.6767L20.4194 31.7574L19.5968 32.7493L22.9919 35.58C23.1452 35.709 23.2339 35.8945 23.2339 36.0961C23.2339 36.4671 22.9355 36.7654 22.5645 36.7654C22.3145 36.7654 22.0726 36.6767 21.8871 36.5235L20.4435 35.3219C20.129 34.6767 19.4758 34.2251 18.7097 34.1929C18.6694 33.1364 17.8306 32.2977 16.7742 32.2574C16.7339 31.2009 15.8952 30.3622 14.8387 30.3219C14.7984 29.2412 13.9194 28.3783 12.8306 28.3783C12.2984 28.3783 11.7823 28.5961 11.4032 28.9671L10.2661 30.1041C10.2016 30.1687 10.1452 30.2493 10.0887 30.3219L8.10484 29.1364L9.83871 23.0638L14.1935 22.0961C15.3387 21.838 16.5403 21.8945 17.6532 22.2493L18.6048 22.5558L15.379 24.1687C14.6452 24.5396 14.1855 25.2816 14.1855 26.1041V26.2332C14.1855 27.4267 15.1532 28.3945 16.3468 28.3945C16.7419 28.3945 17.121 28.2896 17.4597 28.088L19.8629 26.6445C20.3468 26.3541 20.9919 26.4187 21.4113 26.7896L26.8629 31.6929C27.0081 31.8219 27.0887 32.0154 27.0887 32.209C27.0968 32.588 26.7823 32.9025 26.4032 32.9025ZM38.7097 25.4106L27.8387 30.8461C27.8065 30.8058 27.7661 30.7735 27.7258 30.7412L22.2742 25.838C21.7984 25.4106 21.1774 25.1687 20.5323 25.1687C20.0645 25.1687 19.5968 25.2977 19.1935 25.5396L16.7903 26.9832C16.6532 27.0638 16.5 27.1041 16.3468 27.1041C15.8629 27.1041 15.4758 26.717 15.4758 26.2332V26.1041C15.4758 25.7735 15.6613 25.4751 15.9597 25.3219L19.5565 23.5235C20.1694 23.2171 20.9032 23.1445 21.5645 23.338L25.621 24.4993L26.6129 24.5154L38.7097 18.1445V25.4106Z" fill="#333333"/>
<path d="M11.4524 7.48444C11.4524 7.48444 11.2347 7.34735 9.81533 7.32315C8.58146 7.29089 7.42017 7.74251 6.53308 8.59735C5.64598 9.45218 5.16211 10.6054 5.16211 11.8393V13.1296C5.16211 14.6054 5.89598 15.9925 7.09759 16.8312V17.1377L5.4363 17.557L6.83953 18.3393L8.38792 17.928V15.8877L8.06533 15.7022C7.0734 15.1296 6.45243 14.057 6.45243 12.9119V11.6215C6.45243 10.7425 6.79921 9.91993 7.4363 9.30702C8.06533 8.69412 8.90404 8.36347 9.78308 8.39573C11.5089 8.44412 12.9121 9.96831 12.9121 11.7828V12.9119C12.9121 14.057 12.2911 15.1296 11.2992 15.7022L10.9766 15.8877V17.928L13.1863 18.4844C12.6137 19.0732 12.2589 19.8635 12.2589 20.7344V21.2102L13.5492 20.9199V20.7264C13.5492 19.8393 14.154 19.0651 15.0169 18.8473L18.7105 17.928V15.8877L18.3879 15.7022C17.396 15.1296 16.775 14.057 16.775 12.9119V11.6215C16.775 10.7425 17.1218 9.91993 17.7589 9.30702C18.3879 8.69412 19.2347 8.36347 20.1057 8.39573C21.8315 8.44412 23.2347 9.96831 23.2347 11.7828V12.9119C23.2347 14.057 22.6137 15.1296 21.6218 15.7022L21.2992 15.8877V17.928L24.9928 18.8473C25.8476 19.0651 26.4524 19.8393 26.4524 20.7264V23.1457L27.7428 22.4602M27.7428 22.4602V20.7264C27.7428 19.8554 27.396 19.0651 26.8153 18.4764L29.0331 17.9199V15.8796L28.7105 15.6941C27.7186 15.1215 27.0976 14.049 27.0976 12.9038V11.6135C27.0976 10.7344 27.4444 9.91186 28.0815 9.29896C28.7105 8.68606 29.5492 8.35541 30.4282 8.38767C32.146 8.44412 33.5492 9.96025 33.5492 11.7748V12.9038C33.5492 14.049 32.9282 15.1215 31.9363 15.6941L31.6137 15.8796V17.9199L34.9928 18.807L36.3476 18.1215C36.1057 17.9844 35.8879 17.8877 35.6218 17.8232L32.904 17.1457V16.8393C34.1057 16.0006 34.8395 14.6135 34.8395 13.1377V12.0086C34.8395 9.50057 32.8718 7.4038 30.4605 7.33122C30.3395 7.33122 30.2186 7.33122 30.0976 7.33928C29.5653 7.33122 29.0492 7.3796 28.5411 7.46025C28.0411 7.67799 27.5815 7.97638 27.1782 8.36347C27.154 8.38767 27.1298 8.41993 27.1057 8.44412C26.8637 8.68605 26.5976 9.05702 26.2831 9.60541C25.9766 10.2183 25.8073 10.9038 25.8073 11.6135V12.9038C25.8073 14.3796 26.5411 15.7667 27.7428 16.6054V16.9119L25.1621 17.557L22.5815 16.9119V16.6054C23.7831 15.7667 24.5169 14.3796 24.5169 12.9038V11.7748C24.5169 9.2667 22.5492 7.16993 20.1379 7.09735C18.904 7.06509 17.7347 7.50864 16.8557 8.37154C15.9686 9.22638 15.4847 10.3796 15.4847 11.6135V12.9038C15.4847 14.3796 16.2186 15.7667 17.4202 16.6054V16.9119L14.8395 17.557L12.2589 16.9119V16.6054C13.4605 15.7667 14.1944 14.3796 14.1944 12.9038V11.7748C14.1944 11.0167 14.0089 10.299 13.6944 9.6538C13.5492 9.36347 13.2992 9.00057 12.8718 8.49251C12.4686 8.06509 11.9847 7.72638 11.4524 7.48444" fill="#FF0042"/>
<path d="M27.1044 8.44405C25.5802 6.03276 22.8947 4.51663 19.9996 4.51663C17.0802 4.51663 14.3867 6.04889 12.8705 8.49244C12.8705 8.49244 13.2254 8.84728 13.6931 9.65373C14.9028 7.30695 17.3463 5.80695 19.9996 5.80695C22.6286 5.80695 25.056 7.29082 26.2818 9.60534C26.2818 9.60534 26.7899 8.74244 27.1044 8.44405ZM30.0963 7.33921L30.7979 5.68599L27.3786 2.26663L25.3625 3.58115C24.5963 3.15373 23.7899 2.81502 22.9512 2.58115L22.4512 0.234375H17.5318L17.0399 2.58115C16.2012 2.81502 15.3867 3.15373 14.6286 3.58115L12.6125 2.26663L9.20117 5.67792L9.89472 7.33115C10.9915 7.31502 11.435 7.48437 11.4512 7.48437L10.7254 5.75857L12.7899 3.69405L14.6044 4.87147L14.9512 4.66179C15.8221 4.12954 16.7576 3.74244 17.7415 3.5005L18.1367 3.40373L18.5883 1.29083H21.4108L21.8625 3.40373L22.2576 3.5005C23.2415 3.73437 24.185 4.12954 25.0479 4.66179L25.3947 4.87147L27.2092 3.69405L29.2738 5.7505L28.5399 7.46018C28.5399 7.46018 29.3786 7.31502 30.0963 7.33921Z" fill="#333333"/>
</g>
<defs>
<clipPath id="clip0_207_43">
<rect width="40" height="40" fill="white"/>
</clipPath>
</defs>
</svg>
