<svg width="50" height="50" viewBox="0 0 50 50" fill="none" xmlns="http://www.w3.org/2000/svg">
<rect width="50" height="50" rx="25" fill="#FF0042"/>
<path d="M34.9449 18.0147C34.4803 13.2684 30.7247 9.51278 25.9784 9.04822C20.489 8.51091 15.6034 12.5254 15.0661 18.0147C11.6502 18.2433 8.99706 21.0822 9 24.5058C9.00313 28.0956 11.9157 31.0032 15.5056 31.0001H16.0056V30.0001H15.5056C12.468 29.9932 10.0112 27.5252 10.0181 24.4876C10.025 21.4501 12.493 18.9933 15.5306 19.0002C15.6588 19.0004 15.7822 18.9513 15.8752 18.8631C15.9683 18.7748 16.0239 18.6542 16.0306 18.5262C16.2684 13.928 19.943 10.2534 24.5412 10.0155C29.4979 9.75915 33.724 13.5695 33.9804 18.5262C33.993 18.6565 34.0538 18.7773 34.151 18.865C34.2481 18.9527 34.3745 19.0009 34.5054 19.0002C37.5429 19.0002 40.0054 21.4626 40.0054 24.5001C40.0054 27.5377 37.5429 30.0001 34.5054 30.0001H34.0054V31.0001H34.5054C37.929 31.003 40.7679 28.35 40.9965 24.934C41.2361 21.3522 38.5267 18.2543 34.9449 18.0147Z" fill="white"/>
<mask id="path-3-inside-1_554_165" fill="white">
<path d="M25.5055 37.0631V29.5001H24.5055V37.063C23.6429 37.285 23.0055 38.0681 23.0055 39C23.0055 40.1046 23.9009 41 25.0055 41C26.11 41 27.0055 40.1046 27.0055 39C27.0055 38.0681 26.3681 37.2851 25.5055 37.0631ZM25.0055 40C24.4532 40 24.0055 39.5523 24.0055 39C24.0055 38.4477 24.4532 38 25.0055 38C25.5578 38 26.0055 38.4477 26.0055 39C26.0055 39.5523 25.5577 40 25.0055 40ZM18.0055 23.0002C16.901 23.0002 16.0056 23.8956 16.0056 25.0001C16.0056 25.9321 16.6429 26.7151 17.5055 26.9371V29.5001H18.5055V26.9371C19.3681 26.7151 20.0055 25.9321 20.0055 25.0001C20.0055 23.8956 19.1101 23.0002 18.0055 23.0002ZM18.0055 26.0001C17.4532 26.0001 17.0055 25.5524 17.0055 25.0001C17.0055 24.4478 17.4532 24.0001 18.0055 24.0001C18.5578 24.0001 19.0055 24.4478 19.0055 25.0001C19.0055 25.5524 18.5578 26.0001 18.0055 26.0001ZM39.0054 34.5001C38.0734 34.5001 37.2904 35.1374 37.0684 36H33.0054C32.9381 36.0066 32.8702 35.9983 32.8065 35.9755C32.7429 35.9527 32.685 35.916 32.6372 35.8682C32.5894 35.8204 32.5528 35.7626 32.53 35.6989C32.5072 35.6353 32.4988 35.5673 32.5054 35.5V32.0001H31.5054V35.5C31.5046 35.5285 31.5046 35.5569 31.5054 35.5853C31.529 36.3902 32.2005 37.0236 33.0054 37H37.0684C37.2904 37.8626 38.0734 38.5 39.0054 38.5C40.1099 38.5 41.0053 37.6046 41.0053 36.5C41.0053 35.3955 40.1099 34.5001 39.0054 34.5001ZM39.0054 37.5C38.453 37.5 38.0054 37.0523 38.0054 36.5C38.0054 35.9477 38.453 35.5 39.0054 35.5C39.5577 35.5 40.0053 35.9477 40.0053 36.5C40.0053 37.0523 39.5576 37.5 39.0054 37.5ZM18.5055 35.5V30.5001H17.5055V35.494C17.5127 35.5617 17.5048 35.6302 17.4823 35.6944C17.4598 35.7587 17.4233 35.8171 17.3754 35.8655C17.3276 35.9139 17.2696 35.9511 17.2056 35.9744C17.1417 35.9976 17.0733 36.0064 17.0055 36H12.9426C12.7206 35.1374 11.9375 34.5001 11.0056 34.5001C9.90104 34.5001 9.00562 35.3955 9.00562 36.5C9.00562 37.6046 9.90104 38.5 11.0056 38.5C11.9375 38.5 12.7206 37.8626 12.9426 37H17.0055C17.034 37.0008 17.0624 37.0008 17.0908 37C17.8957 36.9765 18.5291 36.3049 18.5055 35.5ZM11.0056 37.5C10.4533 37.5 10.0056 37.0523 10.0056 36.5C10.0056 35.9477 10.4533 35.5 11.0056 35.5C11.5579 35.5 12.0056 35.9477 12.0056 36.5C12.0056 37.0523 11.5578 37.5 11.0056 37.5ZM32.0054 23.0002C30.9009 23.0002 30.0054 23.8956 30.0054 25.0001C30.0054 25.9321 30.6428 26.7151 31.5054 26.9371V31.0001H32.5054V26.9371C33.368 26.7151 34.0054 25.9321 34.0054 25.0001C34.0054 23.8956 33.11 23.0002 32.0054 23.0002ZM32.0054 26.0001C31.4531 26.0001 31.0054 25.5524 31.0054 25.0001C31.0054 24.4478 31.4531 24.0001 32.0054 24.0001C32.5577 24.0001 33.0054 24.4478 33.0054 25.0001C33.0054 25.5524 32.5577 26.0001 32.0054 26.0001ZM21.859 26.6466C21.7652 26.5529 21.6381 26.5002 21.5055 26.5002C21.3729 26.5002 21.2458 26.5529 21.152 26.6466L19.652 28.1466L20.359 28.8536L21.0055 28.2071V34.0001H22.0055V28.2071L22.652 28.8536L23.359 28.1466L21.859 26.6466ZM29.6519 33.6466L29.0054 34.2931V28.5001H28.0054V34.2931L27.359 33.6466L26.652 34.3536L28.1519 35.8535C28.2457 35.9473 28.3729 35.9999 28.5054 35.9999C28.638 35.9999 28.7652 35.9473 28.8589 35.8535L30.3589 34.3536L29.6519 33.6466ZM25.0055 20.0002C23.9009 20.0002 23.0055 20.8956 23.0055 22.0002C23.0055 22.9321 23.6429 23.7152 24.5055 23.9371V28.5001H25.5055V23.9371C26.3681 23.7152 27.0055 22.9321 27.0055 22.0002C27.0055 20.8956 26.11 20.0002 25.0055 20.0002ZM25.0055 23.0002C24.4532 23.0002 24.0055 22.5525 24.0055 22.0002C24.0055 21.4479 24.4532 21.0002 25.0055 21.0002C25.5578 21.0002 26.0055 21.4479 26.0055 22.0002C26.0055 22.5525 25.5578 23.0002 25.0055 23.0002Z"/>
</mask>
<path d="M25.5055 37.0631V29.5001H24.5055V37.063C23.6429 37.285 23.0055 38.0681 23.0055 39C23.0055 40.1046 23.9009 41 25.0055 41C26.11 41 27.0055 40.1046 27.0055 39C27.0055 38.0681 26.3681 37.2851 25.5055 37.0631ZM25.0055 40C24.4532 40 24.0055 39.5523 24.0055 39C24.0055 38.4477 24.4532 38 25.0055 38C25.5578 38 26.0055 38.4477 26.0055 39C26.0055 39.5523 25.5577 40 25.0055 40ZM18.0055 23.0002C16.901 23.0002 16.0056 23.8956 16.0056 25.0001C16.0056 25.9321 16.6429 26.7151 17.5055 26.9371V29.5001H18.5055V26.9371C19.3681 26.7151 20.0055 25.9321 20.0055 25.0001C20.0055 23.8956 19.1101 23.0002 18.0055 23.0002ZM18.0055 26.0001C17.4532 26.0001 17.0055 25.5524 17.0055 25.0001C17.0055 24.4478 17.4532 24.0001 18.0055 24.0001C18.5578 24.0001 19.0055 24.4478 19.0055 25.0001C19.0055 25.5524 18.5578 26.0001 18.0055 26.0001ZM39.0054 34.5001C38.0734 34.5001 37.2904 35.1374 37.0684 36H33.0054C32.9381 36.0066 32.8702 35.9983 32.8065 35.9755C32.7429 35.9527 32.685 35.916 32.6372 35.8682C32.5894 35.8204 32.5528 35.7626 32.53 35.6989C32.5072 35.6353 32.4988 35.5673 32.5054 35.5V32.0001H31.5054V35.5C31.5046 35.5285 31.5046 35.5569 31.5054 35.5853C31.529 36.3902 32.2005 37.0236 33.0054 37H37.0684C37.2904 37.8626 38.0734 38.5 39.0054 38.5C40.1099 38.5 41.0053 37.6046 41.0053 36.5C41.0053 35.3955 40.1099 34.5001 39.0054 34.5001ZM39.0054 37.5C38.453 37.5 38.0054 37.0523 38.0054 36.5C38.0054 35.9477 38.453 35.5 39.0054 35.5C39.5577 35.5 40.0053 35.9477 40.0053 36.5C40.0053 37.0523 39.5576 37.5 39.0054 37.5ZM18.5055 35.5V30.5001H17.5055V35.494C17.5127 35.5617 17.5048 35.6302 17.4823 35.6944C17.4598 35.7587 17.4233 35.8171 17.3754 35.8655C17.3276 35.9139 17.2696 35.9511 17.2056 35.9744C17.1417 35.9976 17.0733 36.0064 17.0055 36H12.9426C12.7206 35.1374 11.9375 34.5001 11.0056 34.5001C9.90104 34.5001 9.00562 35.3955 9.00562 36.5C9.00562 37.6046 9.90104 38.5 11.0056 38.5C11.9375 38.5 12.7206 37.8626 12.9426 37H17.0055C17.034 37.0008 17.0624 37.0008 17.0908 37C17.8957 36.9765 18.5291 36.3049 18.5055 35.5ZM11.0056 37.5C10.4533 37.5 10.0056 37.0523 10.0056 36.5C10.0056 35.9477 10.4533 35.5 11.0056 35.5C11.5579 35.5 12.0056 35.9477 12.0056 36.5C12.0056 37.0523 11.5578 37.5 11.0056 37.5ZM32.0054 23.0002C30.9009 23.0002 30.0054 23.8956 30.0054 25.0001C30.0054 25.9321 30.6428 26.7151 31.5054 26.9371V31.0001H32.5054V26.9371C33.368 26.7151 34.0054 25.9321 34.0054 25.0001C34.0054 23.8956 33.11 23.0002 32.0054 23.0002ZM32.0054 26.0001C31.4531 26.0001 31.0054 25.5524 31.0054 25.0001C31.0054 24.4478 31.4531 24.0001 32.0054 24.0001C32.5577 24.0001 33.0054 24.4478 33.0054 25.0001C33.0054 25.5524 32.5577 26.0001 32.0054 26.0001ZM21.859 26.6466C21.7652 26.5529 21.6381 26.5002 21.5055 26.5002C21.3729 26.5002 21.2458 26.5529 21.152 26.6466L19.652 28.1466L20.359 28.8536L21.0055 28.2071V34.0001H22.0055V28.2071L22.652 28.8536L23.359 28.1466L21.859 26.6466ZM29.6519 33.6466L29.0054 34.2931V28.5001H28.0054V34.2931L27.359 33.6466L26.652 34.3536L28.1519 35.8535C28.2457 35.9473 28.3729 35.9999 28.5054 35.9999C28.638 35.9999 28.7652 35.9473 28.8589 35.8535L30.3589 34.3536L29.6519 33.6466ZM25.0055 20.0002C23.9009 20.0002 23.0055 20.8956 23.0055 22.0002C23.0055 22.9321 23.6429 23.7152 24.5055 23.9371V28.5001H25.5055V23.9371C26.3681 23.7152 27.0055 22.9321 27.0055 22.0002C27.0055 20.8956 26.11 20.0002 25.0055 20.0002ZM25.0055 23.0002C24.4532 23.0002 24.0055 22.5525 24.0055 22.0002C24.0055 21.4479 24.4532 21.0002 25.0055 21.0002C25.5578 21.0002 26.0055 21.4479 26.0055 22.0002C26.0055 22.5525 25.5578 23.0002 25.0055 23.0002Z" fill="white" stroke="white" stroke-width="2" mask="url(#path-3-inside-1_554_165)"/>
</svg>
