<svg width="50" height="50" viewBox="0 0 50 50" fill="none" xmlns="http://www.w3.org/2000/svg">
<rect width="50" height="50" rx="25" fill="#FF0042"/>
<path d="M38.1826 21.7613L36.0662 21.3832C35.9588 21.3638 35.8876 21.295 35.8648 21.1866C35.574 19.8282 35.0377 18.5342 34.2821 17.3683C34.2229 17.2767 34.2246 17.1766 34.2866 17.0875L35.5161 15.3237C35.686 15.0807 35.7648 14.7856 35.7386 14.4902C35.7124 14.1948 35.583 13.9181 35.373 13.7088L34.5143 12.8501C34.0807 12.4165 33.4015 12.3563 32.8996 12.7067L31.1364 13.9361C31.0464 13.9985 30.9464 14.0003 30.8547 13.941C29.6805 13.1825 28.3952 12.6499 27.0355 12.3585C26.9287 12.3354 26.8592 12.2633 26.84 12.1558L26.4619 10.0416C26.3554 9.43802 25.8324 9 25.2183 9H24.0047C23.3906 9 22.8676 9.43802 22.7613 10.0404L22.3831 12.1556C22.3638 12.2633 22.2943 12.3354 22.1885 12.3583C20.8278 12.6499 19.5426 13.1825 18.3683 13.941C18.2766 14.0003 18.1766 13.9985 18.0874 13.9365L16.3237 12.707C16.0807 12.5371 15.7855 12.4582 15.4901 12.4844C15.1948 12.5106 14.9181 12.64 14.7087 12.8501L13.85 13.7088C13.4165 14.1423 13.3562 14.8215 13.7067 15.3234L14.936 17.0867C14.9985 17.1766 15.0003 17.2766 14.9411 17.3681C14.1851 18.5347 13.6485 19.8297 13.3577 21.1891C13.3356 21.2949 13.2642 21.3638 13.1577 21.383L11.0411 21.7611C10.4378 21.8681 10 22.3911 10 23.0047V24.2183C10 24.8289 10.4369 25.3517 11.0409 25.4618L13.157 25.8381C13.2626 25.8571 13.3358 25.928 13.3583 26.0347C13.6489 27.3926 14.185 28.6862 14.9402 29.8516C14.9999 29.9448 14.9988 30.0447 14.9365 30.1338L13.7061 31.8987C13.3568 32.402 13.4173 33.0815 13.85 33.5143L14.7087 34.373C14.918 34.583 15.1946 34.7124 15.4899 34.7386C15.7852 34.7648 16.0803 34.6861 16.3234 34.5163L18.0886 33.2857C18.1772 33.2236 18.2759 33.2217 18.3699 33.2831C18.5426 33.3936 18.718 33.4997 18.8961 33.6013C18.9029 34.0976 19.1119 34.5457 19.4444 34.8671C19.1063 35.194 18.8955 35.6517 18.8955 36.1579C18.8955 37.1494 19.7013 37.956 20.6918 37.956H21.0994C21.3456 39.6746 22.8268 41 24.6124 41C25.9397 41 27.1534 40.2407 27.7575 39.0918C28.6284 39.6004 29.6201 39.871 30.6514 39.8709C30.6928 39.8709 30.7342 39.8705 30.7756 39.8696C32.3141 39.8373 33.7476 39.2081 34.8121 38.0979C35.8776 36.9869 36.4465 35.5276 36.4142 33.9891C36.3819 32.4504 35.7521 31.0167 34.641 29.9521C34.5537 29.869 34.4639 29.7886 34.3716 29.711C35.0805 28.5816 35.586 27.3367 35.8652 26.0328C35.8872 25.9281 35.9604 25.8572 36.0649 25.8384L38.1819 25.4619C38.7852 25.3549 39.223 24.832 39.223 24.2184V23.0047C39.223 22.3912 38.7852 21.8682 38.1825 21.7613H38.1826ZM19.9066 33.5765C19.9066 33.5254 19.9118 33.4755 19.9212 33.4271C19.9227 33.4204 19.9243 33.4137 19.9255 33.4069C20.0033 33.0553 20.3171 32.7912 20.6918 32.7912H25.0455C24.9354 33.2632 24.885 33.747 24.8953 34.2315C24.8962 34.2751 24.8994 34.3182 24.9012 34.3616H20.6918C20.2588 34.3616 19.9065 34.0094 19.9065 33.5764L19.9066 33.5765ZM30.2589 28.3635C28.825 28.4605 27.498 29.0791 26.4975 30.1234C26.0259 30.6152 25.652 31.1754 25.3841 31.7802H21.456C21.4428 30.8991 21.0421 30.1323 20.3227 29.6176C18.3862 28.2316 17.2301 25.9861 17.2301 23.6107C17.2301 19.541 20.5418 16.2301 24.6125 16.2301C28.6832 16.2301 31.9931 19.5411 31.9931 23.6107C31.9931 25.3535 31.3786 27.0328 30.2589 28.3635ZM19.9066 36.158C19.9066 35.725 20.2589 35.3728 20.6918 35.3728H25.0326C25.155 35.9239 25.3588 36.4538 25.6372 36.945H20.6918C20.2589 36.945 19.9066 36.5919 19.9066 36.158ZM24.6125 39.989C23.3858 39.989 22.3597 39.1144 22.1247 37.956H26.3677C26.4641 38.0632 26.5634 38.1682 26.6684 38.269C26.7513 38.3479 26.8364 38.4244 26.9237 38.4983C26.5171 39.3901 25.6096 39.9891 24.6125 39.9891V39.989ZM35.4034 34.0104C35.4301 35.279 34.9609 36.4821 34.0825 37.3982C33.2048 38.3134 32.023 38.8322 30.7545 38.8588C29.4863 38.8843 28.2835 38.4168 27.3683 37.5391C26.4521 36.6606 25.933 35.4784 25.9063 34.2103C25.8796 32.9421 26.3488 31.7392 27.2274 30.823C28.1049 29.9072 29.2867 29.3882 30.5551 29.3618C30.589 29.3611 30.6229 29.3607 30.6567 29.3607C31.8874 29.3607 33.0505 29.8278 33.9414 30.6821L33.9416 30.6822C34.8576 31.5598 35.3767 32.7417 35.4034 34.0102L35.4034 34.0104ZM38.2121 24.2184C38.2121 24.3429 38.1271 24.4449 38.0052 24.4665L35.8869 24.8432C35.379 24.9347 34.9821 25.3199 34.8763 25.8226C34.6258 26.9921 34.1756 28.1096 33.5453 29.1261C32.9142 28.7585 32.2181 28.5158 31.4951 28.4114C32.4779 27.0035 33.0046 25.3277 33.0041 23.6107C33.0041 18.9836 29.2396 15.2191 24.6124 15.2191C19.9853 15.2191 16.2189 18.9835 16.2189 23.6107C16.2189 26.3115 17.5331 28.8643 19.7343 30.4397C20.1925 30.7676 20.4376 31.2367 20.4454 31.7974C19.9184 31.87 19.4639 32.172 19.1857 32.5991C19.0961 32.5454 19.0072 32.4904 18.9191 32.4342C18.4792 32.1469 17.9385 32.156 17.5092 32.4571L15.7449 33.6871C15.6436 33.7578 15.5116 33.7459 15.4237 33.658L14.565 32.7993C14.4756 32.7099 14.4643 32.5797 14.5362 32.4761L15.7656 30.7126C16.0643 30.2855 16.074 29.7463 15.79 29.3039C15.0991 28.2361 14.6135 27.0648 14.3473 25.8244C14.241 25.3198 13.8442 24.9345 13.3351 24.8428L11.2201 24.4667C11.097 24.4443 11.0111 24.3421 11.0111 24.2183V23.0046C11.0111 22.8782 11.0941 22.7785 11.2183 22.7565L13.3363 22.3781C13.8448 22.2865 14.2417 21.9011 14.3468 21.3987C14.6135 20.1564 15.0991 18.9851 15.7902 17.917C16.0737 17.4784 16.0646 16.9392 15.766 16.5091L14.536 14.7448C14.4653 14.6435 14.4772 14.5114 14.565 14.4236L15.4238 13.5648C15.5116 13.4771 15.6436 13.4652 15.7453 13.536L17.51 14.7663C17.9394 15.0645 18.4785 15.0736 18.9171 14.7901C19.988 14.0983 21.1601 13.6126 22.4015 13.3465C22.9119 13.236 23.2862 12.848 23.3784 12.3336L23.7568 10.2171C23.7786 10.0937 23.8782 10.0109 24.0047 10.0109H25.2184C25.3449 10.0109 25.4445 10.0937 25.4665 10.2182L25.8448 12.3338C25.9369 12.848 26.3113 13.236 26.8227 13.3467C28.0631 13.6126 29.2351 14.0983 30.306 14.79C30.7447 15.0735 31.2839 15.0644 31.7139 14.7658L33.4782 13.5358C33.5795 13.4652 33.7115 13.477 33.7994 13.5648L34.6581 14.4235C34.746 14.5114 34.7578 14.6434 34.6869 14.745L33.4566 16.5098C33.1586 16.9391 33.1494 17.4782 33.4331 17.9172C34.1241 18.9851 34.6097 20.1564 34.8758 21.3961C34.9815 21.901 35.3784 22.2864 35.8876 22.3782L38.0054 22.7566C38.129 22.7785 38.2121 22.8781 38.2121 23.0046V24.2182V24.2184ZM24.6125 18.0658C21.555 18.0658 19.0676 20.5533 19.0676 23.6107C19.0676 26.6682 21.555 29.1556 24.6125 29.1556C27.67 29.1556 30.1556 26.6682 30.1556 23.6107C30.1556 20.5533 27.669 18.0658 24.6125 18.0658ZM24.6125 28.1445C22.1126 28.1445 20.0787 26.1107 20.0787 23.6107C20.0787 21.1108 22.1126 19.077 24.6125 19.077C27.1124 19.077 29.1445 21.1108 29.1445 23.6107C29.1445 26.1107 27.1115 28.1445 24.6125 28.1445ZM27.1348 23.6107C27.1348 23.7448 27.0816 23.8734 26.9868 23.9682C26.8919 24.063 26.7634 24.1163 26.6293 24.1163H24.6107C24.5443 24.1163 24.4785 24.1032 24.4171 24.0778C24.3558 24.0524 24.3 24.0151 24.2531 23.9681C24.2061 23.9212 24.1689 23.8654 24.1435 23.804C24.1181 23.7426 24.1051 23.6768 24.1051 23.6104L24.1069 20.5359C24.107 20.4019 24.1603 20.2734 24.2551 20.1786C24.3499 20.0839 24.4784 20.0307 24.6124 20.0307H24.6128C24.6792 20.0307 24.7449 20.0438 24.8062 20.0693C24.8675 20.0947 24.9233 20.132 24.9702 20.179C25.0171 20.2259 25.0543 20.2817 25.0797 20.343C25.105 20.4044 25.1181 20.4702 25.118 20.5366L25.1166 23.1052H26.6293C26.7634 23.1052 26.8919 23.1585 26.9868 23.2533C27.0816 23.3481 27.1348 23.4767 27.1348 23.6108V23.6107ZM33.2597 32.0136C33.3089 32.0582 33.3488 32.1121 33.3771 32.1721C33.4055 32.2322 33.4217 32.2972 33.4249 32.3635C33.4281 32.4298 33.4182 32.4961 33.3958 32.5586C33.3734 32.6211 33.3388 32.6786 33.2942 32.7277L30.1838 36.1536C30.1376 36.2046 30.0813 36.2456 30.0186 36.2741C29.956 36.3026 29.8881 36.3179 29.8193 36.3193L29.8096 36.3193C29.7423 36.3193 29.6758 36.3059 29.6138 36.2799C29.5518 36.2539 29.4956 36.2157 29.4486 36.1677L28.009 34.6995C27.8136 34.5002 27.8167 34.1801 28.0161 33.9846C28.2155 33.7891 28.5355 33.7923 28.731 33.9917L29.7955 35.0773L32.5457 32.0482C32.6358 31.9489 32.7617 31.8895 32.8956 31.8831C33.0295 31.8766 33.1605 31.9236 33.2598 32.0137L33.2597 32.0136Z" fill="white"/>
</svg>
