<svg width="50" height="50" viewBox="0 0 50 50" fill="none" xmlns="http://www.w3.org/2000/svg">
<rect width="50" height="50" rx="25" fill="#FF0042"/>
<path d="M36.4437 25.2898C34.527 25.2898 32.9674 26.8493 32.9674 28.766C32.9674 30.6813 34.527 32.2402 36.4437 32.2402C38.359 32.2402 39.9171 30.6813 39.9171 28.766C39.9171 26.8493 38.359 25.2898 36.4437 25.2898ZM36.4437 31.1159C35.1464 31.1159 34.0917 30.0619 34.0917 28.766C34.0917 27.4695 35.1464 26.4141 36.4437 26.4141C37.7388 26.4141 38.7935 27.4695 38.7935 28.766C38.7935 30.0619 37.7388 31.1159 36.4437 31.1159ZM36.4437 25.2898C34.527 25.2898 32.9674 26.8493 32.9674 28.766C32.9674 30.6813 34.527 32.2402 36.4437 32.2402C38.359 32.2402 39.9171 30.6813 39.9171 28.766C39.9171 26.8493 38.359 25.2898 36.4437 25.2898ZM36.4437 31.1159C35.1464 31.1159 34.0917 30.0619 34.0917 28.766C34.0917 27.4695 35.1464 26.4141 36.4437 26.4141C37.7388 26.4141 38.7935 27.4695 38.7935 28.766C38.7935 30.0619 37.7388 31.1159 36.4437 31.1159ZM30.7877 20.0515L26.1858 17.4809C25.9151 17.329 25.5727 17.426 25.4208 17.6974C25.3482 17.8275 25.3303 17.9811 25.3709 18.1244C25.4115 18.2677 25.5073 18.389 25.6373 18.4617L29.3611 20.5423L25.6373 22.6228C25.3666 22.774 25.2696 23.1164 25.4208 23.3878C25.4697 23.4751 25.5411 23.5478 25.6275 23.5984C25.7139 23.6489 25.8122 23.6755 25.9123 23.6754C26.0051 23.6754 26.0993 23.6529 26.1858 23.6044L30.7877 21.033C30.8751 20.9843 30.9479 20.9132 30.9986 20.8269C31.0493 20.7406 31.076 20.6423 31.076 20.5423C31.076 20.3391 30.9656 20.1513 30.7877 20.0515ZM24.0884 15.8053C23.786 15.7357 23.4837 15.9248 23.4148 16.2272L21.4931 24.6084C21.4242 24.9108 21.6127 25.2124 21.9157 25.282C21.9579 25.2912 22.0001 25.2961 22.0416 25.2961C22.2975 25.2961 22.5295 25.1196 22.5893 24.8595L24.5102 16.4782C24.5798 16.1759 24.3907 15.8742 24.0884 15.8053ZM20.3681 22.6228L16.6444 20.5423L20.3681 18.4617C20.4982 18.389 20.594 18.2677 20.6346 18.1244C20.6752 17.9811 20.6573 17.8275 20.5847 17.6974C20.5487 17.6329 20.5004 17.5761 20.4425 17.5303C20.3846 17.4845 20.3182 17.4506 20.2471 17.4304C20.1761 17.4103 20.1017 17.4044 20.0284 17.4131C19.955 17.4217 19.8841 17.4448 19.8197 17.4809L15.2177 20.0515C15.1304 20.1003 15.0577 20.1715 15.0071 20.2578C14.9564 20.3441 14.9296 20.4422 14.9295 20.5423C14.9295 20.7462 15.0398 20.9339 15.2177 21.033L19.8197 23.6044C19.9062 23.6529 20.0004 23.6754 20.0932 23.6754C20.2901 23.6754 20.4813 23.572 20.5847 23.3878C20.7359 23.1164 20.6388 22.774 20.3681 22.6228ZM20.3681 22.6228L16.6444 20.5423L20.3681 18.4617C20.4982 18.389 20.594 18.2677 20.6346 18.1244C20.6752 17.9811 20.6573 17.8275 20.5847 17.6974C20.5487 17.6329 20.5004 17.5761 20.4425 17.5303C20.3846 17.4845 20.3182 17.4506 20.2471 17.4304C20.1761 17.4103 20.1017 17.4044 20.0284 17.4131C19.955 17.4217 19.8841 17.4448 19.8197 17.4809L15.2177 20.0515C15.1304 20.1003 15.0577 20.1715 15.0071 20.2578C14.9564 20.3441 14.9296 20.4422 14.9295 20.5423C14.9295 20.7462 15.0398 20.9339 15.2177 21.033L19.8197 23.6044C19.9062 23.6529 20.0004 23.6754 20.0932 23.6754C20.2901 23.6754 20.4813 23.572 20.5847 23.3878C20.7359 23.1164 20.6388 22.774 20.3681 22.6228ZM24.0884 15.8053C23.786 15.7357 23.4837 15.9248 23.4148 16.2272L21.4931 24.6084C21.4242 24.9108 21.6127 25.2124 21.9157 25.282C21.9579 25.2912 22.0001 25.2961 22.0416 25.2961C22.2975 25.2961 22.5295 25.1196 22.5893 24.8595L24.5102 16.4782C24.5798 16.1759 24.3907 15.8742 24.0884 15.8053ZM30.7877 20.0515L26.1858 17.4809C25.9151 17.329 25.5727 17.426 25.4208 17.6974C25.3482 17.8275 25.3303 17.9811 25.3709 18.1244C25.4115 18.2677 25.5073 18.389 25.6373 18.4617L29.3611 20.5423L25.6373 22.6228C25.3666 22.774 25.2696 23.1164 25.4208 23.3878C25.4697 23.4751 25.5411 23.5478 25.6275 23.5984C25.7139 23.6489 25.8122 23.6755 25.9123 23.6754C26.0051 23.6754 26.0993 23.6529 26.1858 23.6044L30.7877 21.033C30.8751 20.9843 30.9479 20.9132 30.9986 20.8269C31.0493 20.7406 31.076 20.6423 31.076 20.5423C31.076 20.3391 30.9656 20.1513 30.7877 20.0515ZM36.4437 25.2898C34.527 25.2898 32.9674 26.8493 32.9674 28.766C32.9674 30.6813 34.527 32.2402 36.4437 32.2402C38.359 32.2402 39.9171 30.6813 39.9171 28.766C39.9171 26.8493 38.359 25.2898 36.4437 25.2898ZM36.4437 31.1159C35.1464 31.1159 34.0917 30.0619 34.0917 28.766C34.0917 27.4695 35.1464 26.4141 36.4437 26.4141C37.7388 26.4141 38.7935 27.4695 38.7935 28.766C38.7935 30.0619 37.7388 31.1159 36.4437 31.1159ZM36.4437 25.2898C34.527 25.2898 32.9674 26.8493 32.9674 28.766C32.9674 30.6813 34.527 32.2402 36.4437 32.2402C38.359 32.2402 39.9171 30.6813 39.9171 28.766C39.9171 26.8493 38.359 25.2898 36.4437 25.2898ZM36.4437 31.1159C35.1464 31.1159 34.0917 30.0619 34.0917 28.766C34.0917 27.4695 35.1464 26.4141 36.4437 26.4141C37.7388 26.4141 38.7935 27.4695 38.7935 28.766C38.7935 30.0619 37.7388 31.1159 36.4437 31.1159ZM30.7877 20.0515L26.1858 17.4809C25.9151 17.329 25.5727 17.426 25.4208 17.6974C25.3482 17.8275 25.3303 17.9811 25.3709 18.1244C25.4115 18.2677 25.5073 18.389 25.6373 18.4617L29.3611 20.5423L25.6373 22.6228C25.3666 22.774 25.2696 23.1164 25.4208 23.3878C25.4697 23.4751 25.5411 23.5478 25.6275 23.5984C25.7139 23.6489 25.8122 23.6755 25.9123 23.6754C26.0051 23.6754 26.0993 23.6529 26.1858 23.6044L30.7877 21.033C30.8751 20.9843 30.9479 20.9132 30.9986 20.8269C31.0493 20.7406 31.076 20.6423 31.076 20.5423C31.076 20.3391 30.9656 20.1513 30.7877 20.0515ZM24.0884 15.8053C23.786 15.7357 23.4837 15.9248 23.4148 16.2272L21.4931 24.6084C21.4242 24.9108 21.6127 25.2124 21.9157 25.282C21.9579 25.2912 22.0001 25.2961 22.0416 25.2961C22.2975 25.2961 22.5295 25.1196 22.5893 24.8595L24.5102 16.4782C24.5798 16.1759 24.3907 15.8742 24.0884 15.8053ZM20.5847 17.6974C20.5487 17.6329 20.5004 17.5761 20.4425 17.5303C20.3846 17.4845 20.3182 17.4506 20.2471 17.4304C20.1761 17.4103 20.1017 17.4044 20.0284 17.4131C19.955 17.4217 19.8841 17.4448 19.8197 17.4809L15.2177 20.0515C15.1304 20.1003 15.0577 20.1715 15.0071 20.2578C14.9564 20.3441 14.9296 20.4422 14.9295 20.5423C14.9295 20.7462 15.0398 20.9339 15.2177 21.033L19.8197 23.6044C19.9062 23.6529 20.0004 23.6754 20.0932 23.6754C20.2901 23.6754 20.4813 23.572 20.5847 23.3878C20.7359 23.1164 20.6388 22.774 20.3681 22.6228L16.6444 20.5423L20.3681 18.4617C20.4982 18.389 20.594 18.2677 20.6346 18.1244C20.6752 17.9811 20.6573 17.8275 20.5847 17.6974ZM44.6105 27.2445L43.676 26.9421L43.3863 26.8472C43.2295 26.2784 43.0024 25.7306 42.7078 25.2124L43.2942 24.0628C43.3481 23.9568 43.3671 23.8364 43.3484 23.719C43.3297 23.6015 43.2743 23.493 43.1902 23.4089L41.798 22.0188C41.7141 21.9348 41.6058 21.8795 41.4886 21.8608C41.3714 21.8421 41.2513 21.861 41.1455 21.9148L39.9945 22.4998C39.4791 22.2073 38.9313 21.9795 38.3604 21.8213L37.9624 20.5964C37.926 20.4833 37.8547 20.3848 37.7586 20.3149C37.6626 20.245 37.5468 20.2074 37.428 20.2076H37.0055V14.3217C37.0055 13.0413 35.9627 12 34.6816 12H11.3245C10.0427 12 9 13.0413 9 14.3217V31.2234C9 32.5052 10.0427 33.5473 11.3245 33.5473H19.9273L18.9787 36.198H17.1183C16.8075 36.198 16.5558 36.4498 16.5558 36.7605C16.5558 37.0706 16.8075 37.3223 17.1183 37.3223H28.8872C29.198 37.3223 29.4497 37.0706 29.4497 36.7605C29.4497 36.4498 29.198 36.198 28.8872 36.198H27.0267L26.0782 33.5473H29.5573C29.4919 33.747 29.5425 33.9691 29.6944 34.121L31.0866 35.5132C31.1705 35.5973 31.279 35.6526 31.3963 35.6712C31.5137 35.6897 31.6339 35.6706 31.7398 35.6166L32.8894 35.0309C33.4048 35.3248 33.9532 35.5519 34.5248 35.7094L34.9221 36.9335C34.9586 37.0465 35.03 37.1451 35.126 37.2149C35.222 37.2848 35.3377 37.3224 35.4565 37.3223H37.428C37.672 37.3223 37.8879 37.1656 37.9624 36.9335L38.2648 35.9984L38.3597 35.7094C38.932 35.5519 39.4798 35.3248 39.9952 35.0309L41.1448 35.6166C41.362 35.7277 41.6257 35.6855 41.798 35.5132L43.1902 34.121C43.2743 34.037 43.3297 33.9284 43.3484 33.811C43.3671 33.6935 43.3481 33.5731 43.2942 33.4671L42.7078 32.3175C43 31.803 43.2277 31.2544 43.3856 30.6841L44.6119 30.2848C44.7247 30.248 44.823 30.1766 44.8927 30.0806C44.9624 29.9846 45 29.869 45 29.7504V27.7795C45 27.5355 44.8425 27.3197 44.6105 27.2445ZM10.1243 14.3217C10.1243 13.6615 10.6629 13.1243 11.3245 13.1243H34.6816C35.3433 13.1243 35.8812 13.6615 35.8812 14.3217V20.2076H35.4565C35.2132 20.2076 34.9966 20.3644 34.9221 20.5964L34.6198 21.5316L34.5248 21.8213C33.9532 21.9795 33.4055 22.2073 32.8901 22.4998L31.7391 21.9148C31.6334 21.861 31.5133 21.8421 31.3962 21.8608C31.2791 21.8795 31.171 21.9348 31.0873 22.0188L29.6944 23.4089C29.6102 23.493 29.5548 23.6015 29.5361 23.719C29.5174 23.8364 29.5364 23.9568 29.5903 24.0628L30.1774 25.2124C29.8842 25.7278 29.6571 26.2755 29.4989 26.8472L28.2741 27.2445C28.161 27.2811 28.0625 27.3526 27.9926 27.4487C27.9227 27.5449 27.8852 27.6607 27.8852 27.7795V27.963H10.1243V14.3217ZM20.1727 36.198L21.1212 33.5473H24.8843L25.8328 36.198H20.1727ZM30.1233 32.4237H11.3245C10.6629 32.4237 10.1243 31.8851 10.1243 31.2234V29.0866H27.8852V29.7504C27.8852 29.9937 28.0413 30.2095 28.2727 30.2848L29.4989 30.6841C29.6571 31.2551 29.8842 31.8021 30.1774 32.3175L30.1233 32.4237ZM43.8757 29.3426L42.7437 29.7103C42.6512 29.7402 42.5681 29.7935 42.5024 29.8651C42.4367 29.9367 42.3907 30.0241 42.3689 30.1188C42.2169 30.7843 41.9535 31.4192 41.5898 31.9969C41.5382 32.0792 41.5088 32.1736 41.5045 32.2707C41.5002 32.3678 41.5211 32.4643 41.5652 32.5509L42.1066 33.6141L41.291 34.4297L40.2279 33.8876C40.1411 33.8433 40.0443 33.8225 39.9471 33.827C39.8498 33.8316 39.7554 33.8614 39.6731 33.9136C39.0968 34.2775 38.4626 34.5405 37.7979 34.6913C37.7032 34.7128 37.6156 34.7585 37.5438 34.824C37.4719 34.8894 37.4183 34.9723 37.388 35.0646L37.0188 36.198H35.8657L35.4966 35.0646C35.4664 34.9722 35.4127 34.8893 35.3409 34.8238C35.269 34.7584 35.1814 34.7127 35.0866 34.6913C34.4219 34.5405 33.7877 34.2775 33.2114 33.9136C33.1292 33.8614 33.0348 33.8316 32.9375 33.827C32.8402 33.8225 32.7434 33.8433 32.6566 33.8876L31.5935 34.4297L30.7779 33.6141L30.9586 33.259C30.9635 33.2505 30.9677 33.2421 30.972 33.233L31.32 32.5509C31.364 32.4643 31.3848 32.3677 31.3804 32.2706C31.3759 32.1735 31.3464 32.0792 31.2947 31.9969C30.9316 31.4189 30.6682 30.7841 30.5156 30.1188C30.4939 30.0241 30.448 29.9366 30.3823 29.865C30.3166 29.7934 30.2334 29.7401 30.1409 29.7103L29.0088 29.3426V28.188L30.143 27.8196C30.2349 27.7892 30.3175 27.7357 30.3828 27.6642C30.4481 27.5926 30.4938 27.5055 30.5156 27.4111C30.6682 26.7458 30.9316 26.111 31.2947 25.533C31.3464 25.4508 31.3759 25.3565 31.3804 25.2594C31.3848 25.1623 31.364 25.0657 31.32 24.979L30.7779 23.9159L31.5935 23.1016L32.6566 23.6423C32.7433 23.6865 32.8399 23.7074 32.937 23.703C33.0342 23.6985 33.1285 23.6689 33.2107 23.617C33.7901 23.2535 34.4215 22.9913 35.088 22.838C35.1825 22.8164 35.2698 22.7707 35.3414 22.7054C35.4129 22.6401 35.4664 22.5574 35.4966 22.4653L35.8657 21.3319H37.0188L37.388 22.4653C37.4181 22.5574 37.4716 22.6401 37.5432 22.7054C37.6148 22.7707 37.702 22.8164 37.7965 22.838C38.4617 22.9907 39.0965 23.2541 39.6745 23.617C39.7567 23.6688 39.8509 23.6983 39.9479 23.7027C40.0449 23.7072 40.1413 23.6864 40.2279 23.6423L41.291 23.1016L42.1066 23.9159L41.5652 24.979C41.5211 25.0656 41.5002 25.1622 41.5045 25.2593C41.5088 25.3564 41.5382 25.4507 41.5898 25.533C41.9569 26.1166 42.2184 26.748 42.3689 27.4097C42.3905 27.5044 42.4362 27.592 42.5016 27.6638C42.567 27.7356 42.65 27.7893 42.7423 27.8196L43.8757 28.188V29.3426ZM36.4437 25.2898C34.527 25.2898 32.9674 26.8493 32.9674 28.766C32.9674 30.6813 34.527 32.2402 36.4437 32.2402C38.359 32.2402 39.9171 30.6813 39.9171 28.766C39.9171 26.8493 38.359 25.2898 36.4437 25.2898ZM36.4437 31.1159C35.1464 31.1159 34.0917 30.0619 34.0917 28.766C34.0917 27.4695 35.1464 26.4141 36.4437 26.4141C37.7388 26.4141 38.7935 27.4695 38.7935 28.766C38.7935 30.0619 37.7388 31.1159 36.4437 31.1159ZM31.076 20.5423C31.076 20.3391 30.9656 20.1513 30.7877 20.0515L26.1858 17.4809C25.9151 17.329 25.5727 17.426 25.4208 17.6974C25.3482 17.8275 25.3303 17.9811 25.3709 18.1244C25.4115 18.2677 25.5073 18.389 25.6373 18.4617L29.3611 20.5423L25.6373 22.6228C25.3666 22.774 25.2696 23.1164 25.4208 23.3878C25.4697 23.4751 25.5411 23.5478 25.6275 23.5984C25.7139 23.6489 25.8122 23.6755 25.9123 23.6754C26.0051 23.6754 26.0993 23.6529 26.1858 23.6044L30.7877 21.033C30.8751 20.9843 30.9479 20.9132 30.9986 20.8269C31.0493 20.7406 31.076 20.6423 31.076 20.5423ZM24.0884 15.8053C23.786 15.7357 23.4837 15.9248 23.4148 16.2272L21.4931 24.6084C21.4242 24.9108 21.6127 25.2124 21.9157 25.282C21.9579 25.2912 22.0001 25.2961 22.0416 25.2961C22.2975 25.2961 22.5295 25.1196 22.5893 24.8595L24.5102 16.4782C24.5798 16.1759 24.3907 15.8742 24.0884 15.8053ZM20.5847 17.6974C20.5487 17.6329 20.5004 17.5761 20.4425 17.5303C20.3846 17.4845 20.3182 17.4506 20.2471 17.4304C20.1761 17.4103 20.1017 17.4044 20.0284 17.4131C19.955 17.4217 19.8841 17.4448 19.8197 17.4809L15.2177 20.0515C15.1304 20.1003 15.0577 20.1715 15.0071 20.2578C14.9564 20.3441 14.9296 20.4422 14.9295 20.5423C14.9295 20.7462 15.0398 20.9339 15.2177 21.033L19.8197 23.6044C19.9062 23.6529 20.0004 23.6754 20.0932 23.6754C20.2901 23.6754 20.4813 23.572 20.5847 23.3878C20.7359 23.1164 20.6388 22.774 20.3681 22.6228L16.6444 20.5423L20.3681 18.4617C20.4982 18.389 20.594 18.2677 20.6346 18.1244C20.6752 17.9811 20.6573 17.8275 20.5847 17.6974ZM20.3681 22.6228L16.6444 20.5423L20.3681 18.4617C20.4982 18.389 20.594 18.2677 20.6346 18.1244C20.6752 17.9811 20.6573 17.8275 20.5847 17.6974C20.5487 17.6329 20.5004 17.5761 20.4425 17.5303C20.3846 17.4845 20.3182 17.4506 20.2471 17.4304C20.1761 17.4103 20.1017 17.4044 20.0284 17.4131C19.955 17.4217 19.8841 17.4448 19.8197 17.4809L15.2177 20.0515C15.1304 20.1003 15.0577 20.1715 15.0071 20.2578C14.9564 20.3441 14.9296 20.4422 14.9295 20.5423C14.9295 20.7462 15.0398 20.9339 15.2177 21.033L19.8197 23.6044C19.9062 23.6529 20.0004 23.6754 20.0932 23.6754C20.2901 23.6754 20.4813 23.572 20.5847 23.3878C20.7359 23.1164 20.6388 22.774 20.3681 22.6228ZM24.0884 15.8053C23.786 15.7357 23.4837 15.9248 23.4148 16.2272L21.4931 24.6084C21.4242 24.9108 21.6127 25.2124 21.9157 25.282C21.9579 25.2912 22.0001 25.2961 22.0416 25.2961C22.2975 25.2961 22.5295 25.1196 22.5893 24.8595L24.5102 16.4782C24.5798 16.1759 24.3907 15.8742 24.0884 15.8053ZM30.7877 20.0515L26.1858 17.4809C25.9151 17.329 25.5727 17.426 25.4208 17.6974C25.3482 17.8275 25.3303 17.9811 25.3709 18.1244C25.4115 18.2677 25.5073 18.389 25.6373 18.4617L29.3611 20.5423L25.6373 22.6228C25.3666 22.774 25.2696 23.1164 25.4208 23.3878C25.4697 23.4751 25.5411 23.5478 25.6275 23.5984C25.7139 23.6489 25.8122 23.6755 25.9123 23.6754C26.0051 23.6754 26.0993 23.6529 26.1858 23.6044L30.7877 21.033C30.8751 20.9843 30.9479 20.9132 30.9986 20.8269C31.0493 20.7406 31.076 20.6423 31.076 20.5423C31.076 20.3391 30.9656 20.1513 30.7877 20.0515ZM36.4437 25.2898C34.527 25.2898 32.9674 26.8493 32.9674 28.766C32.9674 30.6813 34.527 32.2402 36.4437 32.2402C38.359 32.2402 39.9171 30.6813 39.9171 28.766C39.9171 26.8493 38.359 25.2898 36.4437 25.2898ZM36.4437 31.1159C35.1464 31.1159 34.0917 30.0619 34.0917 28.766C34.0917 27.4695 35.1464 26.4141 36.4437 26.4141C37.7388 26.4141 38.7935 27.4695 38.7935 28.766C38.7935 30.0619 37.7388 31.1159 36.4437 31.1159ZM36.4437 25.2898C34.527 25.2898 32.9674 26.8493 32.9674 28.766C32.9674 30.6813 34.527 32.2402 36.4437 32.2402C38.359 32.2402 39.9171 30.6813 39.9171 28.766C39.9171 26.8493 38.359 25.2898 36.4437 25.2898ZM36.4437 31.1159C35.1464 31.1159 34.0917 30.0619 34.0917 28.766C34.0917 27.4695 35.1464 26.4141 36.4437 26.4141C37.7388 26.4141 38.7935 27.4695 38.7935 28.766C38.7935 30.0619 37.7388 31.1159 36.4437 31.1159ZM30.7877 20.0515L26.1858 17.4809C25.9151 17.329 25.5727 17.426 25.4208 17.6974C25.3482 17.8275 25.3303 17.9811 25.3709 18.1244C25.4115 18.2677 25.5073 18.389 25.6373 18.4617L29.3611 20.5423L25.6373 22.6228C25.3666 22.774 25.2696 23.1164 25.4208 23.3878C25.4697 23.4751 25.5411 23.5478 25.6275 23.5984C25.7139 23.6489 25.8122 23.6755 25.9123 23.6754C26.0051 23.6754 26.0993 23.6529 26.1858 23.6044L30.7877 21.033C30.8751 20.9843 30.9479 20.9132 30.9986 20.8269C31.0493 20.7406 31.076 20.6423 31.076 20.5423C31.076 20.3391 30.9656 20.1513 30.7877 20.0515ZM24.0884 15.8053C23.786 15.7357 23.4837 15.9248 23.4148 16.2272L21.4931 24.6084C21.4242 24.9108 21.6127 25.2124 21.9157 25.282C21.9579 25.2912 22.0001 25.2961 22.0416 25.2961C22.2975 25.2961 22.5295 25.1196 22.5893 24.8595L24.5102 16.4782C24.5798 16.1759 24.3907 15.8742 24.0884 15.8053ZM20.3681 22.6228L16.6444 20.5423L20.3681 18.4617C20.4982 18.389 20.594 18.2677 20.6346 18.1244C20.6752 17.9811 20.6573 17.8275 20.5847 17.6974C20.5487 17.6329 20.5004 17.5761 20.4425 17.5303C20.3846 17.4845 20.3182 17.4506 20.2471 17.4304C20.1761 17.4103 20.1017 17.4044 20.0284 17.4131C19.955 17.4217 19.8841 17.4448 19.8197 17.4809L15.2177 20.0515C15.1304 20.1003 15.0577 20.1715 15.0071 20.2578C14.9564 20.3441 14.9296 20.4422 14.9295 20.5423C14.9295 20.7462 15.0398 20.9339 15.2177 21.033L19.8197 23.6044C19.9062 23.6529 20.0004 23.6754 20.0932 23.6754C20.2901 23.6754 20.4813 23.572 20.5847 23.3878C20.7359 23.1164 20.6388 22.774 20.3681 22.6228ZM30.7877 20.0515L26.1858 17.4809C25.9151 17.329 25.5727 17.426 25.4208 17.6974C25.3482 17.8275 25.3303 17.9811 25.3709 18.1244C25.4115 18.2677 25.5073 18.389 25.6373 18.4617L29.3611 20.5423L25.6373 22.6228C25.3666 22.774 25.2696 23.1164 25.4208 23.3878C25.4697 23.4751 25.5411 23.5478 25.6275 23.5984C25.7139 23.6489 25.8122 23.6755 25.9123 23.6754C26.0051 23.6754 26.0993 23.6529 26.1858 23.6044L30.7877 21.033C30.8751 20.9843 30.9479 20.9132 30.9986 20.8269C31.0493 20.7406 31.076 20.6423 31.076 20.5423C31.076 20.3391 30.9656 20.1513 30.7877 20.0515ZM20.3681 22.6228L16.6444 20.5423L20.3681 18.4617C20.4982 18.389 20.594 18.2677 20.6346 18.1244C20.6752 17.9811 20.6573 17.8275 20.5847 17.6974C20.5487 17.6329 20.5004 17.5761 20.4425 17.5303C20.3846 17.4845 20.3182 17.4506 20.2471 17.4304C20.1761 17.4103 20.1017 17.4044 20.0284 17.4131C19.955 17.4217 19.8841 17.4448 19.8197 17.4809L15.2177 20.0515C15.1304 20.1003 15.0577 20.1715 15.0071 20.2578C14.9564 20.3441 14.9296 20.4422 14.9295 20.5423C14.9295 20.7462 15.0398 20.9339 15.2177 21.033L19.8197 23.6044C19.9062 23.6529 20.0004 23.6754 20.0932 23.6754C20.2901 23.6754 20.4813 23.572 20.5847 23.3878C20.7359 23.1164 20.6388 22.774 20.3681 22.6228ZM24.0884 15.8053C23.786 15.7357 23.4837 15.9248 23.4148 16.2272L21.4931 24.6084C21.4242 24.9108 21.6127 25.2124 21.9157 25.282C21.9579 25.2912 22.0001 25.2961 22.0416 25.2961C22.2975 25.2961 22.5295 25.1196 22.5893 24.8595L24.5102 16.4782C24.5798 16.1759 24.3907 15.8742 24.0884 15.8053Z" fill="white"/>
</svg>
