<svg width="50" height="50" viewBox="0 0 50 50" fill="none" xmlns="http://www.w3.org/2000/svg">
<rect width="50" height="50" rx="25" fill="#FF0042"/>
<path d="M36.4705 18.3517L34.9211 16.472C34.7089 16.2153 34.5787 15.9007 34.5473 15.5692L34.3137 13.1443C34.1923 11.8846 33.1897 10.882 31.9299 10.7606L29.5051 10.5272C29.1736 10.4957 28.8591 10.3654 28.6023 10.1534L26.7226 8.60366C25.746 7.79878 24.3283 7.79878 23.3517 8.60366L21.4719 10.1534C21.2151 10.3655 20.9007 10.4957 20.5691 10.5272L18.1443 10.7606C16.8846 10.882 15.8823 11.8846 15.7606 13.1443L15.5272 15.5691C15.4957 15.9006 15.3654 16.2151 15.1534 16.472L13.6037 18.3517C12.7988 19.3284 12.7988 20.7461 13.6037 21.7226L15.1533 23.6023C15.3653 23.8592 15.4955 24.1736 15.5271 24.5052L15.7606 26.93C15.8819 28.1898 16.8845 29.1921 18.1443 29.3137L19.6265 29.4564L16.105 37.8713C16.0581 37.9825 16.0437 38.1049 16.0637 38.2239C16.0836 38.343 16.137 38.454 16.2175 38.544C16.3824 38.7296 16.6329 38.8031 16.8711 38.7354L19.9263 37.8728C19.9324 37.8709 19.9388 37.8712 19.9447 37.8735C19.9506 37.8759 19.9554 37.8802 19.9585 37.8857L21.4885 40.6677C21.5433 40.7685 21.6244 40.8526 21.7231 40.911C21.8218 40.9695 21.9345 41.0001 22.0493 40.9997C22.0603 40.9997 22.0714 40.9995 22.0827 40.999C22.3302 40.9864 22.5442 40.8369 22.6422 40.6063L26.36 31.7214C26.4877 31.648 26.6091 31.5642 26.7228 31.4706L28.6025 29.9212C28.8391 29.726 29.1252 29.6001 29.429 29.5574L32.7964 37.6037L30.4135 36.9309C30.1947 36.8685 29.9611 36.8823 29.7512 36.9701C29.5413 37.0579 29.3675 37.2144 29.2583 37.4141L28.0652 39.5835L26.4844 35.8058C26.4342 35.686 26.3386 35.5911 26.2185 35.5418C26.0984 35.4926 25.9636 35.4931 25.8438 35.5432C25.7846 35.568 25.7308 35.6042 25.6855 35.6498C25.6402 35.6954 25.6044 35.7495 25.58 35.8089C25.5557 35.8684 25.5433 35.9321 25.5435 35.9963C25.5438 36.0606 25.5567 36.1241 25.5815 36.1834L27.4332 40.6087C27.4799 40.7199 27.5571 40.8156 27.656 40.8847C27.7548 40.9538 27.8712 40.9934 27.9917 40.999C28.003 40.9995 28.0141 41 28.0252 41C28.14 41.0003 28.2526 40.9696 28.3513 40.9111C28.45 40.8526 28.5311 40.7685 28.5858 40.6677L30.1156 37.8861C30.1187 37.8806 30.1236 37.8763 30.1294 37.8739C30.1353 37.8715 30.1418 37.8711 30.1478 37.8728L33.2025 38.7353C33.3185 38.7687 33.4415 38.7684 33.5573 38.7345C33.6731 38.7007 33.7769 38.6346 33.8566 38.544C34.0215 38.3582 34.0646 38.1007 33.9689 37.8708L30.4477 29.4562L31.9298 29.3135C33.1897 29.1921 34.1922 28.1898 34.3136 26.93L34.5472 24.5049C34.579 24.1724 34.7084 23.8604 34.9211 23.6023L36.4705 21.7226C37.2756 20.7461 37.2756 19.3283 36.4705 18.3517ZM22.0093 39.5835L20.8159 37.4135C20.7067 37.2139 20.5328 37.0574 20.3229 36.9697C20.113 36.882 19.8795 36.8683 19.6608 36.9309L17.278 37.6033L20.6452 29.5574C20.949 29.6 21.2351 29.7258 21.472 29.9209L23.3516 31.4705C23.8401 31.8731 24.4386 32.0743 25.0373 32.0743C25.0758 32.0743 25.114 32.0733 25.1526 32.0715L22.0093 39.5835ZM35.7155 21.1002L34.1661 22.9799C33.8296 23.3869 33.623 23.8855 33.5729 24.4112L33.3396 26.836C33.263 27.6306 32.6308 28.2628 31.8362 28.3393L29.7063 28.5445C29.698 28.545 29.6894 28.5458 29.6811 28.547L29.4115 28.5729C28.8857 28.6229 28.3871 28.8295 27.9799 29.1659L26.1002 30.7152C25.4844 31.2231 24.5901 31.2231 23.9743 30.7152L22.0946 29.1658C21.6875 28.8294 21.1888 28.6228 20.6631 28.5729L20.3921 28.5467C20.3847 28.5458 20.3772 28.5452 20.3698 28.5447L18.2383 28.3393C17.4437 28.2628 16.8115 27.6306 16.735 26.836L16.5016 24.4115C16.4516 23.8857 16.245 23.387 15.9084 22.9799L14.359 21.1002C13.8512 20.4841 13.8512 19.5898 14.359 18.9741L15.9084 17.0944C16.245 16.6873 16.4516 16.1886 16.5016 15.6628L16.735 13.2381C16.8116 12.4434 17.4437 11.8113 18.2383 11.7347L20.6631 11.5014C21.1889 11.4513 21.6875 11.2448 22.0946 10.9084L23.9744 9.35898C24.2823 9.10523 24.6599 8.97807 25.0373 8.97807C25.4148 8.97807 25.7924 9.10504 26.1003 9.35898L27.98 10.9084C28.387 11.2449 28.8857 11.4515 29.4115 11.5014L31.8363 11.7347C32.6309 11.8113 33.2631 12.4434 33.3396 13.2381L33.573 15.6628C33.623 16.1886 33.8296 16.6873 34.1661 17.0944L35.7156 18.9741C36.2231 19.5901 36.2231 20.4842 35.7156 21.1002H35.7155Z" fill="white"/>
<path d="M25.0373 12.3928C24.7105 12.3928 24.3817 12.4134 24.0594 12.4548C23.9307 12.4713 23.8139 12.5382 23.7345 12.6408C23.6551 12.7434 23.6198 12.8734 23.6362 13.0021C23.6705 13.2702 23.9159 13.4596 24.1836 13.4255C24.4645 13.3896 24.7518 13.3714 25.0373 13.3714C28.7129 13.3714 31.7031 16.3617 31.7031 20.0373C31.7031 23.7128 28.7126 26.7029 25.0373 26.7029C21.3617 26.7029 18.3715 23.7126 18.3715 20.037C18.3715 17.4154 19.9173 15.0273 22.3096 13.953C22.3682 13.9267 22.4211 13.8891 22.4652 13.8424C22.5093 13.7956 22.5438 13.7407 22.5666 13.6806C22.5895 13.6205 22.6002 13.5566 22.5984 13.4923C22.5965 13.4281 22.5819 13.3649 22.5556 13.3062C22.5293 13.2476 22.4917 13.1948 22.445 13.1507C22.3982 13.1066 22.3432 13.0721 22.2832 13.0493C22.2231 13.0264 22.1591 13.0157 22.0949 13.0175C22.0307 13.0194 21.9674 13.034 21.9088 13.0603C19.1653 14.2922 17.3928 17.0306 17.3928 20.037C17.3928 24.2524 20.8222 27.6815 25.0373 27.6815C29.2524 27.6815 32.6817 24.2524 32.6817 20.037C32.6817 15.8219 29.2524 12.3928 25.0373 12.3928Z" fill="white"/>
<path d="M20.1775 19.4703C19.5941 20.0536 19.5941 21.003 20.1775 21.5864L22.3148 23.7239C22.4534 23.8632 22.6183 23.9737 22.8 24.0489C22.9816 24.1241 23.1763 24.1625 23.3729 24.162C23.5695 24.1625 23.7642 24.1241 23.9458 24.0489C24.1275 23.9737 24.2924 23.8632 24.4311 23.7239L29.0966 19.0582C29.68 18.4746 29.68 17.5254 29.0966 16.9417C28.5133 16.3584 27.5639 16.3584 26.9802 16.9417L23.3729 20.5494L22.2936 19.4703C21.7103 18.887 20.7609 18.887 20.1775 19.4703ZM23.3729 21.7309C23.4372 21.7309 23.5008 21.7182 23.5602 21.6936C23.6195 21.669 23.6735 21.6329 23.7189 21.5874L27.6724 17.6339C27.8743 17.432 28.2026 17.4322 28.4045 17.6339C28.6064 17.8358 28.6064 18.1643 28.4045 18.366L23.739 23.0318C23.691 23.08 23.6339 23.1182 23.5711 23.1442C23.5083 23.1702 23.4409 23.1835 23.3729 23.1833C23.3049 23.1836 23.2375 23.1703 23.1747 23.1443C23.1118 23.1183 23.0548 23.08 23.0068 23.0318L20.8693 20.8946C20.6676 20.6926 20.6676 20.3641 20.8693 20.1624C20.9174 20.1143 20.9745 20.0761 21.0374 20.0501C21.1002 20.0241 21.1676 20.0108 21.2356 20.0109C21.3036 20.0108 21.3708 20.0241 21.4336 20.05C21.4964 20.076 21.5534 20.1141 21.6015 20.1621L23.0267 21.5874C23.0722 21.6329 23.1261 21.669 23.1855 21.6936C23.2449 21.7182 23.3086 21.7309 23.3729 21.7309H23.3729Z" fill="white"/>
</svg>
