<svg width="50" height="50" viewBox="0 0 50 50" fill="none" xmlns="http://www.w3.org/2000/svg">
<rect width="50" height="50" rx="25" fill="#FF0042"/>
<path d="M35.9269 33.6772C36.2561 33.4135 36.5219 33.0792 36.7046 32.699C36.8873 32.3188 36.9823 31.9024 36.9824 31.4806C36.9824 29.9255 35.7178 28.6608 34.1627 28.6608C32.6076 28.6608 31.3429 29.9255 31.3429 31.4806C31.3429 32.3679 31.756 33.1598 32.3984 33.6772C31.4028 34.0406 30.5424 34.7002 29.933 35.5674V35.2403C29.933 33.0099 28.5104 31.1107 26.5277 30.3875C26.9654 30.0366 27.2887 29.5633 27.4563 29.0279C27.6476 29.0918 27.8478 29.1308 28.0532 29.1308C29.0899 29.1308 29.933 28.2877 29.933 27.2509V26.1493L31.3871 27.6034C31.6836 27.9004 32.0361 28.0931 32.4055 28.1594C32.5234 28.1805 32.6409 28.1913 32.7575 28.1913C33.0038 28.1919 33.2478 28.1435 33.4752 28.0489C33.7026 27.9544 33.909 27.8156 34.0823 27.6405C34.4367 27.2852 34.6326 26.8134 34.6326 26.311C34.6326 25.8086 34.4367 25.3368 34.1096 25.012L30.5571 20.7753C30.0399 20.1584 29.4325 19.6231 28.7553 19.1878L24.0646 16.172C23.3936 15.7416 22.6325 15.4716 21.8402 15.383L19.6775 15.1428L20.2583 14.5619L16.3041 10.6077L10 16.9117L13.9543 20.866L14.2955 20.5248L14.8129 21.5592C15.4394 22.8138 16.3587 23.8991 17.4931 24.7235L21.7096 27.79C21.789 27.8478 21.8727 27.8971 21.9577 27.9427C21.9507 28.025 21.9436 28.1077 21.9436 28.1909C21.9436 29.0781 22.3567 29.87 22.9992 30.3875C21.0164 31.1107 19.5938 33.0099 19.5938 35.2403V35.5669C18.9843 34.6999 18.1239 34.0403 17.1284 33.6767C17.4577 33.4132 17.7235 33.079 17.9062 32.6988C18.0889 32.3187 18.1838 31.9024 18.1839 31.4806C18.1839 29.9255 16.9193 28.6608 15.3642 28.6608C13.809 28.6608 12.5444 29.9255 12.5444 31.4806C12.5444 32.3679 12.9575 33.1598 13.5999 33.6772C11.6171 34.4005 10.1946 36.2996 10.1946 38.53V39H20.5337V38.53C20.534 37.5281 20.2413 36.5479 19.6916 35.7103H29.8357C29.2856 36.5478 28.9927 37.528 28.9931 38.53V39H39.3323V38.53C39.3323 36.2996 37.9097 34.4005 35.9269 33.6772ZM13.4843 31.4806C13.4843 30.4439 14.3274 29.6007 15.3642 29.6007C16.4009 29.6007 17.244 30.4439 17.244 31.4806C17.244 32.5173 16.4009 33.3604 15.3642 33.3604C14.3274 33.3604 13.4843 32.5173 13.4843 31.4806ZM16.673 34.5119L15.3642 35.9514L14.0553 34.5119C14.4684 34.377 14.9069 34.3004 15.3642 34.3004C15.8214 34.3004 16.2599 34.377 16.673 34.5119ZM11.1603 38.0601C11.2328 37.4196 11.4505 36.8041 11.7967 36.2605C12.143 35.7169 12.6088 35.2595 13.1586 34.9231L15.3642 37.349L17.5692 34.9231C18.1191 35.2594 18.5849 35.7168 18.9312 36.2604C19.2775 36.8041 19.4952 37.4196 19.5675 38.0601H11.1603ZM25.1008 25.3932C24.9878 25.0657 24.7949 24.7716 24.5397 24.5374L21.0991 21.4408L24.7296 22.431C25.1444 22.544 25.5105 22.7903 25.7714 23.132C26.0323 23.4737 26.1736 23.8917 26.1733 24.3216V25.7527C25.8441 25.561 25.4791 25.4387 25.1008 25.3932ZM33.4173 25.6465C33.595 25.8241 33.6927 26.06 33.6927 26.311C33.6927 26.562 33.595 26.7979 33.4173 26.9755C33.3084 27.0845 33.1744 27.1651 33.0271 27.2103C32.8798 27.2554 32.7236 27.2637 32.5723 27.2345C32.3453 27.1936 32.1639 27.0512 32.0521 26.9389L29.933 24.8203V21.4934L33.4173 25.6465ZM11.3291 16.9117L16.3041 11.9367L18.9293 14.5619L13.9543 19.537L11.3291 16.9117ZM18.0462 23.9635C17.0335 23.2278 16.2129 22.259 15.6537 21.1391L14.9962 19.8246L18.8268 15.9939L21.7369 16.3177C22.3851 16.3904 23.0079 16.6113 23.557 16.9634L28.2477 19.9792C28.5095 20.1474 28.7572 20.3354 28.9935 20.5361V27.2509C28.9935 27.7693 28.572 28.1909 28.0536 28.1909C27.884 28.1909 27.7204 28.1443 27.5771 28.0597C27.5546 27.5517 27.3945 27.0593 27.1137 26.6353V24.3212C27.1142 23.8438 26.9965 23.3737 26.7713 22.9528C26.546 22.5319 26.2202 22.1733 25.8227 21.9089C25.5635 21.7358 25.278 21.6058 24.9772 21.524L20.1883 20.2179C20.1186 20.1992 20.0454 20.1966 19.9745 20.2106C19.9037 20.2245 19.8369 20.2546 19.7795 20.2984C19.722 20.3422 19.6754 20.3986 19.6432 20.4633C19.6111 20.528 19.5941 20.5992 19.5938 20.6714V21.1414C19.5938 21.2749 19.6502 21.4018 19.7494 21.4906L23.9109 25.2357C24.1539 25.4547 24.2935 25.7677 24.2935 26.0953C24.293 26.4016 24.171 26.6953 23.9544 26.9119C23.7378 27.1285 23.4442 27.2504 23.1378 27.2509H22.9423C22.6981 27.2513 22.4601 27.174 22.2627 27.03L18.0462 23.9635ZM22.8836 28.1909L22.884 28.1862C22.9038 28.1866 22.9226 28.1909 22.9423 28.1909H23.1378C24.1995 28.1909 25.0698 27.3943 25.2061 26.3693C26.0286 26.5695 26.6433 27.3073 26.6433 28.1909C26.6433 29.2276 25.8002 30.0707 24.7634 30.0707C23.7267 30.0707 22.8836 29.2276 22.8836 28.1909ZM26.0723 31.2221L24.7634 32.6616L23.4546 31.2221C23.8677 31.0872 24.3061 31.0106 24.7634 31.0106C25.2207 31.0106 25.6592 31.0872 26.0723 31.2221ZM20.5596 34.7703C20.632 34.1299 20.8497 33.5144 21.196 32.9708C21.5423 32.4271 22.0081 31.9697 22.5579 31.6333L24.7634 34.0593L26.9685 31.6333C27.5184 31.9696 27.9842 32.427 28.3305 32.9707C28.6768 33.5143 28.8944 34.1298 28.9668 34.7703H20.5596ZM32.2828 31.4806C32.2828 30.4439 33.1259 29.6007 34.1627 29.6007C35.1994 29.6007 36.0425 30.4439 36.0425 31.4806C36.0425 32.5173 35.1994 33.3604 34.1627 33.3604C33.1259 33.3604 32.2828 32.5173 32.2828 31.4806ZM35.4715 34.5119L34.1627 35.9514L32.8538 34.5119C33.2669 34.377 33.7054 34.3004 34.1627 34.3004C34.6199 34.3004 35.0584 34.377 35.4715 34.5119ZM29.9589 38.0601C30.0313 37.4196 30.249 36.8041 30.5953 36.2605C30.9415 35.7169 31.4073 35.2595 31.9571 34.9231L34.1627 37.349L36.3677 34.9231C36.9176 35.2594 37.3835 35.7168 37.7298 36.2604C38.076 36.8041 38.2937 37.4196 38.366 38.0601H29.9589ZM39.1946 10.6645L38.53 10L35.1026 13.4274L34.4949 12.8198L33.8304 13.4843L35.1026 14.7565L39.1946 10.6645ZM35.1026 18.7916C35.8799 18.7916 36.5125 18.159 36.5125 17.3817C36.5125 16.6044 35.8799 15.9718 35.1026 15.9718C34.3253 15.9718 33.6927 16.6044 33.6927 17.3817C33.6927 18.159 34.3253 18.7916 35.1026 18.7916ZM35.1026 16.9117C35.3615 16.9117 35.5726 17.1228 35.5726 17.3817C35.5726 17.6407 35.3615 17.8517 35.1026 17.8517C34.8436 17.8517 34.6326 17.6407 34.6326 17.3817C34.6326 17.1228 34.8436 16.9117 35.1026 16.9117ZM27.1132 13.152H32.7528V14.092H27.1132V13.152ZM27.1132 16.9117H30.8729V17.8517H27.1132V16.9117ZM31.8129 16.9117H32.7528V17.8517H31.8129V16.9117ZM27.1132 15.0319H32.7528V15.9718H27.1132V15.0319Z" fill="white"/>
</svg>
