<svg width="50" height="50" viewBox="0 0 50 50" fill="none" xmlns="http://www.w3.org/2000/svg">
<rect width="50" height="50" rx="25" fill="#FF0042"/>
<path d="M35.286 11.6441H30.4567V11.321C30.4567 11.1841 30.4023 11.0529 30.3055 10.9561C30.2087 10.8593 30.0775 10.8049 29.9406 10.8049H27.2657C26.835 9.72445 25.7888 9 24.5952 9C23.4016 9 22.3554 9.72445 21.9247 10.805H19.2498C19.113 10.805 18.9817 10.8593 18.8849 10.9561C18.7881 11.0529 18.7337 11.1842 18.7337 11.3211V11.6442H13.9045C12.8544 11.6442 12 12.4986 12 13.5488V39.0954C12 40.1455 12.8543 41 13.9045 41H35.286C36.3361 41 37.1905 40.1456 37.1905 39.0954V13.5487C37.1905 12.4986 36.3361 11.6441 35.286 11.6441ZM19.766 11.8372H22.3008C22.4166 11.8372 22.5291 11.7982 22.6201 11.7266C22.7111 11.6549 22.7754 11.5547 22.8025 11.4421C23.0027 10.612 23.74 10.0323 24.5952 10.0323C25.4505 10.0323 26.1877 10.612 26.3879 11.4421C26.415 11.5547 26.4793 11.6549 26.5703 11.7266C26.6613 11.7982 26.7738 11.8372 26.8896 11.8372H29.4244V14.4148H19.766V11.8372ZM29.9406 15.4471C30.0775 15.4471 30.2088 15.3927 30.3056 15.2959C30.4024 15.1991 30.4568 15.0678 30.4568 14.9309V14.6078H34.2268V38.0362H14.9637V14.6078H18.7338V14.9309C18.7338 15.0678 18.7882 15.1991 18.8849 15.2959C18.9817 15.3927 19.113 15.4471 19.2499 15.4471H29.9406ZM36.1582 39.0953C36.1582 39.5763 35.767 39.9676 35.286 39.9676H13.9045C13.4235 39.9676 13.0323 39.5763 13.0323 39.0953V13.5487C13.0323 13.0677 13.4235 12.6764 13.9045 12.6764H18.7338V13.5756H14.4476C14.3107 13.5756 14.1794 13.63 14.0826 13.7268C13.9859 13.8236 13.9315 13.9548 13.9315 14.0917V38.5523C13.9315 38.6892 13.9859 38.8205 14.0826 38.9173C14.1794 39.0141 14.3107 39.0685 14.4476 39.0685H34.7429C34.8798 39.0685 35.011 39.0141 35.1078 38.9173C35.2046 38.8205 35.259 38.6892 35.259 38.5523V14.0917C35.259 13.9548 35.2046 13.8236 35.1078 13.7268C35.011 13.63 34.8798 13.5756 34.7429 13.5756H30.4567V12.6764H35.286C35.7669 12.6764 36.1582 13.0677 36.1582 13.5487V39.0953ZM25.2196 11.451C25.2196 11.7949 24.9392 12.0753 24.5952 12.0753C24.2514 12.0753 23.9709 11.7949 23.9709 11.451C23.9709 11.1072 24.2514 10.8267 24.5952 10.8267C24.9392 10.8267 25.2196 11.1072 25.2196 11.451ZM21.6551 28.5819C21.7006 28.6321 21.7358 28.6908 21.7587 28.7546C21.7816 28.8184 21.7917 28.8861 21.7884 28.9538C21.7851 29.0215 21.7685 29.0879 21.7396 29.1491C21.7106 29.2104 21.6699 29.2654 21.6197 29.311L18.8587 31.8167C18.7638 31.903 18.6402 31.9508 18.5119 31.9506C18.3795 31.9506 18.2474 31.9 18.1469 31.7994L17.0101 30.6626C16.9151 30.5654 16.8623 30.4347 16.863 30.2988C16.8638 30.1629 16.9181 30.0328 17.0142 29.9368C17.1103 29.8407 17.2404 29.7864 17.3763 29.7856C17.5122 29.7849 17.6429 29.8377 17.74 29.9328L18.5291 30.7218L20.926 28.5466C21.0273 28.4546 21.1611 28.4067 21.2978 28.4133C21.4346 28.4199 21.563 28.4806 21.6551 28.5819ZM21.6551 33.327C21.7006 33.3772 21.7358 33.4358 21.7587 33.4997C21.7816 33.5635 21.7917 33.6311 21.7884 33.6988C21.7851 33.7665 21.7685 33.8329 21.7396 33.8942C21.7106 33.9555 21.6699 34.0105 21.6197 34.056L18.8587 36.5617C18.7638 36.648 18.6402 36.6958 18.5119 36.6956C18.4441 36.6957 18.377 36.6824 18.3143 36.6565C18.2517 36.6305 18.1948 36.5925 18.1469 36.5445L17.0101 35.4077C16.9133 35.3109 16.8589 35.1796 16.8589 35.0427C16.8589 34.9058 16.9133 34.7746 17.0101 34.6778C17.1069 34.581 17.2382 34.5266 17.3751 34.5266C17.512 34.5266 17.6432 34.581 17.74 34.6778L18.5291 35.4669L20.926 33.2916C20.9762 33.2461 21.0348 33.2109 21.0986 33.188C21.1624 33.1651 21.2301 33.155 21.2978 33.1583C21.3655 33.1616 21.4319 33.1782 21.4932 33.2071C21.5545 33.2361 21.6095 33.2768 21.6551 33.327ZM23.7524 28.4127H31.6502C31.7871 28.4127 31.9183 28.4671 32.0151 28.5639C32.1119 28.6607 32.1663 28.7919 32.1663 28.9288C32.1663 29.0657 32.1119 29.197 32.0151 29.2938C31.9183 29.3906 31.7871 29.4449 31.6502 29.4449H23.7524C23.6155 29.4449 23.4842 29.3906 23.3874 29.2938C23.2907 29.197 23.2363 29.0657 23.2363 28.9288C23.2363 28.7919 23.2907 28.6607 23.3874 28.5639C23.4842 28.4671 23.6155 28.4127 23.7524 28.4127ZM32.1663 31.4344C32.1663 31.5713 32.1119 31.7026 32.0151 31.7994C31.9183 31.8962 31.7871 31.9506 31.6502 31.9506H23.7524C23.6155 31.9506 23.4842 31.8962 23.3874 31.7994C23.2907 31.7026 23.2363 31.5713 23.2363 31.4344C23.2363 31.2975 23.2907 31.1663 23.3874 31.0695C23.4842 30.9727 23.6155 30.9183 23.7524 30.9183H31.6502C31.7871 30.9183 31.9183 30.9727 32.0151 31.0695C32.1119 31.1663 32.1663 31.2975 32.1663 31.4344ZM32.1663 33.6739C32.1663 33.8108 32.1119 33.9421 32.0151 34.0389C31.9183 34.1356 31.7871 34.19 31.6502 34.19H23.7524C23.6155 34.19 23.4842 34.1356 23.3874 34.0389C23.2907 33.9421 23.2363 33.8108 23.2363 33.6739C23.2363 33.537 23.2907 33.4057 23.3874 33.3089C23.4842 33.2121 23.6155 33.1578 23.7524 33.1578H31.6502C31.7871 33.1578 31.9183 33.2121 32.0151 33.3089C32.1119 33.4057 32.1663 33.537 32.1663 33.6739ZM32.1663 36.1795C32.1663 36.3164 32.1119 36.4477 32.0151 36.5445C31.9183 36.6413 31.7871 36.6956 31.6502 36.6956H23.7524C23.6155 36.6956 23.4842 36.6413 23.3874 36.5445C23.2907 36.4477 23.2363 36.3164 23.2363 36.1795C23.2363 36.0426 23.2907 35.9113 23.3874 35.8145C23.4842 35.7178 23.6155 35.6634 23.7524 35.6634H31.6502C31.7871 35.6634 31.9183 35.7178 32.0151 35.8145C32.1119 35.9113 32.1663 36.0426 32.1663 36.1795ZM24.5952 24.9441C26.3085 24.9441 27.7022 23.5503 27.7022 21.8371C27.7022 20.124 26.3085 18.73 24.5952 18.73C22.882 18.73 21.4883 20.1238 21.4883 21.837C21.4883 23.5503 22.882 24.9441 24.5952 24.9441ZM24.5952 19.7623C25.7392 19.7623 26.6699 20.693 26.6699 21.837C26.6699 22.981 25.7392 23.9118 24.5952 23.9118C23.4512 23.9118 22.5205 22.9811 22.5205 21.8371C22.5205 20.6931 23.4512 19.7623 24.5952 19.7623ZM18.9212 20.6126C18.8239 20.6501 18.7402 20.7161 18.6811 20.8021C18.6221 20.8881 18.5905 20.99 18.5905 21.0943V22.5799C18.5905 22.6842 18.6221 22.786 18.6811 22.872C18.7402 22.958 18.8239 23.0241 18.9212 23.0616L19.5851 23.3171C19.6891 23.6696 19.8302 24.0101 20.0062 24.3328L19.7172 24.9834C19.6749 25.0787 19.6624 25.1847 19.6814 25.2872C19.7005 25.3897 19.7502 25.4841 19.8239 25.5579L20.8744 26.6083C20.9481 26.682 21.0425 26.7317 21.145 26.7507C21.2476 26.7698 21.3535 26.7573 21.4488 26.715L22.0997 26.426C22.4223 26.6018 22.7627 26.7429 23.1151 26.8469L23.3707 27.511C23.4081 27.6084 23.4742 27.6921 23.5602 27.7511C23.6462 27.8102 23.748 27.8418 23.8523 27.8418H25.3379C25.4422 27.8418 25.5441 27.8102 25.6301 27.7512C25.7161 27.6921 25.7822 27.6084 25.8196 27.5111L26.0752 26.8472C26.4277 26.7432 26.7682 26.602 27.0909 26.4261L27.7414 26.715C27.8367 26.7574 27.9427 26.7699 28.0453 26.7508C28.1478 26.7318 28.2422 26.682 28.3159 26.6082L29.3664 25.5577C29.4401 25.484 29.4898 25.3896 29.5088 25.2871C29.5279 25.1846 29.5154 25.0787 29.4731 24.9834L29.1841 24.3325C29.3599 24.0099 29.501 23.6695 29.605 23.3172L30.2692 23.0615C30.3665 23.024 30.4502 22.9579 30.5092 22.872C30.5683 22.786 30.5999 22.6841 30.5999 22.5798V21.0943C30.5999 20.99 30.5683 20.8881 30.5092 20.8021C30.4502 20.7161 30.3665 20.6501 30.2692 20.6126L29.6052 20.357C29.5012 20.0045 29.3601 19.664 29.1842 19.3413L29.4732 18.6907C29.5155 18.5954 29.528 18.4895 29.5089 18.387C29.4899 18.2844 29.4402 18.19 29.3664 18.1163L28.316 17.0658C28.2422 16.9921 28.1479 16.9425 28.0453 16.9234C27.9428 16.9044 27.8369 16.9168 27.7415 16.9591L27.0906 17.2482C26.768 17.0723 26.4277 16.9312 26.0753 16.8272L25.8197 16.1631C25.7822 16.0658 25.7162 15.9821 25.6302 15.923C25.5442 15.864 25.4423 15.8324 25.338 15.8324H23.8524C23.7481 15.8324 23.6462 15.864 23.5603 15.923C23.4743 15.982 23.4082 16.0657 23.3707 16.1631L23.1151 16.8272C22.7627 16.9312 22.4223 17.0723 22.0998 17.2482L21.4489 16.9591C21.3536 16.9168 21.2476 16.9043 21.1451 16.9233C21.0425 16.9424 20.9482 16.9921 20.8744 17.0658L19.824 18.1163C19.7502 18.19 19.7006 18.2844 19.6815 18.387C19.6625 18.4895 19.6749 18.5954 19.7173 18.6907L20.0062 19.3415C19.8304 19.6641 19.6892 20.0045 19.5853 20.357L18.9212 20.6126ZM19.6227 21.4487L20.2015 21.2259C20.2797 21.1958 20.3495 21.1471 20.4046 21.084C20.4598 21.0209 20.4988 20.9453 20.5182 20.8638C20.6208 20.4325 20.7916 20.0204 21.0243 19.6431C21.0682 19.5717 21.0941 19.4906 21.0997 19.407C21.1053 19.3234 21.0905 19.2396 21.0565 19.163L20.8045 18.5956L21.3538 18.0463L21.9213 18.2983C21.998 18.3323 22.0817 18.3472 22.1654 18.3416C22.249 18.3359 22.33 18.31 22.4014 18.2661C22.7787 18.0335 23.1907 17.8627 23.6219 17.76C23.7034 17.7406 23.779 17.7017 23.8421 17.6465C23.9052 17.5913 23.9539 17.5216 23.984 17.4434L24.2069 16.8645H24.9837L25.2065 17.4433C25.2365 17.5216 25.2852 17.5913 25.3483 17.6465C25.4114 17.7017 25.487 17.7406 25.5686 17.76C25.9998 17.8627 26.4119 18.0335 26.7892 18.2662C26.8606 18.3101 26.9416 18.336 27.0252 18.3416C27.1089 18.3472 27.1926 18.3323 27.2692 18.2983L27.8367 18.0463L28.386 18.5956L28.1341 19.1628C28.1001 19.2394 28.0853 19.3232 28.0909 19.4068C28.0965 19.4905 28.1224 19.5715 28.1664 19.6429C28.399 20.0203 28.5699 20.4325 28.6725 20.8638C28.6919 20.9453 28.7309 21.0209 28.786 21.084C28.8412 21.1471 28.9109 21.1958 28.9892 21.2259L29.5678 21.4486V22.2254L28.989 22.4483C28.9107 22.4784 28.841 22.5271 28.7859 22.5902C28.7307 22.6533 28.6917 22.7289 28.6723 22.8104C28.5697 23.2416 28.3988 23.6536 28.1662 24.0309C28.1223 24.1023 28.0964 24.1833 28.0908 24.267C28.0851 24.3506 28.1 24.4344 28.134 24.511L28.386 25.0785L27.8367 25.6278L27.2696 25.3759C27.193 25.3418 27.1092 25.327 27.0255 25.3326C26.9419 25.3382 26.8608 25.3642 26.7894 25.4081C26.412 25.6408 25.9999 25.8117 25.5685 25.9143C25.487 25.9337 25.4114 25.9727 25.3483 26.0279C25.2852 26.083 25.2365 26.1527 25.2064 26.231L24.9837 26.8096H24.2069L23.9841 26.2308C23.954 26.1525 23.9053 26.0828 23.8422 26.0276C23.779 25.9724 23.7034 25.9334 23.6219 25.914C23.1907 25.8114 22.7787 25.6406 22.4014 25.408C22.33 25.364 22.249 25.3381 22.1653 25.3325C22.0817 25.3269 21.9979 25.3418 21.9213 25.3758L21.3538 25.6278L20.8045 25.0785L21.0564 24.5113C21.0904 24.4347 21.1053 24.3509 21.0997 24.2672C21.094 24.1836 21.0681 24.1026 21.0242 24.0312C20.7915 23.6538 20.6206 23.2416 20.518 22.8103C20.4986 22.7288 20.4597 22.6532 20.4045 22.5901C20.3493 22.527 20.2796 22.4783 20.2014 22.4482L19.6227 22.2255V21.4487Z" fill="white"/>
</svg>
