<svg width="55" height="80" viewBox="0 0 55 80" fill="none" xmlns="http://www.w3.org/2000/svg">
<g clip-path="url(#clip0_697_824)">
<path d="M32.5902 65.49H11.3002C10.9602 65.49 10.6702 65.22 10.6502 64.88C10.1002 55.28 7.36023 51.17 4.70023 47.21C2.28023 43.58 -0.00976562 40.16 -0.00976562 33.04C0.000234375 21.48 9.03023 11.86 20.5602 11.12C20.8002 11.1 21.0302 11.22 21.1502 11.43C21.1802 11.47 21.2002 11.52 21.2102 11.57L24.0902 13.23C24.3502 13.38 24.4802 13.7 24.3902 13.99C23.9902 15.29 23.7802 16.63 23.7802 17.98C23.7802 19.33 23.9802 20.69 24.3902 21.97C24.4802 22.26 24.3602 22.58 24.1002 22.73L21.4002 24.29L23.7502 28.35L26.4602 26.79C26.7202 26.64 27.0602 26.69 27.2602 26.92C29.1002 28.94 31.4802 30.32 34.1502 30.91C34.4502 30.98 34.6602 31.24 34.6602 31.54V34.66H39.3402V31.54C39.3402 31.24 39.5502 30.97 39.8502 30.91C40.8702 30.68 41.8702 30.33 42.8002 29.88C42.9902 29.79 43.2102 29.79 43.4002 29.89C43.5902 29.99 43.7102 30.18 43.7302 30.38C43.8402 31.32 43.9002 32.19 43.9002 33.05C43.9002 40.17 41.6102 43.59 39.1902 47.22C36.5402 51.19 33.8002 55.29 33.2402 64.89C33.2202 65.23 32.9402 65.5 32.5902 65.5V65.49ZM11.9102 64.19H31.9802C32.6402 54.66 35.5402 50.32 38.1002 46.48C40.5102 42.87 42.5902 39.76 42.5902 33.03C42.5902 32.5 42.5702 31.96 42.5202 31.4C41.9102 31.65 41.2802 31.86 40.6402 32.03V35.29C40.6402 35.65 40.3502 35.94 39.9902 35.94H34.0102C33.6502 35.94 33.3602 35.65 33.3602 35.29V32.03C30.8002 31.37 28.5102 30.04 26.6602 28.15L23.8302 29.78C23.5202 29.96 23.1202 29.85 22.9402 29.54L19.9402 24.35C19.8502 24.2 19.8302 24.02 19.8702 23.86C19.9102 23.69 20.0202 23.55 20.1702 23.47L22.9902 21.84C22.6402 20.59 22.4702 19.28 22.4702 17.96C22.4702 16.64 22.6402 15.35 22.9902 14.08L20.1702 12.46C20.1702 12.46 20.1502 12.45 20.1302 12.44C9.54023 13.38 1.30023 22.33 1.30023 33.03C1.30023 39.75 3.38023 42.87 5.79023 46.48C8.35023 50.32 11.2502 54.66 11.9102 64.19Z" fill="black"/>
<path d="M30.6698 72.61H13.2298C12.4198 72.61 11.7598 71.95 11.7598 71.14V69.21C11.7598 68.4 12.4198 67.74 13.2298 67.74H30.6698C31.4798 67.74 32.1398 68.4 32.1398 69.21V71.14C32.1398 71.95 31.4798 72.61 30.6698 72.61ZM13.2298 69.05C13.1298 69.05 13.0598 69.12 13.0598 69.22V71.15C13.0598 71.23 13.1298 71.32 13.2298 71.32H30.6698C30.7598 71.32 30.8398 71.24 30.8398 71.15V69.22C30.8398 69.13 30.7598 69.05 30.6698 69.05H13.2298Z" fill="black"/>
<path d="M21.9399 79.19C18.2199 79.19 15.1899 76.16 15.1899 72.43C15.1899 72.28 15.1899 72.14 15.1999 72C15.2199 71.66 15.5099 71.31 15.8499 71.31H28.0299C28.3799 71.31 28.6599 71.58 28.6799 71.93C28.6899 72.14 28.6999 72.28 28.6999 72.43C28.6999 76.16 25.6599 79.19 21.9399 79.19ZM16.4899 72.61C16.5899 75.53 18.9899 77.88 21.9399 77.88C24.8899 77.88 27.2999 75.53 27.3999 72.61H16.4899Z" fill="black"/>
<path d="M25.7401 65.6C25.7401 65.6 25.7301 65.6 25.7201 65.6C25.3601 65.59 25.0801 65.29 25.0901 64.93L25.4301 55.18L15.3401 46.51C15.0701 46.28 15.0401 45.87 15.2701 45.59C15.5001 45.32 15.9101 45.29 16.1901 45.52L26.5201 54.39C26.6701 54.52 26.7501 54.71 26.7501 54.91L26.3901 64.97C26.3801 65.32 26.0901 65.6 25.7401 65.6Z" fill="#FF0042"/>
<path d="M29.9401 65.18C29.5801 65.18 29.2901 64.88 29.3001 64.52L29.4201 51.37C29.4201 51.01 29.6701 50.71 30.0801 50.73C30.4401 50.73 30.7301 51.03 30.7201 51.39L30.6001 64.54C30.6001 64.9 30.3101 65.18 29.9501 65.18H29.9401Z" fill="#FF0042"/>
<path d="M20.8102 65.49C20.4502 65.49 20.1602 65.2 20.1602 64.84V39.03C20.1602 38.67 20.4502 38.38 20.8102 38.38C21.1702 38.38 21.4602 38.67 21.4602 39.03V64.84C21.4602 65.2 21.1702 65.49 20.8102 65.49Z" fill="#FF0042"/>
<path d="M14.3502 65.18C13.9902 65.18 13.7002 64.89 13.7002 64.53V55.75C13.7002 55.39 13.9902 55.1 14.3502 55.1C14.7102 55.1 15.0002 55.39 15.0002 55.75V64.53C15.0002 64.89 14.7102 65.18 14.3502 65.18Z" fill="#FF0042"/>
<path d="M39.9902 35.94H34.0102C33.6502 35.94 33.3602 35.65 33.3602 35.29V32.03C30.8002 31.37 28.5102 30.04 26.6602 28.15L23.8302 29.78C23.5202 29.96 23.1202 29.85 22.9402 29.54L19.9402 24.35C19.8502 24.2 19.8302 24.02 19.8702 23.86C19.9102 23.69 20.0202 23.55 20.1702 23.47L22.9902 21.84C22.6402 20.59 22.4702 19.28 22.4702 17.96C22.4702 16.64 22.6402 15.35 22.9902 14.08L20.1702 12.46C20.0202 12.37 19.9102 12.23 19.8702 12.07C19.8302 11.9 19.8502 11.73 19.9402 11.58L22.9402 6.38C23.1202 6.07 23.5202 5.96 23.8302 6.14L26.6602 7.77C28.5202 5.88 30.8202 4.55 33.3602 3.9V0.65C33.3602 0.29 33.6502 0 34.0102 0H39.9902C40.3502 0 40.6402 0.29 40.6402 0.65V3.91C43.1802 4.56 45.4802 5.89 47.3502 7.78L50.1702 6.15C50.3202 6.06 50.5002 6.04 50.6602 6.08C50.8302 6.12 50.9702 6.23 51.0602 6.38L54.0602 11.58C54.1502 11.73 54.1702 11.91 54.1202 12.07C54.0802 12.24 53.9702 12.38 53.8202 12.46L51.0002 14.08C51.3402 15.34 51.5202 16.64 51.5202 17.96C51.5202 19.28 51.3502 20.58 51.0002 21.84L53.8202 23.47C54.1302 23.65 54.2402 24.05 54.0602 24.36L51.0602 29.55C50.9702 29.7 50.8302 29.81 50.6702 29.85C50.5002 29.89 50.3302 29.87 50.1802 29.78L47.3602 28.15C45.5102 30.03 43.2002 31.36 40.6502 32.03V35.29C40.6502 35.65 40.3602 35.94 40.0002 35.94H39.9902ZM34.6602 34.64H39.3402V31.52C39.3402 31.22 39.5502 30.95 39.8502 30.89C42.5202 30.3 44.9002 28.92 46.7502 26.9C46.9602 26.68 47.2902 26.63 47.5502 26.78L50.2502 28.34L52.6002 24.28L49.9002 22.72C49.6402 22.57 49.5102 22.25 49.6102 21.96C50.0102 20.68 50.2202 19.34 50.2202 17.97C50.2202 16.6 50.0202 15.27 49.6102 13.98C49.5202 13.69 49.6402 13.37 49.9102 13.22L52.6002 11.67L50.2502 7.6L47.5502 9.16C47.2902 9.31 46.9502 9.26 46.7502 9.04C44.8802 7.01 42.5002 5.64 39.8502 5.06C39.5502 5 39.3402 4.73 39.3402 4.43V1.3H34.6602V4.43C34.6602 4.74 34.4502 5 34.1502 5.06C31.5002 5.64 29.1202 7.01 27.2602 9.04C27.0502 9.26 26.7202 9.32 26.4602 9.16L23.7502 7.6L21.4002 11.67L24.1002 13.22C24.3602 13.37 24.4902 13.69 24.4002 13.98C24.0002 15.28 23.7902 16.62 23.7902 17.97C23.7902 19.32 23.9902 20.68 24.4002 21.96C24.4902 22.25 24.3702 22.57 24.1102 22.72L21.4102 24.28L23.7602 28.34L26.4702 26.78C26.7302 26.63 27.0702 26.68 27.2702 26.91C29.1102 28.93 31.4902 30.31 34.1602 30.9C34.4602 30.97 34.6702 31.23 34.6702 31.53V34.65L34.6602 34.64Z" fill="#FF0042"/>
<path d="M37.0002 27.49C31.7602 27.49 27.4902 23.22 27.4902 17.97C27.4902 12.72 31.7602 8.46 37.0002 8.46C42.2402 8.46 46.5202 12.73 46.5202 17.97C46.5202 23.21 42.2502 27.49 37.0002 27.49ZM37.0002 9.76C32.4702 9.76 28.7902 13.44 28.7902 17.97C28.7902 22.5 32.4702 26.18 37.0002 26.18C41.5302 26.18 45.2202 22.5 45.2202 17.97C45.2202 13.44 41.5302 9.76 37.0002 9.76Z" fill="#FF0042"/>
<path d="M37 23.51C33.95 23.51 31.46 21.02 31.46 17.97C31.46 14.92 33.95 12.43 37 12.43C40.05 12.43 42.55 14.92 42.55 17.97C42.55 21.02 40.06 23.51 37 23.51ZM37 13.73C34.66 13.73 32.76 15.63 32.76 17.97C32.76 20.31 34.66 22.21 37 22.21C39.34 22.21 41.25 20.31 41.25 17.97C41.25 15.63 39.34 13.73 37 13.73Z" fill="#FF0042"/>
<path d="M30.0599 52.03C28.2899 52.03 26.8599 50.59 26.8599 48.83C26.8599 47.07 28.2999 45.64 30.0599 45.64C31.8199 45.64 33.2599 47.07 33.2599 48.83C33.2599 50.59 31.8199 52.03 30.0599 52.03ZM30.0599 46.93C29.0099 46.93 28.1599 47.78 28.1599 48.82C28.1599 49.86 29.0099 50.72 30.0599 50.72C31.1099 50.72 31.9599 49.87 31.9599 48.82C31.9599 47.77 31.1099 46.93 30.0599 46.93Z" fill="#FF0042"/>
<path d="M20.8099 39.68C19.0399 39.68 17.6099 38.24 17.6099 36.48C17.6099 34.72 19.0499 33.29 20.8099 33.29C22.5699 33.29 23.9999 34.72 23.9999 36.48C23.9999 38.24 22.5699 39.68 20.8099 39.68ZM20.8099 34.59C19.7599 34.59 18.9099 35.44 18.9099 36.48C18.9099 37.52 19.7599 38.38 20.8099 38.38C21.8599 38.38 22.6999 37.53 22.6999 36.48C22.6999 35.43 21.8499 34.59 20.8099 34.59Z" fill="#FF0042"/>
<path d="M13.7601 47.64C11.9901 47.64 10.5601 46.2 10.5601 44.44C10.5601 42.68 12.0001 41.24 13.7601 41.24C15.5201 41.24 16.9601 42.68 16.9601 44.44C16.9601 46.2 15.5201 47.64 13.7601 47.64ZM13.7601 42.54C12.7101 42.54 11.8601 43.39 11.8601 44.44C11.8601 45.49 12.7101 46.34 13.7601 46.34C14.8101 46.34 15.6601 45.49 15.6601 44.44C15.6601 43.39 14.8101 42.54 13.7601 42.54Z" fill="#FF0042"/>
<path d="M14.4302 56.22C12.6702 56.22 11.2402 54.78 11.2402 53.02C11.2402 51.26 12.6702 49.83 14.4302 49.83C16.1902 49.83 17.6302 51.26 17.6302 53.02C17.6302 54.78 16.1902 56.22 14.4302 56.22ZM14.4302 51.13C13.3902 51.13 12.5402 51.98 12.5402 53.02C12.5402 54.06 13.3902 54.92 14.4302 54.92C15.4702 54.92 16.3302 54.07 16.3302 53.02C16.3302 51.97 15.4802 51.13 14.4302 51.13Z" fill="#FF0042"/>
<path d="M32.1201 69.05H11.7801C10.9701 69.05 10.3101 68.39 10.3101 67.59V65.66C10.3101 64.85 10.9701 64.2 11.7801 64.2H32.1201C32.9301 64.2 33.5801 64.86 33.5801 65.66V67.59C33.5801 68.4 32.9201 69.05 32.1201 69.05ZM11.7801 65.49C11.6901 65.49 11.6101 65.57 11.6101 65.65V67.58C11.6101 67.67 11.6901 67.74 11.7801 67.74H32.1201C32.2101 67.74 32.2801 67.67 32.2801 67.58V65.65C32.2801 65.56 32.2101 65.49 32.1201 65.49H11.7801Z" fill="black"/>
</g>
<defs>
<clipPath id="clip0_697_824">
<rect width="54.14" height="79.19" fill="white"/>
</clipPath>
</defs>
</svg>
