<svg width="80" height="64" viewBox="0 0 80 64" fill="none" xmlns="http://www.w3.org/2000/svg">
<g clip-path="url(#clip0_696_710)">
<path d="M39.5798 54.17C27.1798 54.17 17.0898 44.08 17.0898 31.68C17.0898 19.28 27.1798 9.18 39.5798 9.18C51.9798 9.18 62.0598 19.27 62.0598 31.68C62.0598 44.09 51.9798 54.17 39.5798 54.17ZM39.5798 10.48C27.8998 10.48 18.3898 19.99 18.3898 31.68C18.3898 43.37 27.8898 52.87 39.5798 52.87C51.2698 52.87 60.7598 43.37 60.7598 31.68C60.7598 19.99 51.2598 10.48 39.5798 10.48Z" fill="black"/>
<path d="M39.58 49.77C29.6 49.77 21.48 41.65 21.48 31.68C21.48 21.71 29.6 13.58 39.58 13.58C49.56 13.58 57.66 21.7 57.66 31.68C57.66 41.66 49.55 49.77 39.58 49.77ZM39.58 14.87C30.32 14.87 22.79 22.41 22.79 31.67C22.79 40.93 30.32 48.46 39.58 48.46C48.84 48.46 56.36 40.93 56.36 31.67C56.36 22.41 48.83 14.87 39.58 14.87Z" fill="#FF0042"/>
<path d="M39.5802 45.59C39.2202 45.59 38.9302 45.3 38.9302 44.94V18.49C38.9302 18.13 39.2202 17.84 39.5802 17.84C40.0002 17.84 40.4402 17.82 40.8602 17.8C41.3002 17.78 41.7402 17.76 42.1702 17.76C43.6502 17.76 45.3202 17.96 46.4602 19.44C47.0102 20.16 47.7202 20.71 48.4102 21.25C49.4002 22.02 50.4302 22.81 50.8902 24.07C51.0602 24.54 51.3002 25.03 51.5502 25.55C52.3102 27.11 53.1702 28.87 52.4402 30.9C51.9902 32.15 51.9002 33.49 51.8102 34.77C51.6602 36.84 51.5202 38.8 49.9702 40.24C49.5202 40.66 49.1002 41.14 48.6502 41.65C47.3402 43.15 45.8502 44.84 43.4202 44.92C42.9602 44.94 42.4602 45.06 41.9302 45.2C41.2402 45.38 40.4602 45.58 39.5702 45.58L39.5802 45.59ZM40.2302 19.13V44.25C40.7102 44.19 41.1702 44.07 41.6102 43.96C42.1802 43.81 42.7802 43.66 43.3802 43.64C45.2502 43.58 46.4302 42.23 47.6702 40.81C48.1202 40.3 48.5802 39.77 49.0802 39.3C50.2502 38.21 50.3702 36.58 50.5002 34.69C50.6002 33.31 50.7002 31.89 51.2102 30.47C51.7502 28.96 51.0802 27.59 50.3802 26.13C50.1202 25.6 49.8602 25.06 49.6702 24.52C49.3402 23.61 48.5402 23 47.6202 22.29C46.9002 21.73 46.0802 21.1 45.4302 20.24C44.6802 19.27 43.5902 19.07 42.1802 19.07C41.7702 19.07 41.3402 19.09 40.9202 19.11C40.6902 19.11 40.4602 19.13 40.2302 19.14V19.13Z" fill="#FF0042"/>
<path d="M44.5999 24.77C44.5499 24.77 44.4899 24.77 44.4399 24.75C44.0899 24.66 43.8799 24.31 43.9699 23.96C44.0299 23.71 43.8499 23 43.6499 22.52C43.5099 22.19 43.6699 21.81 43.9999 21.67C44.3299 21.53 44.7099 21.69 44.8499 22.02C44.9499 22.26 45.4399 23.49 45.2299 24.29C45.1499 24.58 44.8899 24.78 44.5999 24.78V24.77Z" fill="#FF0042"/>
<path d="M41.9701 28.9C41.6801 28.9 41.4201 28.71 41.3401 28.41C41.1101 27.51 41.7401 26.11 41.7401 26.1C41.8901 25.77 42.2801 25.64 42.6101 25.79C42.9401 25.94 43.0701 26.33 42.9201 26.66C42.7801 26.95 42.5201 27.79 42.6001 28.09C42.6901 28.44 42.4801 28.79 42.1301 28.88C42.0801 28.89 42.0201 28.9 41.9701 28.9Z" fill="#FF0042"/>
<path d="M46.0998 32.08C46.0498 32.08 45.9998 32.08 45.9398 32.06C45.5898 31.97 45.3798 31.62 45.4598 31.27C45.5298 30.97 45.2898 30.17 45.1498 29.85C44.9998 29.52 45.1498 29.14 45.4698 28.99C45.7898 28.84 46.1798 28.99 46.3298 29.31C46.3298 29.32 46.9498 30.69 46.7298 31.59C46.6598 31.89 46.3898 32.09 46.0998 32.09V32.08Z" fill="#FF0042"/>
<path d="M43.6199 35.86C43.3299 35.86 43.0599 35.66 42.9899 35.36C42.7799 34.49 43.3699 33.16 43.3899 33.1C43.5399 32.77 43.9199 32.63 44.2499 32.77C44.5799 32.92 44.7299 33.3 44.5799 33.63C44.4099 34.02 44.1899 34.79 44.2499 35.06C44.3299 35.41 44.1199 35.76 43.7699 35.84C43.7199 35.85 43.6699 35.86 43.6199 35.86Z" fill="#FF0042"/>
<path d="M44.1902 38.59C43.8602 38.59 43.5802 38.34 43.5402 38.01C43.5002 37.65 43.7602 37.33 44.1202 37.29C44.3602 37.26 44.9202 36.92 45.3602 36.51C45.6302 36.27 46.0402 36.29 46.2802 36.56C46.5202 36.83 46.5002 37.24 46.2302 37.48C45.9702 37.72 45.0402 38.5 44.2602 38.58C44.2402 38.58 44.2102 38.58 44.1902 38.58V38.59Z" fill="#FF0042"/>
<path d="M48.7198 33.19C48.5298 33.19 48.3398 33.11 48.2098 32.95C47.9798 32.67 48.0298 32.26 48.3098 32.04C48.4898 31.89 48.7798 31.31 48.9598 30.73C49.0698 30.39 49.4198 30.2 49.7698 30.3C50.1098 30.4 50.3098 30.77 50.1998 31.11C50.0698 31.54 49.6998 32.59 49.1198 33.06C48.9998 33.16 48.8598 33.2 48.7098 33.2L48.7198 33.19Z" fill="#FF0042"/>
<path d="M43.5701 42.5C43.2401 42.5 42.9601 42.25 42.9201 41.92C42.8801 41.56 43.1401 41.24 43.5001 41.21C43.8101 41.18 44.5401 40.63 44.7601 40.41C45.0101 40.16 45.4301 40.16 45.6801 40.41C45.9301 40.66 45.9301 41.08 45.6801 41.33C45.6701 41.34 44.5501 42.41 43.6401 42.5C43.6201 42.5 43.6001 42.5 43.5701 42.5Z" fill="#FF0042"/>
<path d="M39.5798 45.59C38.6898 45.59 37.9098 45.39 37.2198 45.21C36.6898 45.07 36.1898 44.95 35.7298 44.93C33.2998 44.85 31.8198 43.16 30.5098 41.67C30.0598 41.15 29.6298 40.67 29.1798 40.25C27.6298 38.82 27.4898 36.86 27.3498 34.8C27.2598 33.51 27.1698 32.17 26.7098 30.91C25.9798 28.89 26.8398 27.12 27.6098 25.57C27.8598 25.05 28.0998 24.56 28.2698 24.09C28.7298 22.82 29.7498 22.03 30.7398 21.26C31.4298 20.73 32.1398 20.18 32.6798 19.46C33.8198 17.97 35.4898 17.77 36.9798 17.77C37.4098 17.77 37.8498 17.79 38.2998 17.81C38.7298 17.83 39.1598 17.85 39.5798 17.85C39.9398 17.85 40.2298 18.14 40.2298 18.5V44.95C40.2298 45.31 39.9398 45.6 39.5798 45.6V45.59ZM36.9798 19.06C35.2998 19.06 34.3598 19.4 33.7198 20.23C33.0698 21.08 32.2598 21.72 31.5398 22.27C30.6198 22.98 29.8298 23.6 29.4998 24.51C29.3098 25.05 29.0398 25.59 28.7798 26.12C28.0698 27.57 27.3998 28.95 27.9398 30.45C28.4598 31.88 28.5598 33.31 28.6498 34.69C28.7798 36.57 28.8998 38.2 30.0698 39.28C30.5698 39.75 31.0398 40.28 31.4998 40.8C32.7398 42.22 33.9198 43.56 35.7798 43.62C36.3898 43.64 36.9798 43.79 37.5498 43.94C37.9998 44.06 38.4598 44.17 38.9398 44.23V19.11C38.7098 19.11 38.4798 19.09 38.2498 19.08C37.8298 19.06 37.3998 19.04 36.9898 19.04L36.9798 19.06Z" fill="#FF0042"/>
<path d="M34.5499 24.77C34.2599 24.77 33.9999 24.57 33.9199 24.28C33.6999 23.4 34.3099 22.01 34.3199 22C34.4699 21.67 34.8499 21.53 35.1799 21.67C35.5099 21.82 35.6499 22.2 35.5099 22.53C35.3299 22.92 35.1199 23.7 35.1799 23.96C35.2699 24.31 35.0599 24.66 34.7099 24.75C34.6599 24.76 34.5999 24.77 34.5499 24.77Z" fill="#FF0042"/>
<path d="M36.9599 28.88C36.9099 28.88 36.8599 28.88 36.8099 28.86C36.4599 28.78 36.2499 28.42 36.3299 28.07C36.3999 27.79 36.1699 27 35.9899 26.61C35.8399 26.28 35.9899 25.9 36.3199 25.75C36.6499 25.61 37.0299 25.75 37.1799 26.08C37.2099 26.14 37.8099 27.5 37.5899 28.38C37.5199 28.68 37.2499 28.88 36.9599 28.88Z" fill="#FF0042"/>
<path d="M33.1699 31.43C32.8799 31.43 32.6199 31.23 32.5399 30.94C32.3099 30.04 32.9299 28.67 32.9299 28.66C33.0799 28.33 33.4699 28.19 33.7899 28.34C34.1199 28.49 34.2599 28.88 34.1099 29.2C33.9599 29.52 33.7199 30.33 33.7999 30.62C33.8899 30.97 33.6799 31.32 33.3299 31.41C33.2799 31.42 33.2199 31.43 33.1699 31.43Z" fill="#FF0042"/>
<path d="M35.5299 35.86C35.4799 35.86 35.4199 35.86 35.3699 35.84C35.0199 35.75 34.8099 35.4 34.8999 35.05C34.9699 34.78 34.7499 34.02 34.5799 33.63C34.4399 33.3 34.5799 32.92 34.9099 32.77C35.2399 32.63 35.6199 32.77 35.7699 33.1C35.7899 33.16 36.3799 34.5 36.1599 35.37C36.0799 35.66 35.8199 35.86 35.5299 35.86Z" fill="#FF0042"/>
<path d="M34.9499 38.59C34.9499 38.59 34.8999 38.59 34.8799 38.59C33.9899 38.49 32.9199 37.48 32.9099 37.47C32.6499 37.22 32.6399 36.81 32.8899 36.55C33.1399 36.29 33.5499 36.28 33.8099 36.53C34.1099 36.82 34.7599 37.27 35.0299 37.29C35.3899 37.33 35.6399 37.65 35.6099 38.01C35.5699 38.34 35.2899 38.59 34.9599 38.59H34.9499Z" fill="#FF0042"/>
<path d="M31.1402 33.43C31.0002 33.43 30.8602 33.38 30.7402 33.29C30.0502 32.75 29.6702 31.39 29.6602 31.33C29.5702 30.98 29.7702 30.63 30.1202 30.53C30.4702 30.44 30.8202 30.64 30.9202 30.99C31.0502 31.45 31.3502 32.11 31.5602 32.27C31.8402 32.49 31.8902 32.9 31.6702 33.18C31.5402 33.34 31.3502 33.43 31.1602 33.43H31.1402Z" fill="#FF0042"/>
<path d="M35.5802 42.5C35.5802 42.5 35.5402 42.5 35.5102 42.5C34.5902 42.41 33.4802 41.34 33.4702 41.33C33.2202 41.07 33.2202 40.66 33.4702 40.41C33.7202 40.16 34.1402 40.16 34.3902 40.41C34.6002 40.62 35.3202 41.17 35.6302 41.2C35.9902 41.24 36.2502 41.55 36.2102 41.91C36.1802 42.24 35.8902 42.49 35.5602 42.49L35.5802 42.5Z" fill="#FF0042"/>
<path d="M46.19 11.5C45.83 11.5 45.54 11.21 45.54 10.85V4.04C45.54 3.68 45.83 3.39 46.19 3.39H60.63C60.99 3.39 61.28 3.68 61.28 4.04C61.28 4.4 60.99 4.69 60.63 4.69H46.84V10.85C46.84 11.21 46.55 11.5 46.19 11.5Z" fill="black"/>
<path d="M32.9601 11.5C32.6001 11.5 32.3101 11.21 32.3101 10.85V4.69H18.5201C18.1601 4.69 17.8701 4.4 17.8701 4.04C17.8701 3.68 18.1601 3.39 18.5201 3.39H32.9601C33.3201 3.39 33.6101 3.68 33.6101 4.04V10.85C33.6101 11.21 33.3201 11.5 32.9601 11.5Z" fill="black"/>
<path d="M60.63 59.96H46.19C45.83 59.96 45.54 59.67 45.54 59.31V52.51C45.54 52.15 45.83 51.86 46.19 51.86C46.55 51.86 46.84 52.15 46.84 52.51V58.66H60.63C60.99 58.66 61.28 58.95 61.28 59.31C61.28 59.67 60.99 59.96 60.63 59.96Z" fill="black"/>
<path d="M32.9601 59.96H18.5201C18.1601 59.96 17.8701 59.67 17.8701 59.31C17.8701 58.95 18.1601 58.66 18.5201 58.66H32.3101V52.51C32.3101 52.15 32.6001 51.86 32.9601 51.86C33.3201 51.86 33.6101 52.15 33.6101 52.51V59.31C33.6101 59.67 33.3201 59.96 32.9601 59.96Z" fill="black"/>
<path d="M18.01 28.73H7.42002C7.06002 28.73 6.77002 28.44 6.77002 28.08C6.77002 27.72 7.06002 27.43 7.42002 27.43H18.01C18.37 27.43 18.66 27.72 18.66 28.08C18.66 28.44 18.37 28.73 18.01 28.73Z" fill="black"/>
<path d="M71.71 28.73H61.13C60.77 28.73 60.48 28.44 60.48 28.08C60.48 27.72 60.77 27.43 61.13 27.43H71.71C72.07 27.43 72.36 27.72 72.36 28.08C72.36 28.44 72.07 28.73 71.71 28.73Z" fill="black"/>
<path d="M19.3498 40.34H9.48984C9.12984 40.34 8.83984 40.05 8.83984 39.69C8.83984 39.33 9.12984 39.04 9.48984 39.04H19.3498C19.7098 39.04 19.9998 39.33 19.9998 39.69C19.9998 40.05 19.7098 40.34 19.3498 40.34Z" fill="black"/>
<path d="M69.7998 40.34H59.9298C59.5698 40.34 59.2798 40.05 59.2798 39.69C59.2798 39.33 59.5698 39.04 59.9298 39.04H69.7998C70.1598 39.04 70.4498 39.33 70.4498 39.69C70.4498 40.05 70.1598 40.34 69.7998 40.34Z" fill="black"/>
<path d="M64.02 8.09C61.79 8.09 59.98 6.28 59.98 4.05C59.98 1.82 61.79 0.0100021 64.02 0.0100021C66.25 0.0100021 68.06 1.82 68.06 4.05C68.06 6.28 66.25 8.09 64.02 8.09ZM64.02 1.3C62.51 1.3 61.28 2.53 61.28 4.04C61.28 5.55 62.51 6.78 64.02 6.78C65.53 6.78 66.76 5.55 66.76 4.04C66.76 2.53 65.53 1.3 64.02 1.3Z" fill="black"/>
<path d="M75.1098 32.11C72.8798 32.11 71.0698 30.3 71.0698 28.08C71.0698 25.86 72.8798 24.04 75.1098 24.04C77.3398 24.04 79.1498 25.85 79.1498 28.08C79.1498 30.31 77.3398 32.11 75.1098 32.11ZM75.1098 25.34C73.5998 25.34 72.3698 26.57 72.3698 28.08C72.3698 29.59 73.5998 30.81 75.1098 30.81C76.6198 30.81 77.8498 29.58 77.8498 28.08C77.8498 26.58 76.6198 25.34 75.1098 25.34Z" fill="black"/>
<path d="M73.1899 43.73C70.9599 43.73 69.1499 41.92 69.1499 39.69C69.1499 37.46 70.9599 35.65 73.1899 35.65C75.4199 35.65 77.2299 37.46 77.2299 39.69C77.2299 41.92 75.4199 43.73 73.1899 43.73ZM73.1899 36.95C71.6799 36.95 70.4499 38.18 70.4499 39.69C70.4499 41.2 71.6799 42.43 73.1899 42.43C74.6999 42.43 75.9299 41.2 75.9299 39.69C75.9299 38.18 74.6999 36.95 73.1899 36.95Z" fill="black"/>
<path d="M64.02 63.35C61.79 63.35 59.98 61.54 59.98 59.31C59.98 57.08 61.79 55.27 64.02 55.27C66.25 55.27 68.06 57.08 68.06 59.31C68.06 61.54 66.25 63.35 64.02 63.35ZM64.02 56.57C62.51 56.57 61.28 57.8 61.28 59.31C61.28 60.82 62.51 62.05 64.02 62.05C65.53 62.05 66.76 60.82 66.76 59.31C66.76 57.8 65.53 56.57 64.02 56.57Z" fill="black"/>
<path d="M15.1298 63.35C12.8998 63.35 11.0898 61.54 11.0898 59.31C11.0898 57.08 12.8998 55.27 15.1298 55.27C17.3598 55.27 19.1698 57.08 19.1698 59.31C19.1698 61.54 17.3598 63.35 15.1298 63.35ZM15.1298 56.57C13.6198 56.57 12.3898 57.8 12.3898 59.31C12.3898 60.82 13.6198 62.05 15.1298 62.05C16.6398 62.05 17.8698 60.82 17.8698 59.31C17.8698 57.8 16.6398 56.57 15.1298 56.57Z" fill="black"/>
<path d="M6.10006 43.73C3.87006 43.73 2.06006 41.92 2.06006 39.69C2.06006 37.46 3.87006 35.65 6.10006 35.65C8.33006 35.65 10.1401 37.46 10.1401 39.69C10.1401 41.92 8.33006 43.73 6.10006 43.73ZM6.10006 36.95C4.59006 36.95 3.36006 38.18 3.36006 39.69C3.36006 41.2 4.59006 42.43 6.10006 42.43C7.61006 42.43 8.84006 41.2 8.84006 39.69C8.84006 38.18 7.61006 36.95 6.10006 36.95Z" fill="black"/>
<path d="M4.04 32.11C1.81 32.11 0 30.3 0 28.08C0 25.86 1.81 24.04 4.04 24.04C6.27 24.04 8.07 25.85 8.07 28.08C8.07 30.31 6.26 32.11 4.04 32.11ZM4.04 25.34C2.53 25.34 1.3 26.57 1.3 28.08C1.3 29.59 2.53 30.81 4.04 30.81C5.55 30.81 6.77 29.58 6.77 28.08C6.77 26.58 5.54 25.34 4.04 25.34Z" fill="black"/>
<path d="M15.1298 8.09C12.8998 8.09 11.0898 6.28 11.0898 4.05C11.0898 1.82 12.8998 0 15.1298 0C17.3598 0 19.1698 1.81 19.1698 4.04C19.1698 6.27 17.3598 8.08 15.1298 8.08V8.09ZM15.1298 1.3C13.6198 1.3 12.3898 2.53 12.3898 4.04C12.3898 5.55 13.6198 6.78 15.1298 6.78C16.6398 6.78 17.8698 5.55 17.8698 4.04C17.8698 2.53 16.6398 1.3 15.1298 1.3Z" fill="black"/>
</g>
<defs>
<clipPath id="clip0_696_710">
<rect width="79.15" height="63.35" fill="white"/>
</clipPath>
</defs>
</svg>
