<svg width="80" height="77" viewBox="0 0 80 77" fill="none" xmlns="http://www.w3.org/2000/svg">
<g clip-path="url(#clip0_697_769)">
<path d="M78.5001 46.2C78.5001 47.98 77.0601 49.42 75.2801 49.42C73.5001 49.42 72.0601 47.98 72.0601 46.2C72.0601 44.42 73.5101 42.97 75.2801 42.97C77.0501 42.97 78.5001 44.42 78.5001 46.2Z" stroke="black" stroke-width="1.3" stroke-linecap="round" stroke-linejoin="round"/>
<path d="M63.75 19.51C63.75 17.73 65.2 16.29 66.99 16.29C68.78 16.29 70.2 17.73 70.2 19.51C70.2 21.29 68.77 22.75 66.99 22.75C65.21 22.75 63.75 21.3 63.75 19.51Z" stroke="black" stroke-width="1.3" stroke-linecap="round" stroke-linejoin="round"/>
<path d="M60.1201 69.71C61.9001 69.71 63.3301 71.15 63.3301 72.93C63.3301 74.71 61.9001 76.15 60.1201 76.15C58.3401 76.15 56.8901 74.7 56.8901 72.93C56.8901 71.16 58.3401 69.71 60.1201 69.71Z" stroke="black" stroke-width="1.3" stroke-linecap="round" stroke-linejoin="round"/>
<path d="M42.0703 0.650002C43.8403 0.650002 45.2803 2.1 45.2803 3.88C45.2803 5.66 43.8403 7.1 42.0703 7.1C40.3003 7.1 38.8403 5.66 38.8403 3.88C38.8403 2.1 40.2803 0.650002 42.0703 0.650002Z" stroke="black" stroke-width="1.3" stroke-linecap="round" stroke-linejoin="round"/>
<path d="M19.5701 54.47C19.5701 53.64 18.9001 52.97 18.0701 52.97C17.2401 52.97 16.5601 53.64 16.5601 54.47C16.5601 55.3 17.2401 55.99 18.0701 55.99C18.9001 55.99 19.5701 55.31 19.5701 54.47ZM22.9501 31.26C22.9501 30.43 22.2801 29.75 21.4501 29.75C20.6201 29.75 19.9401 30.43 19.9401 31.26C19.9401 32.09 20.6201 32.76 21.4501 32.76C22.2801 32.76 22.9501 32.09 22.9501 31.26ZM10.4801 36.64C10.4801 35.81 9.81014 35.14 8.98014 35.14C8.15014 35.14 7.46014 35.81 7.46014 36.64C7.46014 36.66 7.46014 36.69 7.46014 36.71C7.49014 37.51 8.15014 38.15 8.97014 38.15C9.79014 38.15 10.4701 37.48 10.4701 36.64H10.4801ZM18.0401 23C18.0401 22.17 17.3701 21.49 16.5401 21.49C15.7101 21.49 15.0301 22.16 15.0301 23C15.0301 23.84 15.7101 24.49 16.5401 24.49C17.3701 24.49 18.0401 23.83 18.0401 23ZM14.7201 45.73C14.7201 44.91 14.0501 44.22 13.2201 44.22C12.3901 44.22 11.7201 44.9 11.7201 45.73C11.7201 46.56 12.3901 47.23 13.2201 47.23C14.0501 47.23 14.7201 46.57 14.7201 45.73ZM10.8001 22.27C10.8901 17.43 14.8501 13.53 19.7001 13.53C20.7901 13.53 21.8401 13.73 22.8001 14.09V14.15C23.1301 14.09 23.4501 14.07 23.7801 14.07C25.7401 14.07 27.5201 14.87 28.8101 16.16C30.1001 17.46 30.9001 19.24 30.9001 21.2V60.44C30.9001 64.36 27.7001 67.56 23.7801 67.56C22.8401 67.56 21.9401 67.39 21.1201 67.05C20.1001 67.71 18.8701 68.09 17.5701 68.09C14.6001 68.09 12.0901 66.13 11.2701 63.43C6.36014 63.43 3.25014 59.46 3.25014 54.56C3.25014 53.64 3.39014 52.75 3.65014 51.92L3.45014 51.86C1.72014 50.23 0.640137 47.92 0.640137 45.37C0.640137 42.82 1.71014 40.51 3.43014 38.89L3.35014 38.81C2.55014 37.47 2.08014 35.92 2.08014 34.24C2.08014 30.78 4.05014 27.79 6.92014 26.31L7.11014 26.34C7.65014 24.52 8.95014 23.05 10.6401 22.27H10.7901H10.8001ZM14.5901 34.4C14.5901 35.23 15.2601 35.92 16.1001 35.92C16.9401 35.92 17.6101 35.24 17.6101 34.4C17.6101 33.56 16.9301 32.9 16.1001 32.9C15.2701 32.9 14.5901 33.57 14.5901 34.4Z" stroke="black" stroke-width="1.3" stroke-linecap="round" stroke-linejoin="round"/>
<path d="M33.6299 15.93H36.5199V23.62C39.2299 24.1 41.7199 25.17 43.8799 26.67L49.3199 21.23L53.8499 25.77L48.4199 31.22C49.9299 33.37 50.9899 35.87 51.4699 38.58H59.1599V45H51.4699C50.9899 47.71 49.9399 50.21 48.4199 52.37L53.8499 57.8L51.5799 60.07L49.3199 62.35L43.8799 56.91C41.7199 58.44 39.2299 59.48 36.5199 59.97V67.66H33.6399" stroke="#FF0042" stroke-width="1.3" stroke-linecap="round" stroke-linejoin="round"/>
<path d="M33.6299 30.51C39.7099 30.69 44.5899 35.67 44.5899 41.8C44.5899 47.93 39.7099 52.9 33.6299 53.07" stroke="#FF0042" stroke-width="1.3" stroke-linecap="round" stroke-linejoin="round"/>
<path d="M33.6299 37.03C36.1099 37.19 38.0699 39.27 38.0699 41.8C38.0699 44.33 36.1099 46.39 33.6299 46.56" stroke="#FF0042" stroke-width="1.3" stroke-linecap="round" stroke-linejoin="round"/>
<path d="M30.8997 60.44C30.8997 64.36 27.6997 67.56 23.7797 67.56C22.8397 67.56 21.9397 67.39 21.1197 67.05C20.0997 67.71 18.8697 68.09 17.5697 68.09C14.5997 68.09 12.0897 66.13 11.2697 63.43C11.0797 62.84 10.9897 62.19 10.9897 61.52C10.9897 58.2 13.4497 55.45 16.6497 55" stroke="black" stroke-width="1.3" stroke-linecap="round" stroke-linejoin="round"/>
<path d="M16.6499 21.2C16.6499 17.6 19.3399 14.61 22.7999 14.14C23.1199 14.08 23.4399 14.06 23.7699 14.06C25.7299 14.06 27.5099 14.86 28.7999 16.15C30.0899 17.45 30.8899 19.23 30.8899 21.19" stroke="black" stroke-width="1.3" stroke-linecap="round" stroke-linejoin="round"/>
<path d="M11.2798 63.44C6.36977 63.44 3.25977 59.47 3.25977 54.57C3.25977 53.65 3.39977 52.76 3.65977 51.93C4.73977 48.44 7.91977 45.86 11.7198 45.67" stroke="black" stroke-width="1.3" stroke-linecap="round" stroke-linejoin="round"/>
<path d="M3.4599 51.86C1.7299 50.23 0.649902 47.92 0.649902 45.37C0.649902 42.82 1.7199 40.51 3.4399 38.89C4.5399 37.84 5.9299 37.07 7.4599 36.7" stroke="black" stroke-width="1.3" stroke-linecap="round" stroke-linejoin="round"/>
<path d="M3.35984 38.82C2.55984 37.48 2.08984 35.93 2.08984 34.25C2.08984 30.79 4.05984 27.8 6.92984 26.32" stroke="black" stroke-width="1.3" stroke-linecap="round" stroke-linejoin="round"/>
<path d="M19.6998 31.34C14.7998 31.34 10.7998 27.35 10.7998 22.44V22.27C10.8898 17.43 14.8498 13.53 19.6998 13.53C20.7898 13.53 21.8398 13.73 22.7998 14.09" stroke="black" stroke-width="1.3" stroke-linecap="round" stroke-linejoin="round"/>
<path d="M14.1801 33.78C10.5501 33.78 6.83008 31.87 6.83008 28.24C6.83008 27.59 6.93008 26.94 7.11008 26.34C7.65008 24.52 8.95008 23.05 10.6401 22.27" stroke="black" stroke-width="1.3" stroke-linecap="round" stroke-linejoin="round"/>
<path d="M30.8999 21.2V60.44" stroke="black" stroke-width="1.3" stroke-linecap="round" stroke-linejoin="round"/>
<path d="M21.4499 29.75C20.6199 29.75 19.9399 30.43 19.9399 31.26C19.9399 32.09 20.6199 32.76 21.4499 32.76C22.2799 32.76 22.9499 32.09 22.9499 31.26C22.9499 30.43 22.2799 29.75 21.4499 29.75Z" stroke="black" stroke-width="1.3" stroke-linecap="round" stroke-linejoin="round"/>
<path d="M16.53 21.5C15.7 21.5 15.02 22.17 15.02 23.01C15.02 23.85 15.7 24.5 16.53 24.5C17.36 24.5 18.03 23.84 18.03 23.01C18.03 22.18 17.36 21.5 16.53 21.5Z" stroke="black" stroke-width="1.3" stroke-linecap="round" stroke-linejoin="round"/>
<path d="M16.0998 32.89C15.2698 32.89 14.5898 33.56 14.5898 34.39C14.5898 35.22 15.2598 35.91 16.0998 35.91C16.9398 35.91 17.6098 35.23 17.6098 34.39C17.6098 33.55 16.9298 32.89 16.0998 32.89Z" stroke="black" stroke-width="1.3" stroke-linecap="round" stroke-linejoin="round"/>
<path d="M8.96971 35.13C8.13971 35.13 7.44971 35.8 7.44971 36.63C7.44971 36.65 7.44971 36.68 7.44971 36.7C7.47971 37.5 8.13971 38.14 8.95971 38.14C9.77971 38.14 10.4597 37.47 10.4597 36.63C10.4597 35.79 9.78971 35.13 8.95971 35.13H8.96971Z" stroke="black" stroke-width="1.3" stroke-linecap="round" stroke-linejoin="round"/>
<path d="M13.21 44.22C12.38 44.22 11.71 44.9 11.71 45.73C11.71 46.56 12.38 47.23 13.21 47.23C14.04 47.23 14.71 46.57 14.71 45.73C14.71 44.89 14.04 44.22 13.21 44.22Z" stroke="black" stroke-width="1.3" stroke-linecap="round" stroke-linejoin="round"/>
<path d="M18.0701 52.97C17.2401 52.97 16.5601 53.64 16.5601 54.47C16.5601 55.3 17.2401 55.99 18.0701 55.99C18.9001 55.99 19.5701 55.31 19.5701 54.47C19.5701 53.63 18.9001 52.97 18.0701 52.97Z" stroke="black" stroke-width="1.3" stroke-linecap="round" stroke-linejoin="round"/>
<path d="M38.9398 5.81L35.0098 7.85L35.0698 15.93" stroke="#FF0042" stroke-width="1.3" stroke-linecap="round" stroke-linejoin="round"/>
<path d="M42.0698 0.650002C43.8398 0.650002 45.2798 2.1 45.2798 3.88C45.2798 5.66 43.8398 7.1 42.0698 7.1C40.2998 7.1 38.8398 5.66 38.8398 3.88C38.8398 2.1 40.2798 0.650002 42.0698 0.650002Z" stroke="#FF0042" stroke-width="1.3" stroke-linecap="round" stroke-linejoin="round"/>
<path d="M63.4701 20.47L60.3901 20.76L56.8101 25.76L53.8501 25.77" stroke="#FF0042" stroke-width="1.3" stroke-linecap="round" stroke-linejoin="round"/>
<path d="M66.9797 16.3C68.7597 16.3 70.1897 17.74 70.1897 19.52C70.1897 21.3 68.7597 22.76 66.9797 22.76C65.1997 22.76 63.7397 21.31 63.7397 19.52C63.7397 17.73 65.1897 16.3 66.9797 16.3Z" stroke="#FF0042" stroke-width="1.3" stroke-linecap="round" stroke-linejoin="round"/>
<path d="M72.1699 47.08L67.7699 47.22L63.1499 41.49L59.1499 41.8" stroke="#FF0042" stroke-width="1.3" stroke-linecap="round" stroke-linejoin="round"/>
<path d="M75.2698 42.97C77.0598 42.97 78.4898 44.42 78.4898 46.2C78.4898 47.98 77.0498 49.42 75.2698 49.42C73.4898 49.42 72.0498 47.98 72.0498 46.2C72.0498 44.42 73.4998 42.97 75.2698 42.97Z" stroke="#FF0042" stroke-width="1.3" stroke-linecap="round" stroke-linejoin="round"/>
<path d="M51.5801 60.07L51.6501 69.3L56.9401 71.11" stroke="#FF0042" stroke-width="1.3" stroke-linecap="round" stroke-linejoin="round"/>
<path d="M60.1201 69.71C61.9001 69.71 63.3301 71.15 63.3301 72.93C63.3301 74.71 61.9001 76.15 60.1201 76.15C58.3401 76.15 56.8901 74.7 56.8901 72.93C56.8901 71.16 58.3401 69.71 60.1201 69.71Z" stroke="#FF0042" stroke-width="1.3" stroke-linecap="round" stroke-linejoin="round"/>
</g>
<defs>
<clipPath id="clip0_697_769">
<rect width="79.15" height="76.81" fill="white"/>
</clipPath>
</defs>
</svg>
