<svg width="76" height="80" viewBox="0 0 76 80" fill="none" xmlns="http://www.w3.org/2000/svg">
<g clip-path="url(#clip0_697_802)">
<path d="M40.0699 65.18H9.02988C8.66988 65.18 8.37988 64.89 8.37988 64.53V0.65C8.37988 0.29 8.66988 0 9.02988 0H54.7299C55.0899 0 55.3799 0.29 55.3799 0.65V12.02C55.3799 12.38 55.0899 12.67 54.7299 12.67H52.8299V18.14C52.8299 18.46 52.5999 18.73 52.2899 18.78C50.2699 19.13 48.3899 19.91 46.6899 21.1C46.4299 21.28 46.0799 21.25 45.8599 21.03L41.9999 17.17L39.3099 19.86L43.1799 23.73C43.3999 23.95 43.4299 24.3 43.2499 24.56C42.0599 26.27 41.2799 28.15 40.9299 30.16C40.8799 30.47 40.6099 30.7 40.2899 30.7H34.8199V34.5H40.2899C40.6099 34.5 40.8699 34.73 40.9299 35.04C41.2899 37.05 42.0899 38.99 43.2499 40.64C43.4299 40.9 43.3999 41.25 43.1799 41.47L39.3099 45.35L41.9999 48.04L45.8599 44.17C46.0799 43.95 46.4299 43.92 46.6899 44.1C48.3799 45.28 50.2599 46.06 52.2899 46.41C52.5999 46.46 52.8299 46.73 52.8299 47.05V52.53H54.7299C55.0899 52.53 55.3799 52.82 55.3799 53.18V62.26C55.3799 62.52 55.2299 62.75 54.9899 62.86C54.7499 62.96 54.4799 62.91 54.2899 62.74C52.6699 61.21 50.5399 60.37 48.3099 60.37C45.1399 60.37 42.1999 62.09 40.6499 64.87C40.5299 65.07 40.3199 65.2 40.0799 65.2L40.0699 65.18ZM9.67988 63.88H39.6999C41.5299 60.89 44.7899 59.05 48.2999 59.05C50.3899 59.05 52.3999 59.69 54.0799 60.87V53.81H52.1799C51.8199 53.81 51.5299 53.52 51.5299 53.16V47.57C49.6999 47.18 47.9699 46.47 46.3999 45.45L42.4599 49.4C42.2199 49.64 41.7899 49.64 41.5399 49.4L37.9299 45.79C37.6799 45.54 37.6799 45.13 37.9299 44.87L41.8799 40.91C40.8799 39.36 40.1499 37.61 39.7599 35.78H34.1799C33.8199 35.78 33.5299 35.49 33.5299 35.13V30.03C33.5299 29.67 33.8199 29.38 34.1799 29.38H39.7599C40.1399 27.55 40.8599 25.83 41.8899 24.24L37.9399 20.29C37.8199 20.17 37.7499 20 37.7499 19.83C37.7499 19.66 37.8199 19.49 37.9399 19.37L41.5499 15.77C41.6699 15.65 41.8399 15.58 42.0099 15.58C42.1799 15.58 42.3499 15.65 42.4699 15.77L46.4099 19.71C47.9899 18.68 49.7099 17.97 51.5399 17.58V12C51.5399 11.64 51.8299 11.35 52.1899 11.35H54.0899V1.3H9.67988V63.88Z" fill="black"/>
<path d="M39.13 71.84C39.13 71.84 39.12 71.84 39.11 71.84H0.65C0.29 71.84 0 71.55 0 71.19V7.32C0 6.96 0.29 6.67 0.65 6.67H9.03C9.39 6.67 9.68 6.96 9.68 7.32V63.88H40.07C40.3 63.88 40.51 64 40.63 64.2C40.75 64.4 40.75 64.64 40.63 64.84C39.91 66.15 39.53 67.62 39.53 69.11C39.53 69.71 39.59 70.3 39.71 70.9C39.75 70.99 39.77 71.08 39.77 71.18C39.77 71.54 39.48 71.83 39.12 71.83L39.13 71.84ZM1.3 70.54H38.34C38.27 70.07 38.24 69.6 38.24 69.11C38.24 67.76 38.51 66.42 39.04 65.17H9.03C8.67 65.17 8.38 64.88 8.38 64.52V7.97H1.3V70.55V70.54Z" fill="black"/>
<path d="M48.31 79.19C42.76 79.19 38.25 74.67 38.25 69.12C38.25 63.57 42.76 59.05 48.31 59.05C53.86 59.05 58.38 63.57 58.38 69.12C58.38 74.67 53.86 79.19 48.31 79.19ZM48.31 60.35C43.48 60.35 39.55 64.28 39.55 69.12C39.55 73.96 43.48 77.89 48.31 77.89C53.14 77.89 57.07 73.96 57.07 69.12C57.07 64.28 53.14 60.35 48.31 60.35Z" fill="#FF0042"/>
<path d="M46.0101 73.7C45.8201 73.7 45.6301 73.61 45.5101 73.46L43.4301 70.93C43.2001 70.65 43.2401 70.24 43.5201 70.02C43.8001 69.79 44.2101 69.83 44.4301 70.11L46.0101 72.04L52.1701 64.77C52.4001 64.5 52.8101 64.46 53.0901 64.69C53.3601 64.92 53.4001 65.33 53.1701 65.61L46.5101 73.48C46.3901 73.63 46.2101 73.71 46.0101 73.71V73.7Z" fill="#FF0042"/>
<path d="M57.2898 53.81H52.1898C51.8298 53.81 51.5398 53.52 51.5398 53.16V47.57C49.7098 47.18 47.9798 46.47 46.4098 45.45L42.4698 49.4C42.2298 49.64 41.7998 49.64 41.5498 49.4L37.9398 45.79C37.6898 45.54 37.6898 45.13 37.9398 44.87L41.8898 40.91C40.8798 39.35 40.1498 37.6 39.7598 35.78H34.1798C33.8198 35.78 33.5298 35.49 33.5298 35.13V30.03C33.5298 29.67 33.8198 29.38 34.1798 29.38H39.7598C40.1398 27.55 40.8598 25.83 41.8898 24.24L37.9398 20.29C37.8198 20.17 37.7498 20 37.7498 19.83C37.7498 19.66 37.8198 19.49 37.9398 19.37L41.5498 15.77C41.6698 15.65 41.8398 15.58 42.0098 15.58C42.1798 15.58 42.3498 15.65 42.4698 15.77L46.4098 19.71C47.9898 18.68 49.7098 17.97 51.5398 17.58V12C51.5398 11.64 51.8298 11.35 52.1898 11.35H57.2898C57.6498 11.35 57.9398 11.64 57.9398 12V17.58C59.7598 17.97 61.5098 18.7 63.0598 19.7L66.9998 15.76C67.2498 15.51 67.6698 15.51 67.9198 15.76L71.5398 19.36C71.6598 19.48 71.7298 19.65 71.7298 19.82C71.7298 19.99 71.6598 20.16 71.5398 20.28L67.5898 24.23C68.6098 25.81 69.3198 27.53 69.7098 29.37H75.2998C75.6598 29.37 75.9498 29.66 75.9498 30.02V35.12C75.9498 35.48 75.6598 35.77 75.2998 35.77H69.7098C69.3198 37.59 68.5998 39.35 67.5898 40.9L71.5398 44.86C71.7898 45.11 71.7898 45.53 71.5398 45.78L67.9198 49.39C67.6698 49.64 67.2498 49.64 66.9998 49.39L63.0598 45.44C61.4898 46.46 59.7698 47.17 57.9398 47.56V53.15C57.9398 53.51 57.6498 53.8 57.2898 53.8V53.81ZM52.8298 52.51H56.6298V47.03C56.6298 46.71 56.8598 46.44 57.1698 46.39C59.1898 46.04 61.0798 45.26 62.7598 44.08C63.0198 43.9 63.3698 43.93 63.5898 44.15L67.4498 48.02L70.1498 45.33L66.2798 41.45C66.0598 41.23 66.0298 40.87 66.2098 40.62C67.3698 38.97 68.1698 37.04 68.5198 35.03C68.5698 34.72 68.8398 34.49 69.1598 34.49H74.6398V30.69H69.1598C68.8398 30.69 68.5698 30.46 68.5198 30.15C68.1698 28.12 67.3898 26.24 66.2098 24.55C66.0298 24.29 66.0598 23.94 66.2798 23.72L70.1398 19.86L67.4498 17.17L63.5898 21.03C63.3698 21.25 63.0098 21.28 62.7598 21.1C61.1098 19.94 59.1798 19.14 57.1698 18.78C56.8598 18.72 56.6298 18.46 56.6298 18.14V12.67H52.8298V18.14C52.8298 18.46 52.5998 18.73 52.2898 18.78C50.2698 19.13 48.3898 19.91 46.6898 21.1C46.4298 21.28 46.0798 21.25 45.8598 21.03L41.9998 17.17L39.3098 19.86L43.1798 23.73C43.3998 23.95 43.4298 24.3 43.2498 24.56C42.0598 26.27 41.2798 28.15 40.9298 30.16C40.8798 30.47 40.6098 30.7 40.2898 30.7H34.8198V34.5H40.2898C40.6098 34.5 40.8798 34.73 40.9298 35.04C41.2798 37.03 42.0798 38.97 43.2498 40.63C43.4298 40.89 43.3998 41.24 43.1798 41.46L39.3098 45.34L41.9998 48.03L45.8598 44.16C46.0798 43.94 46.4298 43.91 46.6898 44.09C48.3798 45.27 50.2598 46.05 52.2898 46.4C52.5998 46.45 52.8298 46.72 52.8298 47.04V52.52V52.51Z" fill="#FF0042"/>
<path d="M54.7401 42.21C49.4401 42.21 45.1201 37.89 45.1201 32.59C45.1201 27.29 49.4401 22.96 54.7401 22.96C60.0401 22.96 64.3601 27.28 64.3601 32.59C64.3601 37.9 60.0401 42.21 54.7401 42.21ZM54.7401 24.26C50.1501 24.26 46.4201 27.99 46.4201 32.59C46.4201 37.19 50.1501 40.91 54.7401 40.91C59.3301 40.91 63.0601 37.18 63.0601 32.59C63.0601 28 59.3301 24.26 54.7401 24.26Z" fill="#FF0042"/>
<path d="M54.74 37.04C52.29 37.04 50.29 35.04 50.29 32.59C50.29 30.14 52.29 28.14 54.74 28.14C57.19 28.14 59.19 30.14 59.19 32.59C59.19 35.04 57.19 37.04 54.74 37.04ZM54.74 29.44C53.01 29.44 51.59 30.85 51.59 32.59C51.59 34.33 53 35.74 54.74 35.74C56.48 35.74 57.89 34.33 57.89 32.59C57.89 30.85 56.48 29.44 54.74 29.44Z" fill="#FF0042"/>
<path d="M29.8 26.42H17.4C17.04 26.42 16.75 26.13 16.75 25.77C16.75 25.41 17.04 25.12 17.4 25.12H29.8C30.16 25.12 30.45 25.41 30.45 25.77C30.45 26.13 30.16 26.42 29.8 26.42Z" fill="black"/>
<path d="M29.7999 30.31H21.2799C20.9199 30.31 20.6299 30.02 20.6299 29.66C20.6299 29.3 20.9199 29.01 21.2799 29.01H29.7999C30.1599 29.01 30.4499 29.3 30.4499 29.66C30.4499 30.02 30.1599 30.31 29.7999 30.31Z" fill="black"/>
<path d="M32.2302 46.87H19.8302C19.4702 46.87 19.1802 46.58 19.1802 46.22C19.1802 45.86 19.4702 45.57 19.8302 45.57H32.2302C32.5902 45.57 32.8802 45.86 32.8802 46.22C32.8802 46.58 32.5902 46.87 32.2302 46.87Z" fill="black"/>
<path d="M32.2301 50.76H23.7101C23.3501 50.76 23.0601 50.47 23.0601 50.11C23.0601 49.75 23.3501 49.46 23.7101 49.46H32.2301C32.5901 49.46 32.8801 49.75 32.8801 50.11C32.8801 50.47 32.5901 50.76 32.2301 50.76Z" fill="black"/>
</g>
<defs>
<clipPath id="clip0_697_802">
<rect width="75.95" height="79.19" fill="white"/>
</clipPath>
</defs>
</svg>
