<svg width="54" height="77" viewBox="0 0 54 77" fill="none" xmlns="http://www.w3.org/2000/svg">
<g clip-path="url(#clip0_696_258)">
<path d="M51.4397 66.9472H2.54095C1.1347 66.9472 0 65.8028 0 64.3965V28.4062C0 27 1.1444 25.8556 2.54095 25.8556H14.6347C14.9838 25.8556 15.2651 26.1368 15.2651 26.486C15.2651 26.8351 14.9838 27.1164 14.6347 27.1164H2.54095C1.83297 27.1164 1.26078 27.6983 1.26078 28.4062V64.3965C1.26078 65.1142 1.83297 65.6864 2.54095 65.6864H51.4397C52.1476 65.6864 52.7295 65.1045 52.7295 64.3965V28.4062C52.7295 27.6886 52.1476 27.1164 51.4397 27.1164H39.3556C39.0065 27.1164 38.7252 26.8351 38.7252 26.486C38.7252 26.1368 39.0065 25.8556 39.3556 25.8556H51.4397C52.8459 25.8556 53.9903 27 53.9903 28.4062V64.3965C53.9903 65.8028 52.8459 66.9472 51.4397 66.9472Z" fill="black"/>
<path d="M33.4106 73.4547H20.5895C20.4053 73.4547 20.2307 73.3772 20.1143 73.2317C19.9979 73.0959 19.9397 72.9019 19.9688 72.7274L21.0066 66.2101C21.055 65.8998 21.3169 65.6767 21.6272 65.6767H32.3535C32.6639 65.6767 32.9257 65.8998 32.9742 66.2101L33.9828 72.5722C34.0119 72.6498 34.0313 72.7274 34.0313 72.8244C34.0313 73.1735 33.7501 73.4547 33.4009 73.4547H33.4106ZM21.3363 72.194H32.6639L31.8298 66.9375H22.1703L21.3266 72.194H21.3363Z" fill="black"/>
<path d="M37.542 76.8007H16.4483C16.0991 76.8007 15.8179 76.5194 15.8179 76.1703V72.8341C15.8179 72.4849 16.0991 72.2037 16.4483 72.2037H37.542C37.8911 72.2037 38.1724 72.4849 38.1724 72.8341V76.1703C38.1724 76.5194 37.8911 76.8007 37.542 76.8007ZM17.0786 75.5399H36.9116V73.4645H17.0786V75.5399Z" fill="black"/>
<path d="M53.3696 58.7522H0.630388C0.28125 58.7522 0 58.4709 0 58.1218C0 57.7726 0.28125 57.4914 0.630388 57.4914H53.3696C53.7187 57.4914 54 57.7726 54 58.1218C54 58.4709 53.7187 58.7522 53.3696 58.7522Z" fill="black"/>
<path d="M26.9904 64.7651C25.5842 64.7651 24.4495 63.6207 24.4495 62.2144C24.4495 60.8082 25.5939 59.6638 26.9904 59.6638C28.387 59.6638 29.5314 60.8082 29.5314 62.2144C29.5314 63.6207 28.387 64.7651 26.9904 64.7651ZM26.9904 60.9343C26.2824 60.9343 25.7102 61.5065 25.7102 62.2241C25.7102 62.9418 26.2824 63.514 26.9904 63.514C27.6984 63.514 28.2706 62.9418 28.2706 62.2241C28.2706 61.5065 27.6984 60.9343 26.9904 60.9343Z" fill="black"/>
<path d="M25.8848 13.8103C25.5356 13.8103 25.2544 13.5291 25.2544 13.18V5.27587C25.2544 4.92673 25.5356 4.64548 25.8848 4.64548C26.2339 4.64548 26.5152 4.92673 26.5152 5.27587V13.1703C26.5152 13.5194 26.2339 13.8006 25.8848 13.8006V13.8103Z" fill="#FF0042"/>
<path d="M6.57535 23.0431C6.41048 23.0431 6.23591 22.9752 6.10983 22.8394L2.47298 18.9407C2.36629 18.8244 2.30811 18.6692 2.30811 18.514V11.3276C2.30811 10.9785 2.58936 10.6972 2.93849 10.6972C3.28763 10.6972 3.56888 10.9785 3.56888 11.3276V18.2716L7.04086 21.986C7.28332 22.2382 7.26392 22.6358 7.01177 22.8782C6.89539 22.9946 6.74022 23.0431 6.58504 23.0431H6.57535Z" fill="#FF0042"/>
<path d="M17.6218 14.8481C17.2727 14.8481 16.9915 14.5668 16.9915 14.2177V10.5711C16.9915 10.222 17.2727 9.94073 17.6218 9.94073C17.971 9.94073 18.2522 10.222 18.2522 10.5711V14.2177C18.2522 14.5668 17.971 14.8481 17.6218 14.8481Z" fill="#FF0042"/>
<path d="M12.1715 17.583C12.0067 17.583 11.8321 17.5151 11.706 17.3793L8.06917 13.4806C7.96249 13.3642 7.9043 13.209 7.9043 13.0539V5.49892C7.9043 5.14978 8.18555 4.86853 8.53469 4.86853C8.88382 4.86853 9.16507 5.14978 9.16507 5.49892V12.8017L12.6274 16.5259C12.8601 16.778 12.8504 17.1756 12.5983 17.4181C12.4819 17.5345 12.3267 17.583 12.1715 17.583Z" fill="#FF0042"/>
<path d="M47.3955 23.0431C47.2403 23.0431 47.0852 22.9849 46.9688 22.8782C46.7166 22.6358 46.6972 22.2381 46.9397 21.986L50.4117 18.2715V10.9784C50.4117 10.6293 50.6929 10.3481 51.0421 10.3481C51.3912 10.3481 51.6724 10.6293 51.6724 10.9784V18.5237C51.6724 18.6886 51.6143 18.834 51.5076 18.9504L47.861 22.8491C47.7349 22.9849 47.5701 23.0528 47.3955 23.0528V23.0431Z" fill="#FF0042"/>
<path d="M41.8093 17.583C41.6542 17.583 41.499 17.5248 41.3826 17.4084C41.1304 17.1756 41.111 16.7683 41.3535 16.5162L44.8255 12.792V5.48921C44.8255 5.14008 45.1067 4.85883 45.4559 4.85883C45.805 4.85883 46.0863 5.14008 46.0863 5.48921V13.0442C46.0863 13.209 46.0281 13.3545 45.9214 13.4709L42.2748 17.3696C42.1488 17.5054 41.9839 17.5733 41.8093 17.5733V17.583Z" fill="#FF0042"/>
<path d="M36.3491 14.8481C36 14.8481 35.7188 14.5668 35.7188 14.2177V10.5711C35.7188 10.222 36 9.94073 36.3491 9.94073C36.6983 9.94073 36.9795 10.222 36.9795 10.5711V14.2177C36.9795 14.5668 36.6983 14.8481 36.3491 14.8481Z" fill="#FF0042"/>
<path d="M2.94828 11.9483C1.31897 11.9483 0 10.6293 0 9C0 7.37069 1.31897 6.04202 2.94828 6.04202C4.57759 6.04202 5.90625 7.37069 5.90625 9C5.90625 10.6293 4.57759 11.9483 2.94828 11.9483ZM2.94828 7.3028C2.01724 7.3028 1.26078 8.06896 1.26078 9C1.26078 9.93103 2.01724 10.6875 2.94828 10.6875C3.87931 10.6875 4.64547 9.93103 4.64547 9C4.64547 8.06896 3.88901 7.3028 2.94828 7.3028Z" fill="#FF0042"/>
<path d="M8.53463 6.1196C6.90532 6.1196 5.57666 4.80063 5.57666 3.17132C5.57666 1.54201 6.90532 0.213348 8.53463 0.213348C10.1639 0.213348 11.4829 1.54201 11.4829 3.17132C11.4829 4.80063 10.1639 6.1196 8.53463 6.1196ZM8.53463 1.47412C7.6036 1.47412 6.83744 2.24029 6.83744 3.17132C6.83744 4.10236 7.5939 4.85882 8.53463 4.85882C9.47537 4.85882 10.2221 4.10236 10.2221 3.17132C10.2221 2.24029 9.46567 1.47412 8.53463 1.47412Z" fill="#FF0042"/>
<path d="M17.6216 11.2015C15.9923 11.2015 14.6733 9.87284 14.6733 8.24353C14.6733 6.61422 15.9923 5.29526 17.6216 5.29526C19.2509 5.29526 20.5796 6.61422 20.5796 8.24353C20.5796 9.87284 19.2509 11.2015 17.6216 11.2015ZM17.6216 6.55603C16.6906 6.55603 15.9341 7.3125 15.9341 8.24353C15.9341 9.17457 16.6906 9.94073 17.6216 9.94073C18.5526 9.94073 19.3188 9.17457 19.3188 8.24353C19.3188 7.3125 18.5526 6.55603 17.6216 6.55603Z" fill="#FF0042"/>
<path d="M25.7199 5.91595C24.0906 5.91595 22.762 4.58728 22.762 2.95797C22.762 1.32866 24.0906 0 25.7199 0C27.3492 0 28.6779 1.32866 28.6779 2.95797C28.6779 4.58728 27.3492 5.91595 25.7199 5.91595ZM25.7199 1.26078C24.7792 1.26078 24.0227 2.02694 24.0227 2.95797C24.0227 3.88901 24.7889 4.65517 25.7199 4.65517C26.651 4.65517 27.4171 3.88901 27.4171 2.95797C27.4171 2.02694 26.6607 1.26078 25.7199 1.26078Z" fill="#FF0042"/>
<path d="M36.3491 11.2015C34.7198 11.2015 33.3911 9.87284 33.3911 8.24353C33.3911 6.61422 34.7198 5.29526 36.3491 5.29526C37.9784 5.29526 39.2974 6.61422 39.2974 8.24353C39.2974 9.87284 37.9784 11.2015 36.3491 11.2015ZM36.3491 6.55603C35.4181 6.55603 34.6519 7.3125 34.6519 8.24353C34.6519 9.17457 35.4084 9.94073 36.3491 9.94073C37.2898 9.94073 38.0366 9.17457 38.0366 8.24353C38.0366 7.3125 37.2801 6.55603 36.3491 6.55603Z" fill="#FF0042"/>
<path d="M45.4558 6.1196C43.8265 6.1196 42.4978 4.80063 42.4978 3.17132C42.4978 1.54201 43.8265 0.213348 45.4558 0.213348C47.0851 0.213348 48.4041 1.54201 48.4041 3.17132C48.4041 4.80063 47.0851 6.1196 45.4558 6.1196ZM45.4558 1.47412C44.515 1.47412 43.7586 2.24029 43.7586 3.17132C43.7586 4.10236 44.5247 4.85882 45.4558 4.85882C46.3868 4.85882 47.1433 4.10236 47.1433 3.17132C47.1433 2.24029 46.3868 1.47412 45.4558 1.47412Z" fill="#FF0042"/>
<path d="M51.042 11.5991C49.4127 11.5991 48.0938 10.2705 48.0938 8.64117C48.0938 7.01186 49.4127 5.6832 51.042 5.6832C52.6713 5.6832 54 7.01186 54 8.64117C54 10.2705 52.6713 11.5991 51.042 11.5991ZM51.042 6.94397C50.111 6.94397 49.3545 7.71014 49.3545 8.64117C49.3545 9.57221 50.111 10.3384 51.042 10.3384C51.9731 10.3384 52.7392 9.5819 52.7392 8.64117C52.7392 7.70044 51.9828 6.94397 51.042 6.94397Z" fill="#FF0042"/>
<path d="M28.93 52.6423H25.0604C24.7112 52.6423 24.43 52.361 24.43 52.0119V47.8901C23.1207 47.5992 21.8599 47.0754 20.7252 46.3578L17.8061 49.2673C17.6897 49.3836 17.5248 49.4515 17.3599 49.4515C17.166 49.4224 17.0302 49.3836 16.9138 49.2673L14.1983 46.5226C13.9559 46.2802 13.9559 45.8826 14.1983 45.6304L17.0981 42.7209C16.3804 41.5862 15.8567 40.3157 15.5658 39.0162H11.4634C11.1143 39.0162 10.833 38.7349 10.833 38.3858V34.5162C10.833 34.167 11.1143 33.8858 11.4634 33.8858H15.5658C15.8567 32.5668 16.3707 31.3254 17.0981 30.1714L14.1983 27.2619C13.9559 27.0194 13.9559 26.6121 14.1983 26.3696L16.9235 23.6347C17.1563 23.402 17.583 23.402 17.8158 23.6347L20.7252 26.5442C21.8599 25.8265 23.1304 25.3028 24.43 25.0119V20.8998C24.43 20.5507 24.7112 20.2694 25.0604 20.2694H28.93C29.2791 20.2694 29.5604 20.5507 29.5604 20.8998V25.0119C30.8696 25.3028 32.1401 25.8265 33.2748 26.5442L36.1746 23.6347C36.4074 23.402 36.8341 23.402 37.0668 23.6347L39.7921 26.3696C40.0345 26.6121 40.0345 27.0194 39.7921 27.2619L36.8923 30.1714C37.6196 31.3157 38.1434 32.5571 38.4343 33.8858H42.5464C42.8955 33.8858 43.1768 34.167 43.1768 34.5162V38.3858C43.1768 38.7349 42.8955 39.0162 42.5464 39.0162H38.4343C38.1434 40.3448 37.6196 41.5862 36.8923 42.7306L39.7921 45.6401C40.0345 45.8826 40.0345 46.2899 39.7921 46.5323L37.0668 49.2673C36.8341 49.5 36.4074 49.5 36.1746 49.2673L33.2748 46.3578C32.1401 47.0754 30.8696 47.5992 29.5604 47.8901V52.0119C29.5604 52.361 29.2791 52.6423 28.93 52.6423ZM25.6908 51.3815H28.2996V47.3761C28.2996 47.0657 28.5227 46.8039 28.8233 46.7554C30.3168 46.4935 31.7619 45.902 33.0033 45.0291C33.2554 44.8545 33.5949 44.8836 33.8082 45.097L36.6304 47.9192L38.4731 46.0765L35.6509 43.2446C35.4375 43.0313 35.4084 42.6821 35.583 42.4397C36.4655 41.1886 37.0474 39.7823 37.3093 38.2694C37.3578 37.9688 37.6196 37.7457 37.93 37.7457H41.9257V35.1369H37.93C37.6196 35.1369 37.3578 34.9138 37.3093 34.6132C37.0474 33.1002 36.4655 31.7037 35.583 30.4429C35.4084 30.1907 35.4375 29.8513 35.6509 29.6379L38.4731 26.806L36.6304 24.9634L33.8082 27.7856C33.5949 27.9989 33.2554 28.028 33.0033 27.8535C31.7619 26.9903 30.3168 26.389 28.8233 26.1272C28.5227 26.0787 28.2996 25.8168 28.2996 25.5065V21.5108H25.6908V25.5065C25.6908 25.8168 25.4677 26.069 25.1671 26.1272C23.6832 26.389 22.2382 26.9903 20.9968 27.8535C20.7446 28.028 20.4052 27.9989 20.1918 27.7856L17.3696 24.9634L15.527 26.806L18.3395 29.6282C18.5528 29.8416 18.5819 30.181 18.4074 30.4332C17.5248 31.7134 16.9429 33.1196 16.6811 34.6132C16.6326 34.9138 16.3707 35.1369 16.0604 35.1369H12.0647V37.7457H16.0604C16.3707 37.7457 16.6326 37.9688 16.6811 38.2694C16.9429 39.7532 17.5345 41.1886 18.4074 42.4397C18.5819 42.6918 18.5528 43.0313 18.3395 43.2446L15.5173 46.0668L17.3502 47.9192L20.1821 45.097C20.3955 44.8836 20.7349 44.8545 20.9871 45.0291C22.2285 45.8923 23.6735 46.4935 25.1574 46.7554C25.458 46.8039 25.6811 47.0754 25.6811 47.3761V51.3815H25.6908Z" fill="#FF0042"/>
<path d="M26.9902 43.8653C22.8976 43.8653 19.571 40.5388 19.571 36.4461C19.571 32.3535 22.8976 29.0269 26.9902 29.0269C31.0829 29.0269 34.3997 32.3535 34.3997 36.4461C34.3997 40.5388 31.0732 43.8653 26.9902 43.8653ZM26.9902 30.2877C23.5958 30.2877 20.8318 33.0517 20.8318 36.4461C20.8318 39.8405 23.5958 42.6045 26.9902 42.6045C30.3846 42.6045 33.1486 39.8405 33.1486 36.4461C33.1486 33.0517 30.3846 30.2877 26.9902 30.2877Z" fill="#FF0042"/>
<path d="M26.9903 39.9569C25.0604 39.9569 23.4893 38.3858 23.4893 36.4461C23.4893 34.5065 25.0604 32.945 26.9903 32.945C28.9203 32.945 30.5011 34.5162 30.5011 36.4461C30.5011 38.3761 28.93 39.9569 26.9903 39.9569ZM26.9903 34.2155C25.7587 34.2155 24.75 35.2144 24.75 36.4558C24.75 37.6972 25.749 38.7058 26.9903 38.7058C28.2317 38.7058 29.2403 37.6972 29.2403 36.4558C29.2403 35.2144 28.2317 34.2155 26.9903 34.2155Z" fill="#FF0042"/>
</g>
<defs>
<clipPath id="clip0_696_258">
<rect width="54" height="76.8007" fill="white"/>
</clipPath>
</defs>
</svg>
