<svg width="54" height="37" viewBox="0 0 54 37" fill="none" xmlns="http://www.w3.org/2000/svg">
<g clip-path="url(#clip0_696_161)">
<path d="M10.0359 10.2064H0.443462C0.197852 10.2064 0 10.0086 0 9.76298V0.443462C0 0.197852 0.197852 0 0.443462 0H10.0359C10.2815 0 10.4793 0.197852 10.4793 0.443462V9.76298C10.4793 10.0086 10.2815 10.2064 10.0359 10.2064ZM0.886924 9.31952H9.59242V0.886923H0.886924V9.31952Z" fill="black"/>
<path d="M10.0359 36.5003H0.443462C0.197852 36.5003 0 36.3025 0 36.0568V26.7373C0 26.4917 0.197852 26.2939 0.443462 26.2939H10.0359C10.2815 26.2939 10.4793 26.4917 10.4793 26.7373V36.0568C10.4793 36.3025 10.2815 36.5003 10.0359 36.5003ZM0.886924 35.6134H9.59242V27.1808H0.886924V35.6134Z" fill="black"/>
<path d="M53.5566 10.2064H43.971C43.7254 10.2064 43.5276 10.0086 43.5276 9.76298V0.443462C43.5276 0.197852 43.7254 0 43.971 0H53.5566C53.8023 0 54.0001 0.197852 54.0001 0.443462V9.76298C54.0001 10.0086 53.8023 10.2064 53.5566 10.2064ZM44.4077 9.31952H53.1064V0.886923H44.4077V9.31952Z" fill="black"/>
<path d="M53.5566 36.5003H43.971C43.7254 36.5003 43.5276 36.3025 43.5276 36.0568V26.7373C43.5276 26.4917 43.7254 26.2939 43.971 26.2939H53.5566C53.8023 26.2939 54.0001 26.4917 54.0001 26.7373V36.0568C54.0001 36.3025 53.8023 36.5003 53.5566 36.5003ZM44.4077 35.6134H53.1064V27.1808H44.4077V35.6134Z" fill="black"/>
<path d="M17.8203 13.2697H5.24644C5.00083 13.2697 4.80298 13.0719 4.80298 12.8263V9.76298C4.80298 9.51737 5.00083 9.31952 5.24644 9.31952C5.49205 9.31952 5.6899 9.51737 5.6899 9.76298V12.3828H17.8203C18.0659 12.3828 18.2637 12.5807 18.2637 12.8263C18.2637 13.0719 18.0659 13.2697 17.8203 13.2697Z" fill="black"/>
<path d="M5.24644 27.174C5.00083 27.174 4.80298 26.9761 4.80298 26.7305V23.3193C4.80298 23.0737 5.00083 22.8758 5.24644 22.8758H17.8203C18.0659 22.8758 18.2637 23.0737 18.2637 23.3193C18.2637 23.5649 18.0659 23.7627 17.8203 23.7627H5.6899V26.7305C5.6899 26.9761 5.49205 27.174 5.24644 27.174Z" fill="black"/>
<path d="M48.7604 13.0582H36.173C35.9273 13.0582 35.7295 12.8604 35.7295 12.6148C35.7295 12.3692 35.9273 12.1713 36.173 12.1713H48.317V9.7698C48.317 9.52419 48.5148 9.32634 48.7604 9.32634C49.0061 9.32634 49.2039 9.52419 49.2039 9.7698V12.6148C49.2039 12.8604 49.0061 13.0582 48.7604 13.0582Z" fill="black"/>
<path d="M48.7604 27.174C48.5148 27.174 48.317 26.9761 48.317 26.7305V23.8378H36.173C35.9273 23.8378 35.7295 23.6399 35.7295 23.3943C35.7295 23.1487 35.9273 22.9509 36.173 22.9509H48.7604C49.0061 22.9509 49.2039 23.1487 49.2039 23.3943V26.7305C49.2039 26.9761 49.0061 27.174 48.7604 27.174Z" fill="black"/>
<path d="M22.8826 16.7833C21.6 16.7833 20.5562 15.7395 20.5562 14.4569C20.5562 13.1742 21.6 12.1372 22.8826 12.1372C24.1653 12.1372 25.2091 13.181 25.2091 14.4569C25.2091 15.7327 24.1653 16.7833 22.8826 16.7833ZM22.8826 13.0241C22.0912 13.0241 21.4499 13.6654 21.4499 14.4569C21.4499 15.2483 22.0912 15.8964 22.8826 15.8964C23.674 15.8964 24.3153 15.2483 24.3153 14.4569C24.3153 13.6654 23.674 13.0241 22.8826 13.0241Z" fill="#FF0042"/>
<path d="M17.8203 15.4529H15.9169C15.6712 15.4529 15.4734 15.2551 15.4734 15.0095C15.4734 14.7639 15.6712 14.566 15.9169 14.566H17.8203C18.0659 14.566 18.2638 14.7639 18.2638 15.0095C18.2638 15.2551 18.0659 15.4529 17.8203 15.4529Z" fill="#FF0042"/>
<path d="M17.8203 17.0767H15.9169C15.6712 17.0767 15.4734 16.8788 15.4734 16.6332C15.4734 16.3876 15.6712 16.1898 15.9169 16.1898H17.8203C18.0659 16.1898 18.2638 16.3876 18.2638 16.6332C18.2638 16.8788 18.0659 17.0767 17.8203 17.0767Z" fill="#FF0042"/>
<path d="M17.8203 18.6936H15.9169C15.6712 18.6936 15.4734 18.4958 15.4734 18.2502C15.4734 18.0046 15.6712 17.8067 15.9169 17.8067H17.8203C18.0659 17.8067 18.2638 18.0046 18.2638 18.2502C18.2638 18.4958 18.0659 18.6936 17.8203 18.6936Z" fill="#FF0042"/>
<path d="M17.8203 20.3106H15.9169C15.6712 20.3106 15.4734 20.1127 15.4734 19.8671C15.4734 19.6215 15.6712 19.4236 15.9169 19.4236H17.8203C18.0659 19.4236 18.2638 19.6215 18.2638 19.8671C18.2638 20.1127 18.0659 20.3106 17.8203 20.3106Z" fill="#FF0042"/>
<path d="M17.8203 21.9275H15.9169C15.6712 21.9275 15.4734 21.7296 15.4734 21.484C15.4734 21.2384 15.6712 21.0406 15.9169 21.0406H17.8203C18.0659 21.0406 18.2638 21.2384 18.2638 21.484C18.2638 21.7296 18.0659 21.9275 17.8203 21.9275Z" fill="#FF0042"/>
<path d="M38.0901 15.4529H36.173C35.9273 15.4529 35.7295 15.2551 35.7295 15.0095C35.7295 14.7639 35.9273 14.566 36.173 14.566H38.0901C38.3357 14.566 38.5335 14.7639 38.5335 15.0095C38.5335 15.2551 38.3357 15.4529 38.0901 15.4529Z" fill="#FF0042"/>
<path d="M38.0901 17.0767H36.173C35.9273 17.0767 35.7295 16.8788 35.7295 16.6332C35.7295 16.3876 35.9273 16.1898 36.173 16.1898H38.0901C38.3357 16.1898 38.5335 16.3876 38.5335 16.6332C38.5335 16.8788 38.3357 17.0767 38.0901 17.0767Z" fill="#FF0042"/>
<path d="M38.0901 18.6936H36.173C35.9273 18.6936 35.7295 18.4958 35.7295 18.2502C35.7295 18.0046 35.9273 17.8067 36.173 17.8067H38.0901C38.3357 17.8067 38.5335 18.0046 38.5335 18.2502C38.5335 18.4958 38.3357 18.6936 38.0901 18.6936Z" fill="#FF0042"/>
<path d="M38.0901 20.3106H36.173C35.9273 20.3106 35.7295 20.1127 35.7295 19.8671C35.7295 19.6215 35.9273 19.4236 36.173 19.4236H38.0901C38.3357 19.4236 38.5335 19.6215 38.5335 19.8671C38.5335 20.1127 38.3357 20.3106 38.0901 20.3106Z" fill="#FF0042"/>
<path d="M38.0901 21.9275H36.173C35.9273 21.9275 35.7295 21.7296 35.7295 21.484C35.7295 21.2384 35.9273 21.0406 36.173 21.0406H38.0901C38.3357 21.0406 38.5335 21.2384 38.5335 21.484C38.5335 21.7296 38.3357 21.9275 38.0901 21.9275Z" fill="#FF0042"/>
<path d="M7.68893 3.02236H2.79039C2.54478 3.02236 2.34692 2.82451 2.34692 2.5789C2.34692 2.33329 2.54478 2.13544 2.79039 2.13544H7.68893C7.93454 2.13544 8.13239 2.33329 8.13239 2.5789C8.13239 2.82451 7.93454 3.02236 7.68893 3.02236Z" fill="black"/>
<path d="M7.68893 5.54668H2.79039C2.54478 5.54668 2.34692 5.34883 2.34692 5.10322C2.34692 4.85761 2.54478 4.65976 2.79039 4.65976H7.68893C7.93454 4.65976 8.13239 4.85761 8.13239 5.10322C8.13239 5.34883 7.93454 5.54668 7.68893 5.54668Z" fill="black"/>
<path d="M7.68883 8.06418H6.69957C6.45396 8.06418 6.2561 7.86633 6.2561 7.62072C6.2561 7.37511 6.45396 7.17726 6.69957 7.17726H7.68883C7.93444 7.17726 8.13229 7.37511 8.13229 7.62072C8.13229 7.86633 7.93444 8.06418 7.68883 8.06418Z" fill="black"/>
<path d="M4.8576 8.06418H2.79039C2.54478 8.06418 2.34692 7.86633 2.34692 7.62072C2.34692 7.37511 2.54478 7.17726 2.79039 7.17726H4.8576C5.10321 7.17726 5.30106 7.37511 5.30106 7.62072C5.30106 7.86633 5.10321 8.06418 4.8576 8.06418Z" fill="black"/>
<path d="M7.68893 29.3162H2.79039C2.54478 29.3162 2.34692 29.1184 2.34692 28.8728C2.34692 28.6272 2.54478 28.4293 2.79039 28.4293H7.68893C7.93454 28.4293 8.13239 28.6272 8.13239 28.8728C8.13239 29.1184 7.93454 29.3162 7.68893 29.3162Z" fill="black"/>
<path d="M7.68893 31.8337H2.79039C2.54478 31.8337 2.34692 31.6359 2.34692 31.3903C2.34692 31.1447 2.54478 30.9468 2.79039 30.9468H7.68893C7.93454 30.9468 8.13239 31.1447 8.13239 31.3903C8.13239 31.6359 7.93454 31.8337 7.68893 31.8337Z" fill="black"/>
<path d="M7.68883 34.3649H6.69957C6.45396 34.3649 6.2561 34.167 6.2561 33.9214C6.2561 33.6758 6.45396 33.478 6.69957 33.478H7.68883C7.93444 33.478 8.13229 33.6758 8.13229 33.9214C8.13229 34.167 7.93444 34.3649 7.68883 34.3649Z" fill="black"/>
<path d="M4.8576 34.3649H2.79039C2.54478 34.3649 2.34692 34.167 2.34692 33.9214C2.34692 33.6758 2.54478 33.478 2.79039 33.478H4.8576C5.10321 33.478 5.30106 33.6758 5.30106 33.9214C5.30106 34.167 5.10321 34.3649 4.8576 34.3649Z" fill="black"/>
<path d="M51.2165 29.3162H46.3111C46.0655 29.3162 45.8677 29.1184 45.8677 28.8728C45.8677 28.6272 46.0655 28.4293 46.3111 28.4293H51.2165C51.4621 28.4293 51.66 28.6272 51.66 28.8728C51.66 29.1184 51.4621 29.3162 51.2165 29.3162Z" fill="black"/>
<path d="M51.2165 31.8337H46.3111C46.0655 31.8337 45.8677 31.6359 45.8677 31.3903C45.8677 31.1447 46.0655 30.9468 46.3111 30.9468H51.2165C51.4621 30.9468 51.66 31.1447 51.66 31.3903C51.66 31.6359 51.4621 31.8337 51.2165 31.8337Z" fill="black"/>
<path d="M51.2164 34.3649H50.2203C49.9747 34.3649 49.7769 34.167 49.7769 33.9214C49.7769 33.6758 49.9747 33.478 50.2203 33.478H51.2164C51.462 33.478 51.6599 33.6758 51.6599 33.9214C51.6599 34.167 51.462 34.3649 51.2164 34.3649Z" fill="black"/>
<path d="M48.3783 34.3649H46.3043C46.0587 34.3649 45.8608 34.167 45.8608 33.9214C45.8608 33.6758 46.0587 33.478 46.3043 33.478H48.3783C48.6239 33.478 48.8218 33.6758 48.8218 33.9214C48.8218 34.167 48.6239 34.3649 48.3783 34.3649Z" fill="black"/>
<path d="M51.2165 3.02236H46.3111C46.0655 3.02236 45.8677 2.82451 45.8677 2.5789C45.8677 2.33329 46.0655 2.13544 46.3111 2.13544H51.2165C51.4621 2.13544 51.66 2.33329 51.66 2.5789C51.66 2.82451 51.4621 3.02236 51.2165 3.02236Z" fill="black"/>
<path d="M51.2165 5.54668H46.3111C46.0655 5.54668 45.8677 5.34883 45.8677 5.10322C45.8677 4.85761 46.0655 4.65976 46.3111 4.65976H51.2165C51.4621 4.65976 51.66 4.85761 51.66 5.10322C51.66 5.34883 51.4621 5.54668 51.2165 5.54668Z" fill="black"/>
<path d="M51.2164 8.06418H50.2203C49.9747 8.06418 49.7769 7.86633 49.7769 7.62072C49.7769 7.37511 49.9747 7.17726 50.2203 7.17726H51.2164C51.462 7.17726 51.6599 7.37511 51.6599 7.62072C51.6599 7.86633 51.462 8.06418 51.2164 8.06418Z" fill="black"/>
<path d="M48.3783 8.06418H46.3043C46.0587 8.06418 45.8608 7.86633 45.8608 7.62072C45.8608 7.37511 46.0587 7.17726 46.3043 7.17726H48.3783C48.6239 7.17726 48.8218 7.37511 48.8218 7.62072C48.8218 7.86633 48.6239 8.06418 48.3783 8.06418Z" fill="black"/>
<path d="M36.1729 26.7578H17.8204C17.5748 26.7578 17.377 26.5599 17.377 26.3143V10.1791C17.377 9.93354 17.5748 9.73569 17.8204 9.73569H36.1729C36.4185 9.73569 36.6164 9.93354 36.6164 10.1791V26.3143C36.6164 26.5599 36.4185 26.7578 36.1729 26.7578ZM18.2639 25.8709H35.7294V10.6226H18.2639V25.8709Z" fill="#FF0042"/>
</g>
<defs>
<clipPath id="clip0_696_161">
<rect width="54" height="36.5003" fill="white"/>
</clipPath>
</defs>
</svg>
