<svg width="54" height="39" viewBox="0 0 54 39" fill="none" xmlns="http://www.w3.org/2000/svg">
<g clip-path="url(#clip0_696_210)">
<path d="M34.0033 26.4713H20.3924C20.1468 26.4713 19.949 26.2734 19.949 26.0278V12.4101C19.949 12.1645 20.1468 11.9666 20.3924 11.9666H34.0033C34.2489 11.9666 34.4468 12.1645 34.4468 12.4101V26.0278C34.4468 26.2734 34.2489 26.4713 34.0033 26.4713ZM20.8359 25.5843H33.5598V12.8536H20.8359V25.5843Z" fill="#FF0042"/>
<path d="M15.3302 12.3419H11.38C11.1344 12.3419 10.9365 12.144 10.9365 11.8984V5.2465C10.9365 5.00089 11.1344 4.80304 11.38 4.80304C11.6256 4.80304 11.8234 5.00089 11.8234 5.2465V11.455H15.3302C15.5758 11.455 15.7737 11.6528 15.7737 11.8984C15.7737 12.144 15.5758 12.3419 15.3302 12.3419Z" fill="black"/>
<path d="M15.3302 17.063H3.1793C2.93369 17.063 2.73584 16.8652 2.73584 16.6196V11.8234C2.73584 11.5778 2.93369 11.3799 3.1793 11.3799C3.42491 11.3799 3.62276 11.5778 3.62276 11.8234V16.1761H15.3302C15.5758 16.1761 15.7736 16.374 15.7736 16.6196C15.7736 16.8652 15.5758 17.063 15.3302 17.063Z" fill="black"/>
<path d="M3.0294 26.9761C2.78379 26.9761 2.58594 26.7783 2.58594 26.5327V21.4158C2.58594 21.1702 2.78379 20.9723 3.0294 20.9723H15.3303C15.576 20.9723 15.7738 21.1702 15.7738 21.4158C15.7738 21.6614 15.576 21.8593 15.3303 21.8593H3.47286V26.5258C3.47286 26.7715 3.27501 26.9693 3.0294 26.9693V26.9761Z" fill="black"/>
<path d="M11.5367 33.628C11.2911 33.628 11.0933 33.4302 11.0933 33.1846V26.4508C11.0933 26.2052 11.2911 26.0073 11.5367 26.0073H15.33C15.5756 26.0073 15.7735 26.2052 15.7735 26.4508C15.7735 26.6964 15.5756 26.8942 15.33 26.8942H11.9802V33.1778C11.9802 33.4234 11.7823 33.6212 11.5367 33.6212V33.628Z" fill="black"/>
<path d="M42.7975 12.3419H38.8541C38.6085 12.3419 38.4106 12.144 38.4106 11.8984C38.4106 11.6528 38.6085 11.455 38.8541 11.455H42.354V5.2465C42.354 5.00089 42.5519 4.80304 42.7975 4.80304C43.0431 4.80304 43.241 5.00089 43.241 5.2465V11.8984C43.241 12.144 43.0431 12.3419 42.7975 12.3419Z" fill="black"/>
<path d="M50.9981 17.063H38.8541C38.6085 17.063 38.4106 16.8652 38.4106 16.6196C38.4106 16.374 38.6085 16.1761 38.8541 16.1761H50.5547V11.8234C50.5547 11.5778 50.7525 11.3799 50.9981 11.3799C51.2437 11.3799 51.4416 11.5778 51.4416 11.8234V16.6196C51.4416 16.8652 51.2437 17.063 50.9981 17.063Z" fill="black"/>
<path d="M51.1551 26.9761C50.9094 26.9761 50.7116 26.7783 50.7116 26.5327V21.8661H38.8541C38.6085 21.8661 38.4106 21.6682 38.4106 21.4226C38.4106 21.177 38.6085 20.9792 38.8541 20.9792H51.1551C51.4007 20.9792 51.5985 21.177 51.5985 21.4226V26.5395C51.5985 26.7851 51.4007 26.9829 51.1551 26.9829V26.9761Z" fill="black"/>
<path d="M42.6474 33.628C42.4018 33.628 42.2039 33.4302 42.2039 33.1846V26.9011H38.8541C38.6085 26.9011 38.4106 26.7032 38.4106 26.4576C38.4106 26.212 38.6085 26.0141 38.8541 26.0141H42.6474C42.893 26.0141 43.0909 26.212 43.0909 26.4576V33.1914C43.0909 33.437 42.893 33.6349 42.6474 33.6349V33.628Z" fill="black"/>
<path d="M19.3077 35.7157C19.0621 35.7157 18.8643 35.5179 18.8643 35.2723V31.2675C18.8643 31.0219 19.0621 30.824 19.3077 30.824C19.5533 30.824 19.7512 31.0219 19.7512 31.2675V35.2723C19.7512 35.5179 19.5533 35.7157 19.3077 35.7157Z" fill="black"/>
<path d="M24.5677 35.7157C24.3221 35.7157 24.1243 35.5179 24.1243 35.2723V31.2675C24.1243 31.0219 24.3221 30.824 24.5677 30.824C24.8133 30.824 25.0112 31.0219 25.0112 31.2675V35.2723C25.0112 35.5179 24.8133 35.7157 24.5677 35.7157Z" fill="black"/>
<path d="M29.828 35.7157C29.5824 35.7157 29.3845 35.5179 29.3845 35.2723V31.2675C29.3845 31.0219 29.5824 30.824 29.828 30.824C30.0736 30.824 30.2714 31.0219 30.2714 31.2675V35.2723C30.2714 35.5179 30.0736 35.7157 29.828 35.7157Z" fill="black"/>
<path d="M35.088 35.7157C34.8424 35.7157 34.6445 35.5179 34.6445 35.2723V31.2675C34.6445 31.0219 34.8424 30.824 35.088 30.824C35.3336 30.824 35.5315 31.0219 35.5315 31.2675V35.2723C35.5315 35.5179 35.3336 35.7157 35.088 35.7157Z" fill="black"/>
<path d="M19.3077 7.81857C19.0621 7.81857 18.8643 7.62072 18.8643 7.37511V3.37031C18.8643 3.1247 19.0621 2.92685 19.3077 2.92685C19.5533 2.92685 19.7512 3.1247 19.7512 3.37031V7.37511C19.7512 7.62072 19.5533 7.81857 19.3077 7.81857Z" fill="black"/>
<path d="M24.5677 7.81857C24.3221 7.81857 24.1243 7.62072 24.1243 7.37511V3.37031C24.1243 3.1247 24.3221 2.92685 24.5677 2.92685C24.8133 2.92685 25.0112 3.1247 25.0112 3.37031V7.37511C25.0112 7.62072 24.8133 7.81857 24.5677 7.81857Z" fill="black"/>
<path d="M29.828 7.81857C29.5824 7.81857 29.3845 7.62072 29.3845 7.37511V3.37031C29.3845 3.1247 29.5824 2.92685 29.828 2.92685C30.0736 2.92685 30.2714 3.1247 30.2714 3.37031V7.37511C30.2714 7.62072 30.0736 7.81857 29.828 7.81857Z" fill="black"/>
<path d="M35.088 7.81857C34.8424 7.81857 34.6445 7.62072 34.6445 7.37511V3.37031C34.6445 3.1247 34.8424 2.92685 35.088 2.92685C35.3336 2.92685 35.5315 3.1247 35.5315 3.37031V7.37511C35.5315 7.62072 35.3336 7.81857 35.088 7.81857Z" fill="black"/>
<path d="M31.7108 19.9285C31.4652 19.9285 31.2674 19.7306 31.2674 19.485V15.1391H26.8941C26.6485 15.1391 26.4507 14.9413 26.4507 14.6956C26.4507 14.45 26.6485 14.2522 26.8941 14.2522H31.7108C31.9564 14.2522 32.1543 14.45 32.1543 14.6956V19.485C32.1543 19.7306 31.9564 19.9285 31.7108 19.9285Z" fill="#FF0042"/>
<path d="M11.3801 5.68996C9.8178 5.68996 8.54199 4.41415 8.54199 2.84498C8.54199 1.27581 9.81098 0 11.3801 0C12.9493 0 14.2251 1.27581 14.2251 2.84498C14.2251 4.41415 12.9493 5.68996 11.3801 5.68996ZM11.3801 0.886924C10.3022 0.886924 9.42892 1.76702 9.42892 2.83816C9.42892 3.90929 10.3022 4.79621 11.3801 4.79621C12.4581 4.79621 13.3382 3.91611 13.3382 2.83816C13.3382 1.7602 12.4581 0.886924 11.3801 0.886924Z" fill="black"/>
<path d="M3.17946 12.2668C1.61029 12.2668 0.341309 10.991 0.341309 9.41503C0.341309 7.83904 1.61711 6.57005 3.17946 6.57005C4.74181 6.57005 6.02444 7.84586 6.02444 9.41503C6.02444 10.9842 4.74864 12.2668 3.17946 12.2668ZM3.17946 7.4638C2.10151 7.4638 1.22823 8.3439 1.22823 9.41503C1.22823 10.4862 2.10151 11.3799 3.17946 11.3799C4.25742 11.3799 5.13752 10.4998 5.13752 9.41503C5.13752 8.33026 4.25742 7.4638 3.17946 7.4638Z" fill="black"/>
<path d="M2.84498 32.1203C1.27581 32.1203 0 30.8445 0 29.2753C0 27.7061 1.27581 26.4235 2.84498 26.4235C4.41415 26.4235 5.68996 27.6993 5.68996 29.2753C5.68996 30.8513 4.41415 32.1203 2.84498 32.1203ZM2.84498 27.3172C1.76702 27.3172 0.886924 28.1973 0.886924 29.2821C0.886924 30.3669 1.76702 31.2402 2.84498 31.2402C3.92293 31.2402 4.79621 30.3601 4.79621 29.2821C4.79621 28.2042 3.91611 27.3172 2.84498 27.3172Z" fill="black"/>
<path d="M11.5369 38.4311C9.9677 38.4311 8.69189 37.1553 8.69189 35.5861C8.69189 34.0169 9.9677 32.7411 11.5369 32.7411C13.106 32.7411 14.375 34.0169 14.375 35.5861C14.375 37.1553 13.0992 38.4311 11.5369 38.4311ZM11.5369 33.628C10.4589 33.628 9.57882 34.5081 9.57882 35.5861C9.57882 36.664 10.4589 37.5441 11.5369 37.5441C12.6148 37.5441 13.4881 36.664 13.4881 35.5861C13.4881 34.5081 12.6148 33.628 11.5369 33.628Z" fill="black"/>
<path d="M42.6475 38.4311C41.0783 38.4311 39.8025 37.1553 39.8025 35.5861C39.8025 34.0169 41.0783 32.7411 42.6475 32.7411C44.2166 32.7411 45.4856 34.0169 45.4856 35.5861C45.4856 37.1553 44.2098 38.4311 42.6475 38.4311ZM42.6475 33.628C41.5695 33.628 40.6894 34.5081 40.6894 35.5861C40.6894 36.664 41.5695 37.5441 42.6475 37.5441C43.7254 37.5441 44.5987 36.664 44.5987 35.5861C44.5987 34.5081 43.7254 33.628 42.6475 33.628Z" fill="black"/>
<path d="M51.155 31.7791C49.5859 31.7791 48.3101 30.5033 48.3101 28.9273C48.3101 27.3514 49.5859 26.0824 51.155 26.0824C52.7242 26.0824 53.9932 27.3582 53.9932 28.9273C53.9932 30.4965 52.7174 31.7791 51.155 31.7791ZM51.155 26.9761C50.0771 26.9761 49.197 27.8562 49.197 28.9273C49.197 29.9985 50.0771 30.8922 51.155 30.8922C52.233 30.8922 53.1063 30.0121 53.1063 28.9273C53.1063 27.8426 52.233 26.9761 51.155 26.9761Z" fill="black"/>
<path d="M42.7974 5.68996C41.2282 5.68996 39.9592 4.41415 39.9592 2.84498C39.9592 1.27581 41.235 0 42.7974 0C44.3597 0 45.6424 1.27581 45.6424 2.84498C45.6424 4.41415 44.3666 5.68996 42.7974 5.68996ZM42.7974 0.886924C41.7194 0.886924 40.8462 1.76702 40.8462 2.83816C40.8462 3.90929 41.7194 4.79621 42.7974 4.79621C43.8753 4.79621 44.7554 3.91611 44.7554 2.83816C44.7554 1.7602 43.8753 0.886924 42.7974 0.886924Z" fill="black"/>
<path d="M50.9981 12.2668C49.4289 12.2668 48.1599 10.991 48.1599 9.41503C48.1599 7.83904 49.4357 6.57005 50.9981 6.57005C52.5604 6.57005 53.843 7.84586 53.843 9.41503C53.843 10.9842 52.5672 12.2668 50.9981 12.2668ZM50.9981 7.4638C49.9201 7.4638 49.0468 8.3439 49.0468 9.41503C49.0468 10.4862 49.9201 11.3799 50.9981 11.3799C52.076 11.3799 52.9561 10.4998 52.9561 9.41503C52.9561 8.33026 52.076 7.4638 50.9981 7.4638Z" fill="black"/>
<path d="M38.8064 31.2675H15.5895C15.3438 31.2675 15.146 31.0696 15.146 30.824V7.60708C15.146 7.36147 15.3438 7.16362 15.5895 7.16362H38.8064C39.052 7.16362 39.2498 7.36147 39.2498 7.60708V30.824C39.2498 31.0696 39.052 31.2675 38.8064 31.2675ZM16.0329 30.3805H38.3629V8.05054H16.0329V30.3805Z" fill="#FF0042"/>
</g>
<defs>
<clipPath id="clip0_696_210">
<rect width="54" height="38.4311" fill="white"/>
</clipPath>
</defs>
</svg>
