<svg width="54" height="44" viewBox="0 0 54 44" fill="none" xmlns="http://www.w3.org/2000/svg">
<g clip-path="url(#clip0_696_112)">
<path d="M34.2557 39.4408H3.04966C2.80405 39.4408 2.6062 39.243 2.6062 38.9973V18.0455C2.6062 17.7999 2.80405 17.602 3.04966 17.602H30.0531C30.2987 17.602 30.4965 17.7999 30.4965 18.0455V21.791H34.2626C34.5082 21.791 34.706 21.9889 34.706 22.2345V39.0042C34.706 39.2498 34.5082 39.4476 34.2626 39.4476L34.2557 39.4408ZM3.49312 38.5471H33.8123V22.6643H30.0463C29.8006 22.6643 29.6028 22.4665 29.6028 22.2208V18.4753H3.49312V38.5402V38.5471Z" fill="black"/>
<path d="M34.9243 43.2682H2.37423C1.06431 43.2682 0 42.1971 0 40.8872V39.5159C0 38.9701 0.443462 38.5198 0.989261 38.5198H36.3093C36.8551 38.5198 37.2985 38.9701 37.2985 39.5159V40.8872C37.2985 42.1971 36.2342 43.2682 34.9243 43.2682ZM0.989261 39.3999C0.934681 39.3999 0.886924 39.4476 0.886924 39.509V40.8804C0.886924 41.7059 1.55553 42.3745 2.37423 42.3745H34.9243C35.743 42.3745 36.4116 41.7059 36.4116 40.8804V39.509C36.4116 39.4476 36.3639 39.3999 36.3093 39.3999H0.989261Z" fill="black"/>
<path d="M18.6527 42.4359C17.7999 42.4359 17.104 41.74 17.104 40.8872C17.104 40.0344 17.7999 39.3453 18.6527 39.3453C19.5055 39.3453 20.2014 40.0344 20.2014 40.8872C20.2014 41.74 19.5055 42.4359 18.6527 42.4359ZM18.6527 40.2322C18.2843 40.2322 17.9909 40.5256 17.9909 40.8872C17.9909 41.2488 18.2843 41.549 18.6527 41.549C19.0211 41.549 19.3145 41.2488 19.3145 40.8872C19.3145 40.5256 19.0211 40.2322 18.6527 40.2322Z" fill="black"/>
<path d="M31.3562 16.3399C31.1106 16.3399 30.9128 16.1352 30.9196 15.8896L31.0151 7.79128C31.0151 7.70259 31.0492 7.60708 31.097 7.53203L34.6106 2.70171C34.7538 2.50386 35.0267 2.4561 35.2314 2.60619C35.4293 2.74946 35.4702 3.02919 35.3269 3.22704L31.8952 7.94138L31.7997 15.8964C31.7997 16.142 31.6019 16.333 31.3562 16.333V16.3399Z" fill="#FF0042"/>
<path d="M32.7958 16.067C32.7412 16.067 32.6798 16.0533 32.6252 16.0328C32.4001 15.9373 32.2909 15.6781 32.3865 15.4529L35.17 8.71914C35.1905 8.66456 35.2314 8.60998 35.2724 8.56904L39.5637 4.46873C39.6388 4.4005 39.7343 4.35274 39.8366 4.34592L43.548 4.05256C43.7868 4.03891 44.0052 4.2163 44.0256 4.4619C44.0461 4.70751 43.8619 4.91901 43.6163 4.93948L40.0618 5.2192L35.9546 9.14213L33.2052 15.7872C33.1369 15.9578 32.9664 16.0601 32.7958 16.0601V16.067Z" fill="#FF0042"/>
<path d="M34.4537 16.1488C34.3786 16.1488 34.3036 16.1284 34.2353 16.0874C34.0238 15.9646 33.9488 15.6917 34.0716 15.4802L37.1485 10.1587C37.1758 10.1109 37.2099 10.07 37.2509 10.0359L40.9146 7.0681C40.9896 7.0067 41.0851 6.97259 41.1806 6.97259L49.6132 6.77473C49.6132 6.77473 49.6201 6.77473 49.6269 6.77473C49.8657 6.77473 50.0635 6.96576 50.0703 7.20455C50.0703 7.45016 49.8793 7.65484 49.6405 7.66166L41.358 7.85951L37.8786 10.684L34.8425 15.9373C34.7607 16.0806 34.6106 16.1625 34.4605 16.1625L34.4537 16.1488Z" fill="#FF0042"/>
<path d="M43.5821 11.223C43.5821 11.223 43.5617 11.223 43.5549 11.223L37.5033 10.8273C37.2577 10.8136 37.0735 10.6021 37.0871 10.3565C37.1008 10.1109 37.3327 9.92672 37.5579 9.94036L43.6094 10.3361C43.855 10.3497 44.0393 10.5612 44.0256 10.8068C44.012 11.0388 43.8141 11.223 43.5821 11.223Z" fill="#FF0042"/>
<path d="M36.4594 17.8954C36.2888 17.8954 36.1319 17.7999 36.0569 17.6361C35.9545 17.411 36.0569 17.1517 36.282 17.0494L43.4524 13.8292C43.5002 13.8087 43.5548 13.7951 43.6093 13.7882L50.8275 13.3994C51.08 13.3994 51.2846 13.5768 51.2915 13.8155C51.3051 14.0612 51.1141 14.2726 50.8753 14.2795L43.739 14.6615L36.6436 17.8476C36.5822 17.8749 36.5208 17.8886 36.4594 17.8886V17.8954Z" fill="#FF0042"/>
<path d="M40.4027 20.8632H36.4593C36.2137 20.8632 36.0159 20.6653 36.0159 20.4197C36.0159 20.1741 36.2137 19.9762 36.4593 19.9762H40.3004L45.3831 17.4315C45.6015 17.3223 45.8675 17.411 45.9767 17.6293C46.0859 17.8476 45.9972 18.1137 45.7788 18.2229L40.6074 20.8154C40.546 20.8427 40.4778 20.8632 40.4096 20.8632H40.4027Z" fill="#FF0042"/>
<path d="M41.9992 22.5074C41.8696 22.5074 41.7468 22.4528 41.6649 22.3505L40.1981 20.6449C40.0412 20.4606 40.0616 20.1809 40.2459 20.0172C40.4301 19.8603 40.7098 19.8807 40.8735 20.0649L42.2039 21.6136L44.4349 21.5659C44.4349 21.5659 44.4349 21.5659 44.4417 21.5659C44.6805 21.5659 44.8783 21.7569 44.8851 22.0025C44.8851 22.2481 44.6941 22.4528 44.4553 22.4528L42.0197 22.5074C42.0197 22.5074 42.0197 22.5074 42.0129 22.5074H41.9992Z" fill="#FF0042"/>
<path d="M36.4594 22.637H30.0462C29.8006 22.637 29.6028 22.4392 29.6028 22.1936V15.6985C29.6028 15.4529 29.8006 15.2551 30.0462 15.2551H36.4594C36.705 15.2551 36.9028 15.4529 36.9028 15.6985V22.1936C36.9028 22.4392 36.705 22.637 36.4594 22.637ZM30.4897 21.7501H36.0159V16.142H30.4897V21.7501Z" fill="#FF0042"/>
<path d="M34.4332 20.5903H32.0658C31.8202 20.5903 31.6223 20.3924 31.6223 20.1468V17.7453C31.6223 17.4997 31.8202 17.3018 32.0658 17.3018H34.4332C34.6788 17.3018 34.8766 17.4997 34.8766 17.7453V20.1468C34.8766 20.3924 34.6788 20.5903 34.4332 20.5903ZM32.5092 19.7033H33.9897V18.1888H32.5092V19.7033Z" fill="#FF0042"/>
<path d="M26.1847 21.8456H11.107C10.8614 21.8456 10.6636 21.6478 10.6636 21.4021C10.6636 21.1565 10.8614 20.9587 11.107 20.9587H26.1847C26.4303 20.9587 26.6282 21.1565 26.6282 21.4021C26.6282 21.6478 26.4303 21.8456 26.1847 21.8456Z" fill="black"/>
<path d="M13.5563 25.4069H11.1139C10.8683 25.4069 10.6704 25.2091 10.6704 24.9635C10.6704 24.7179 10.8683 24.52 11.1139 24.52H13.5563C13.8019 24.52 13.9998 24.7179 13.9998 24.9635C13.9998 25.2091 13.8019 25.4069 13.5563 25.4069Z" fill="black"/>
<path d="M17.3155 28.9683H11.107C10.8614 28.9683 10.6636 28.7704 10.6636 28.5248C10.6636 28.2792 10.8614 28.0814 11.107 28.0814H17.3155C17.5611 28.0814 17.759 28.2792 17.759 28.5248C17.759 28.7704 17.5611 28.9683 17.3155 28.9683Z" fill="black"/>
<path d="M26.1847 32.516H22.9713C22.7257 32.516 22.5278 32.3181 22.5278 32.0725C22.5278 31.8269 22.7257 31.6291 22.9713 31.6291H26.1847C26.4303 31.6291 26.6281 31.8269 26.6281 32.0725C26.6281 32.3181 26.4303 32.516 26.1847 32.516Z" fill="black"/>
<path d="M26.1847 36.0773H11.107C10.8614 36.0773 10.6636 35.8795 10.6636 35.6339C10.6636 35.3882 10.8614 35.1904 11.107 35.1904H26.1847C26.4303 35.1904 26.6282 35.3882 26.6282 35.6339C26.6282 35.8795 26.4303 36.0773 26.1847 36.0773Z" fill="black"/>
<path d="M26.1848 25.4069H16.9676C16.722 25.4069 16.5242 25.2091 16.5242 24.9635C16.5242 24.7179 16.722 24.52 16.9676 24.52H26.1848C26.4304 24.52 26.6283 24.7179 26.6283 24.9635C26.6283 25.2091 26.4304 25.4069 26.1848 25.4069Z" fill="black"/>
<path d="M26.1847 28.9683H20.7335C20.4879 28.9683 20.29 28.7704 20.29 28.5248C20.29 28.2792 20.4879 28.0814 20.7335 28.0814H26.1847C26.4303 28.0814 26.6281 28.2792 26.6281 28.5248C26.6281 28.7704 26.4303 28.9683 26.1847 28.9683Z" fill="black"/>
<path d="M14.7639 32.516H11.107C10.8614 32.516 10.6636 32.3181 10.6636 32.0725C10.6636 31.8269 10.8614 31.6291 11.107 31.6291H14.7639C15.0095 31.6291 15.2074 31.8269 15.2074 32.0725C15.2074 32.3181 15.0095 32.516 14.7639 32.516Z" fill="black"/>
<path d="M19.9148 32.516H17.8885C17.6429 32.516 17.4451 32.3181 17.4451 32.0725C17.4451 31.8269 17.6429 31.6291 17.8885 31.6291H19.9148C20.1604 31.6291 20.3583 31.8269 20.3583 32.0725C20.3583 32.3181 20.1604 32.516 19.9148 32.516Z" fill="black"/>
<path d="M35.627 3.6705C34.6173 3.6705 33.7986 2.8518 33.7986 1.83525C33.7986 0.818699 34.6173 0 35.627 0C36.6367 0 37.4554 0.825521 37.4554 1.83525C37.4554 2.84498 36.6367 3.6705 35.627 3.6705ZM35.627 0.886924C35.1085 0.886924 34.6855 1.30992 34.6855 1.83525C34.6855 2.36058 35.1085 2.78358 35.627 2.78358C36.1455 2.78358 36.5685 2.36058 36.5685 1.83525C36.5685 1.30992 36.1455 0.886924 35.627 0.886924Z" fill="#FF0042"/>
<path d="M44.9124 6.20164C43.9095 6.20164 43.0908 5.38294 43.0908 4.37321C43.0908 3.36348 43.9095 2.53796 44.9124 2.53796C45.9153 2.53796 46.7477 3.35666 46.7477 4.37321C46.7477 5.38976 45.9222 6.20164 44.9124 6.20164ZM44.9124 3.42489C44.3939 3.42489 43.9777 3.84788 43.9777 4.37321C43.9777 4.89854 44.4007 5.31472 44.9124 5.31472C45.4241 5.31472 45.8608 4.89172 45.8608 4.37321C45.8608 3.8547 45.4378 3.42489 44.9124 3.42489Z" fill="#FF0042"/>
<path d="M51.0118 9.0398C50.002 9.0398 49.1833 8.21428 49.1833 7.20455C49.1833 6.19482 50.002 5.37612 51.0118 5.37612C52.0215 5.37612 52.8402 6.19482 52.8402 7.20455C52.8402 8.21428 52.0215 9.0398 51.0118 9.0398ZM51.0118 6.26987C50.4933 6.26987 50.0703 6.69286 50.0703 7.21137C50.0703 7.72988 50.4933 8.15287 51.0118 8.15287C51.5303 8.15287 51.9533 7.72988 51.9533 7.21137C51.9533 6.69286 51.5303 6.26987 51.0118 6.26987Z" fill="#FF0042"/>
<path d="M44.9603 12.6011C43.9505 12.6011 43.1318 11.7824 43.1318 10.7727C43.1318 9.76298 43.9505 8.93746 44.9603 8.93746C45.97 8.93746 46.7955 9.76298 46.7955 10.7727C46.7955 11.7824 45.9768 12.6011 44.9603 12.6011ZM44.9603 9.83121C44.4418 9.83121 44.0188 10.2542 44.0188 10.7795C44.0188 11.3049 44.4418 11.721 44.9603 11.721C45.4788 11.721 45.9086 11.298 45.9086 10.7795C45.9086 10.261 45.4856 9.83121 44.9603 9.83121Z" fill="#FF0042"/>
<path d="M46.7068 18.8983C45.6971 18.8983 44.8784 18.0796 44.8784 17.0699C44.8784 16.0601 45.6971 15.2346 46.7068 15.2346C47.7166 15.2346 48.5353 16.0601 48.5353 17.0699C48.5353 18.0796 47.7166 18.8983 46.7068 18.8983ZM46.7068 16.1284C46.1883 16.1284 45.7653 16.5514 45.7653 17.0699C45.7653 17.5884 46.1883 18.0114 46.7068 18.0114C47.2254 18.0114 47.6483 17.5884 47.6483 17.0699C47.6483 16.5514 47.2254 16.1284 46.7068 16.1284Z" fill="#FF0042"/>
<path d="M45.813 23.7286C44.8033 23.7286 43.9778 22.9031 43.9778 21.8934C43.9778 20.8836 44.7965 20.0718 45.813 20.0718C46.8296 20.0718 47.6415 20.8905 47.6415 21.8934C47.6415 22.8963 46.8228 23.7286 45.813 23.7286ZM45.813 20.9587C45.2945 20.9587 44.8647 21.3817 44.8647 21.8934C44.8647 22.4051 45.2877 22.8417 45.813 22.8417C46.3384 22.8417 46.7545 22.4187 46.7545 21.8934C46.7545 21.368 46.3315 20.9587 45.813 20.9587Z" fill="#FF0042"/>
<path d="M52.1717 15.2687C51.162 15.2687 50.3433 14.4432 50.3433 13.4335C50.3433 12.4237 51.162 11.5982 52.1717 11.5982C53.1814 11.5982 54.0001 12.4237 54.0001 13.4335C54.0001 14.4432 53.1814 15.2687 52.1717 15.2687ZM52.1717 12.492C51.6532 12.492 51.2302 12.915 51.2302 13.4403C51.2302 13.9656 51.6532 14.3886 52.1717 14.3886C52.6902 14.3886 53.1132 13.9656 53.1132 13.4403C53.1132 12.915 52.6902 12.492 52.1717 12.492Z" fill="#FF0042"/>
</g>
<defs>
<clipPath id="clip0_696_112">
<rect width="54" height="43.2682" fill="white"/>
</clipPath>
</defs>
</svg>
