<svg width="54" height="52" viewBox="0 0 54 52" fill="none" xmlns="http://www.w3.org/2000/svg">
<g clip-path="url(#clip0_696_85)">
<path d="M38.8131 51.5234H20.4538C19.485 51.5234 18.6936 50.7388 18.6936 49.7769V45.0489C18.6936 39.8774 17.4451 34.7128 15.0777 30.1008C14.9685 29.8825 15.0504 29.6164 15.2687 29.5004C15.487 29.3913 15.7531 29.4732 15.8623 29.6915C18.2911 34.4263 19.5805 39.7342 19.5805 45.0421V49.7701C19.5805 50.2476 19.9694 50.6297 20.447 50.6297H38.8063C39.2839 50.6297 39.6659 50.2408 39.6659 49.7701V45.1649C39.6659 44.9193 39.8638 44.7214 40.1094 44.7214H45.2399C47.0547 44.7214 48.5283 43.2478 48.5283 41.433V34.9039C48.5283 34.6651 48.7194 34.4672 48.965 34.4604L51.9601 34.4058C52.3626 34.399 52.7242 34.1875 52.9357 33.8395C53.1403 33.4916 53.154 33.0618 52.963 32.707L49.6813 26.5258C48.9172 25.0931 48.5147 23.4762 48.5147 21.8456C48.5147 15.2687 44.8647 9.35363 38.9905 6.39949C38.7722 6.29033 38.6835 6.02426 38.7927 5.80594C38.9018 5.58762 39.1679 5.49893 39.3862 5.60809C45.5606 8.71232 49.3948 14.9276 49.3948 21.8456C49.3948 23.3261 49.7632 24.7997 50.4523 26.1097L53.7339 32.2908C54.0682 32.9253 54.0477 33.6758 53.6793 34.2898C53.3177 34.9039 52.6696 35.2791 51.9601 35.2927L49.4016 35.3405V41.433C49.4016 43.739 47.5254 45.6083 45.2263 45.6083H40.5392V49.7701C40.5392 50.732 39.7546 51.5166 38.7927 51.5166L38.8131 51.5234Z" fill="black"/>
<path d="M31.0695 20.3447H14.484C14.2384 20.3447 14.0405 20.1468 14.0405 19.9012V6.01744C14.0405 5.77183 14.2384 5.57397 14.484 5.57397H31.0695C31.3151 5.57397 31.5129 5.77183 31.5129 6.01744V19.9012C31.5129 20.1468 31.3151 20.3447 31.0695 20.3447ZM14.9275 19.4577H30.626V6.4609H14.9275V19.4577Z" fill="#FF0042"/>
<path d="M28.0267 14.8594C27.7811 14.8594 27.5833 14.6615 27.5833 14.4159V8.58951C27.5833 8.3439 27.7811 8.14605 28.0267 8.14605C28.2723 8.14605 28.4702 8.3439 28.4702 8.58951V14.4159C28.4702 14.6615 28.2723 14.8594 28.0267 14.8594Z" fill="#FF0042"/>
<path d="M28.0268 9.00568H17.527C17.2813 9.00568 17.0835 8.80783 17.0835 8.56222C17.0835 8.31661 17.2813 8.11876 17.527 8.11876H28.0268C28.2724 8.11876 28.4702 8.31661 28.4702 8.56222C28.4702 8.80783 28.2724 9.00568 28.0268 9.00568Z" fill="#FF0042"/>
<path d="M16.7765 4.57107C16.5309 4.57107 16.333 4.37322 16.333 4.12761V0.443462C16.333 0.197852 16.5309 0 16.7765 0C17.0221 0 17.2199 0.197852 17.2199 0.443462V4.12761C17.2199 4.37322 17.0221 4.57107 16.7765 4.57107Z" fill="#FF0042"/>
<path d="M22.7735 4.57107C22.5279 4.57107 22.3301 4.37322 22.3301 4.12761V0.443462C22.3301 0.197852 22.5279 0 22.7735 0C23.0192 0 23.217 0.197852 23.217 0.443462V4.12761C23.217 4.37322 23.0192 4.57107 22.7735 4.57107Z" fill="#FF0042"/>
<path d="M28.7704 4.57107C28.5248 4.57107 28.3269 4.37322 28.3269 4.12761V0.443462C28.3269 0.197852 28.5248 0 28.7704 0C29.016 0 29.2138 0.197852 29.2138 0.443462V4.12761C29.2138 4.37322 29.016 4.57107 28.7704 4.57107Z" fill="#FF0042"/>
<path d="M36.8073 7.40922H33.5189C33.2733 7.40922 33.0754 7.21137 33.0754 6.96576C33.0754 6.72015 33.2733 6.5223 33.5189 6.5223H36.8073C37.053 6.5223 37.2508 6.72015 37.2508 6.96576C37.2508 7.21137 37.053 7.40922 36.8073 7.40922Z" fill="#FF0042"/>
<path d="M36.8073 13.4062H33.5189C33.2733 13.4062 33.0754 13.2083 33.0754 12.9627C33.0754 12.7171 33.2733 12.5193 33.5189 12.5193H36.8073C37.053 12.5193 37.2508 12.7171 37.2508 12.9627C37.2508 13.2083 37.053 13.4062 36.8073 13.4062Z" fill="#FF0042"/>
<path d="M36.8073 19.4032H33.5189C33.2733 19.4032 33.0754 19.2053 33.0754 18.9597C33.0754 18.7141 33.2733 18.5162 33.5189 18.5162H36.8073C37.053 18.5162 37.2508 18.7141 37.2508 18.9597C37.2508 19.2053 37.053 19.4032 36.8073 19.4032Z" fill="#FF0042"/>
<path d="M28.7704 26.096C28.5248 26.096 28.3269 25.8982 28.3269 25.6526V21.9752C28.3269 21.7296 28.5248 21.5318 28.7704 21.5318C29.016 21.5318 29.2138 21.7296 29.2138 21.9752V25.6526C29.2138 25.8982 29.016 26.096 28.7704 26.096Z" fill="#FF0042"/>
<path d="M16.7765 26.096C16.5309 26.096 16.333 25.8982 16.333 25.6526V21.9752C16.333 21.7296 16.5309 21.5318 16.7765 21.5318C17.0221 21.5318 17.2199 21.7296 17.2199 21.9752V25.6526C17.2199 25.8982 17.0221 26.096 16.7765 26.096Z" fill="#FF0042"/>
<path d="M12.3012 19.4032H8.73301C8.4874 19.4032 8.28955 19.2053 8.28955 18.9597C8.28955 18.7141 8.4874 18.5162 8.73301 18.5162H12.3012C12.5468 18.5162 12.7446 18.7141 12.7446 18.9597C12.7446 19.2053 12.5468 19.4032 12.3012 19.4032Z" fill="#FF0042"/>
<path d="M7.38881 14.3682C7.33423 14.3682 7.28647 14.3613 7.23872 14.3409L4.59841 13.3721C4.36645 13.2902 4.25047 13.031 4.33234 12.8058C4.41421 12.5738 4.67346 12.4579 4.8986 12.5397L7.32741 13.4267L9.8722 11.7756C9.96771 11.7142 10.0837 11.6869 10.1929 11.7142L14.5592 12.5193C14.798 12.5602 14.9618 12.7922 14.914 13.0378C14.8663 13.2766 14.6411 13.4403 14.3955 13.3925L10.2065 12.6148L7.6276 14.2931C7.55255 14.3409 7.47068 14.3682 7.38881 14.3682Z" fill="#FF0042"/>
<path d="M12.3012 7.40922H8.73301C8.4874 7.40922 8.28955 7.21137 8.28955 6.96576C8.28955 6.72015 8.4874 6.5223 8.73301 6.5223H12.3012C12.5468 6.5223 12.7446 6.72015 12.7446 6.96576C12.7446 7.21137 12.5468 7.40922 12.3012 7.40922Z" fill="#FF0042"/>
<path d="M24.6086 33.9351C23.1759 33.9351 22.0093 32.7684 22.0093 31.3357C22.0093 29.903 23.1759 28.7363 24.6086 28.7363C26.0414 28.7363 27.208 29.903 27.208 31.3357C27.208 32.7684 26.0414 33.9351 24.6086 33.9351ZM24.6086 29.6232C23.6671 29.6232 22.8962 30.3942 22.8962 31.3357C22.8962 32.2772 23.6603 33.0481 24.6086 33.0481C25.557 33.0481 26.3211 32.2772 26.3211 31.3357C26.3211 30.3942 25.557 29.6232 24.6086 29.6232Z" fill="#FF0042"/>
<path d="M2.59937 15.5621C1.16665 15.5621 0 14.3954 0 12.9627C0 11.53 1.16665 10.3634 2.59937 10.3634C4.03209 10.3634 5.19874 11.53 5.19874 12.9627C5.19874 14.3954 4.03209 15.5621 2.59937 15.5621ZM2.59937 11.2435C1.65786 11.2435 0.886924 12.0144 0.886924 12.9559C0.886924 13.8974 1.65104 14.6683 2.59937 14.6683C3.54769 14.6683 4.31181 13.8974 4.31181 12.9559C4.31181 12.0144 3.54769 11.2435 2.59937 11.2435Z" fill="#FF0042"/>
<path d="M24.8339 29.4595C24.8339 29.4595 24.7793 29.4595 24.7588 29.4595C24.52 29.4186 24.3563 29.1866 24.3972 28.9478L24.8066 26.6077L22.9099 24.5814C22.8349 24.4996 22.7871 24.3904 22.7871 24.2744L22.8144 20.1877C22.8144 19.9421 23.0123 19.7443 23.2579 19.7443C23.5035 19.7443 23.7013 19.949 23.7013 20.1946L23.674 24.1038L25.6048 26.1642C25.7003 26.2666 25.7412 26.4098 25.7208 26.5463L25.2705 29.1047C25.2296 29.3231 25.0454 29.4731 24.8339 29.4731V29.4595Z" fill="#FF0042"/>
<path d="M17.3155 14.8594C17.0699 14.8594 16.8721 14.6615 16.8721 14.4159V8.58951C16.8721 8.3439 17.0699 8.14605 17.3155 8.14605C17.5611 8.14605 17.759 8.3439 17.759 8.58951V14.4159C17.759 14.6615 17.5611 14.8594 17.3155 14.8594Z" fill="#FF0042"/>
<path d="M26.1302 17.1586H19.4169C19.1712 17.1586 18.9734 16.9607 18.9734 16.7151C18.9734 16.4695 19.1712 16.2716 19.4169 16.2716H26.1302C26.3758 16.2716 26.5736 16.4695 26.5736 16.7151C26.5736 16.9607 26.3758 17.1586 26.1302 17.1586Z" fill="#FF0042"/>
</g>
<defs>
<clipPath id="clip0_696_85">
<rect width="54" height="51.5234" fill="white"/>
</clipPath>
</defs>
</svg>
