<svg width="54" height="64" viewBox="0 0 54 64" fill="none" xmlns="http://www.w3.org/2000/svg">
<g clip-path="url(#clip0_696_305)">
<path d="M33.9734 63.1755H9.66224C8.42553 63.1755 7.42022 62.1702 7.42022 60.9255V54.6782C7.42022 47.8564 5.76064 41.0027 2.61702 34.859C0.933514 31.5479 0.0478761 27.9654 3.78829e-06 24.2234C-0.063826 17.7846 2.36968 11.7287 6.86171 7.16489C11.3457 2.59308 17.3457 0.0558511 23.7686 0H23.9681C37.1809 0 47.9362 10.7553 47.9362 23.9681C47.9362 25.9468 48.4229 27.9096 49.3484 29.6489L53.6888 37.8351C54.1197 38.641 54.1037 39.5904 53.641 40.3883C53.1702 41.1862 52.3404 41.6808 51.4069 41.6968L47.9441 41.7606V49.8989C47.9441 52.9069 45.4947 55.3484 42.4947 55.3484H36.2234V60.9255C36.2234 62.1622 35.2181 63.1755 33.9734 63.1755ZM23.9761 1.03723H23.7846C17.641 1.08511 11.8883 3.51862 7.60373 7.88298C3.31117 12.2553 0.973408 18.0559 1.03724 24.2074C1.08511 27.7979 1.92288 31.2207 3.54256 34.3963C6.75798 40.6835 8.46543 47.6968 8.46543 54.6862V60.9335C8.46543 61.6037 9.00798 62.1463 9.67022 62.1463H33.9734C34.6436 62.1463 35.1862 61.6037 35.1862 60.9335V54.8378C35.1862 54.5505 35.4176 54.3191 35.7048 54.3191H42.4947C44.9282 54.3191 46.9149 52.3404 46.9149 49.9069V41.258C46.9149 40.9787 47.1383 40.7473 47.4255 40.7394L51.391 40.6676C51.9575 40.6516 52.4601 40.3564 52.7473 39.8697C53.0266 39.391 53.0426 38.8165 52.7793 38.3298L48.4388 30.1436C47.4335 28.2606 46.9069 26.1223 46.9069 23.9761C46.9069 11.3298 36.6223 1.04521 23.9761 1.04521V1.03723Z" fill="black"/>
<path d="M14.5371 56.5133C14.5371 56.5133 14.5292 56.5133 14.5212 56.5133C14.2339 56.5053 14.0105 56.266 14.0185 55.9787L14.1542 51.4149C14.1542 51.3191 14.1861 51.2234 14.2419 51.1436L21.8217 39.5425C21.9175 39.3989 22.093 39.3032 22.2605 39.3112L30.6621 39.367C30.9494 39.367 31.1808 39.6064 31.1808 39.8856C31.1808 40.1729 30.9494 40.4042 30.6621 40.4042L22.5478 40.3484L15.2073 51.5904L15.0717 56.0106C15.0637 56.2899 14.8323 56.5133 14.5531 56.5133H14.5371Z" fill="#FF0042"/>
<path d="M40.9866 40.6357H35.1861C34.8989 40.6357 34.6675 40.4043 34.6675 40.117C34.6675 39.8298 34.8989 39.5984 35.1861 39.5984H40.7473L43.7393 36.0559V34.2766C43.7393 33.9894 43.9707 33.758 44.2579 33.758C44.5451 33.758 44.7765 33.9894 44.7765 34.2766V36.2474C44.7765 36.367 44.7366 36.4867 44.6568 36.5825L41.3856 40.4521C41.2898 40.5718 41.1382 40.6357 40.9866 40.6357Z" fill="#FF0042"/>
<path d="M32.9122 42.9096C31.3723 42.9096 30.1196 41.6569 30.1196 40.117C30.1196 38.5771 31.3723 37.3165 32.9122 37.3165C34.4521 37.3165 35.7127 38.5692 35.7127 40.117C35.7127 41.6649 34.4601 42.9096 32.9122 42.9096ZM32.9122 38.3617C31.9388 38.3617 31.1489 39.1516 31.1489 40.125C31.1489 41.0984 31.9388 41.8803 32.9122 41.8803C33.8856 41.8803 34.6755 41.0904 34.6755 40.125C34.6755 39.1596 33.8856 38.3617 32.9122 38.3617Z" fill="#FF0042"/>
<path d="M14.3618 61.0612C12.8219 61.0612 11.5613 59.8085 11.5613 58.2606C11.5613 56.7128 12.8139 55.4601 14.3618 55.4601C15.9097 55.4601 17.1464 56.7128 17.1464 58.2606C17.1464 59.8085 15.8937 61.0612 14.3618 61.0612ZM14.3618 56.5053C13.3884 56.5053 12.5985 57.2952 12.5985 58.2686C12.5985 59.242 13.3884 60.0319 14.3618 60.0319C15.3352 60.0319 16.1092 59.242 16.1092 58.2686C16.1092 57.2952 15.3272 56.5053 14.3618 56.5053Z" fill="#FF0042"/>
<path d="M44.2261 34.7952C42.6863 34.7952 41.4336 33.5425 41.4336 31.9947C41.4336 30.4468 42.6863 29.2021 44.2261 29.2021C45.766 29.2021 47.0267 30.4548 47.0267 31.9947C47.0267 33.5346 45.774 34.7952 44.2261 34.7952ZM44.2261 30.2473C43.2527 30.2473 42.4628 31.0292 42.4628 31.9947C42.4628 32.9601 43.2527 33.758 44.2261 33.758C45.1996 33.758 45.9894 32.9681 45.9894 31.9947C45.9894 31.0213 45.1996 30.2473 44.2261 30.2473Z" fill="#FF0042"/>
<path d="M32.7607 26.0984C32.6729 26.0984 32.5772 26.0745 32.4974 26.0266L27.782 23.2021C27.5346 23.0585 27.4548 22.7394 27.6064 22.492C27.7501 22.2447 28.0692 22.1649 28.3166 22.3165L33.032 25.141C33.2793 25.2846 33.3591 25.6037 33.2075 25.8511C33.1118 26.0106 32.9362 26.1064 32.7607 26.1064V26.0984Z" fill="#FF0042"/>
<path d="M30.1595 28.7793H24.5904C24.3032 28.7793 24.0718 28.5479 24.0718 28.2606C24.0718 27.9734 24.3032 27.742 24.5904 27.742H29.9361L32.2819 25.3324L33.3351 20.1782C33.3909 19.8989 33.6702 19.7154 33.9494 19.7713C34.2287 19.8271 34.4122 20.0984 34.3564 20.3856L33.2712 25.6835C33.2553 25.7793 33.2074 25.867 33.1356 25.9388L30.5345 28.6117C30.4388 28.7154 30.3032 28.7713 30.1595 28.7713V28.7793Z" fill="#FF0042"/>
<path d="M26.1623 24.2713C24.6225 24.2713 23.3618 23.0186 23.3618 21.4707C23.3618 19.9229 24.6145 18.6782 26.1623 18.6782C27.7102 18.6782 28.9549 19.9309 28.9549 21.4707C28.9549 23.0106 27.7022 24.2713 26.1623 24.2713ZM26.1623 19.7234C25.1889 19.7234 24.399 20.5133 24.399 21.4787C24.399 22.4441 25.1889 23.242 26.1623 23.242C27.1358 23.242 27.9256 22.4521 27.9256 21.4787C27.9256 20.5053 27.1358 19.7234 26.1623 19.7234Z" fill="#FF0042"/>
<path d="M34.3005 20.7447C32.7606 20.7447 31.5 19.492 31.5 17.9521C31.5 16.4122 32.7527 15.1596 34.3005 15.1596C35.8484 15.1596 37.0851 16.4122 37.0851 17.9521C37.0851 19.492 35.8324 20.7447 34.3005 20.7447ZM34.3005 16.1888C33.3271 16.1888 32.5372 16.9787 32.5372 17.9442C32.5372 18.9096 33.3271 19.6995 34.3005 19.6995C35.2739 19.6995 36.0479 18.9096 36.0479 17.9442C36.0479 16.9787 35.266 16.1888 34.3005 16.1888Z" fill="#FF0042"/>
<path d="M22.3245 31.0532C20.7846 31.0532 19.532 29.8005 19.532 28.2606C19.532 26.7208 20.7846 25.4601 22.3245 25.4601C23.8644 25.4601 25.1091 26.7128 25.1091 28.2606C25.1091 29.8085 23.8565 31.0532 22.3245 31.0532ZM22.3245 26.4973C21.3511 26.4973 20.5692 27.2872 20.5692 28.2606C20.5692 29.234 21.3591 30.016 22.3245 30.016C23.29 30.016 24.0719 29.2261 24.0719 28.2606C24.0719 27.2952 23.29 26.4973 22.3245 26.4973Z" fill="#FF0042"/>
<path d="M17.3698 36.0239C17.0905 36.0239 16.8591 35.8005 16.8511 35.5213L16.7155 29.5851L13.149 27.4628C12.9017 27.3191 12.8219 27 12.9655 26.7527C13.1091 26.5053 13.4283 26.4255 13.6756 26.5691L17.4894 28.8431C17.641 28.9308 17.7368 29.0984 17.7448 29.2739L17.8884 35.4973C17.8884 35.7846 17.665 36.0239 17.3857 36.0319C17.3857 36.0319 17.3777 36.0319 17.3698 36.0319V36.0239Z" fill="#FF0042"/>
<path d="M11.7528 28.2527C10.2129 28.2527 8.96021 27 8.96021 25.4521C8.96021 23.9043 10.2129 22.6596 11.7528 22.6596C13.2927 22.6596 14.5453 23.9122 14.5453 25.4521C14.5453 26.992 13.2927 28.2527 11.7528 28.2527ZM11.7528 23.6888C10.7794 23.6888 9.98946 24.4787 9.98946 25.4442C9.98946 26.4096 10.7794 27.2074 11.7528 27.2074C12.7262 27.2074 13.5161 26.4176 13.5161 25.4442C13.5161 24.4707 12.7262 23.6888 11.7528 23.6888Z" fill="#FF0042"/>
<path d="M17.2979 40.5798C15.758 40.5798 14.5054 39.3271 14.5054 37.7793C14.5054 36.2314 15.758 34.9787 17.2979 34.9787C18.8378 34.9787 20.0905 36.2314 20.0905 37.7793C20.0905 39.3271 18.8378 40.5798 17.2979 40.5798ZM17.2979 36.0239C16.3325 36.0239 15.5426 36.8138 15.5426 37.7872C15.5426 38.7606 16.3245 39.5505 17.2979 39.5505C18.2713 39.5505 19.0612 38.7606 19.0612 37.7872C19.0612 36.8138 18.2713 36.0239 17.2979 36.0239Z" fill="#FF0042"/>
<path d="M8.39362 32.8404C8.23405 32.8404 8.07447 32.7686 7.97873 32.633L5.52926 29.3218C5.46543 29.234 5.42554 29.1223 5.42554 29.0027L5.56915 18.2872C5.56915 18.1356 5.63298 18 5.75266 17.9043L18.383 7.0532C18.4787 6.97341 18.5984 6.92554 18.7181 6.92554L33.5904 7.06915C33.7261 7.06915 33.8537 7.12501 33.9495 7.22075L39.9974 13.1729C40.2048 13.3723 40.2048 13.6995 39.9974 13.9069C39.7979 14.1144 39.4708 14.1144 39.2633 13.9069L33.367 8.10639L18.9016 7.97075L6.59043 18.5426L6.44681 28.8511L8.79256 32.0266C8.96011 32.258 8.91224 32.5851 8.68086 32.7527C8.58511 32.8245 8.48139 32.8564 8.36969 32.8564L8.39362 32.8404Z" fill="#FF0042"/>
<path d="M12.9495 18.8058H6.09577C5.80853 18.8058 5.57715 18.5745 5.57715 18.2872C5.57715 18 5.80853 17.7686 6.09577 17.7686H12.9575C13.2447 17.7686 13.4761 18 13.4761 18.2872C13.4761 18.5745 13.2447 18.8058 12.9575 18.8058H12.9495Z" fill="#FF0042"/>
<path d="M40.9627 18.1915C39.4228 18.1915 38.1702 16.9388 38.1702 15.391C38.1702 13.8431 39.4228 12.5984 40.9627 12.5984C42.5026 12.5984 43.7553 13.8511 43.7553 15.391C43.7553 16.9309 42.5026 18.1915 40.9627 18.1915ZM40.9627 13.6357C39.9973 13.6357 39.2074 14.4255 39.2074 15.391C39.2074 16.3564 39.9973 17.1543 40.9627 17.1543C41.9281 17.1543 42.718 16.3644 42.718 15.391C42.718 14.4176 41.9281 13.6357 40.9627 13.6357Z" fill="#FF0042"/>
<path d="M15.2952 21.0479C13.7553 21.0479 12.4946 19.7952 12.4946 18.2473C12.4946 16.6995 13.7473 15.4468 15.2952 15.4468C16.843 15.4468 18.0877 16.6995 18.0877 18.2473C18.0877 19.7952 16.8351 21.0479 15.2952 21.0479ZM15.2952 16.492C14.3218 16.492 13.5319 17.2819 13.5319 18.2553C13.5319 19.2287 14.3218 20.0186 15.2952 20.0186C16.2686 20.0186 17.0585 19.2287 17.0585 18.2553C17.0585 17.2819 16.2686 16.492 15.2952 16.492Z" fill="#FF0042"/>
<path d="M9.67016 37.109C8.13027 37.109 6.86963 35.8564 6.86963 34.3085C6.86963 32.7606 8.12229 31.516 9.67016 31.516C11.218 31.516 12.4547 32.7686 12.4547 34.3085C12.4547 35.8484 11.2021 37.109 9.67016 37.109ZM9.67016 32.5532C8.69676 32.5532 7.90686 33.3431 7.90686 34.3085C7.90686 35.2739 8.69676 36.0718 9.67016 36.0718C10.6436 36.0718 11.4175 35.2819 11.4175 34.3085C11.4175 33.3351 10.6356 32.5532 9.67016 32.5532Z" fill="#FF0042"/>
<path d="M23.266 52.2846C23.1384 52.2846 23.0187 52.2367 22.915 52.1489C22.6996 51.9574 22.6836 51.6303 22.8831 51.4149L26.1783 47.7846C26.274 47.6808 26.4017 47.625 26.5373 47.617L29.7527 47.4734C30.048 47.4814 30.2793 47.6808 30.2953 47.9681C30.3113 48.2553 30.0879 48.4947 29.8006 48.5106L26.8006 48.6463L23.649 52.117C23.5453 52.2287 23.4097 52.2846 23.266 52.2846Z" fill="#FF0042"/>
<path d="M32.0505 50.9761C30.5106 50.9761 29.25 49.7234 29.25 48.1835C29.25 46.6436 30.5027 45.391 32.0505 45.391C33.5984 45.391 34.8431 46.6436 34.8431 48.1835C34.8431 49.7234 33.5904 50.9761 32.0505 50.9761ZM32.0505 46.4282C31.0771 46.4282 30.2872 47.2101 30.2872 48.1835C30.2872 49.1569 31.0771 49.9388 32.0505 49.9388C33.0239 49.9388 33.8138 49.1489 33.8138 48.1835C33.8138 47.2181 33.0239 46.4282 32.0505 46.4282Z" fill="#FF0042"/>
<path d="M21.5825 56.0745C20.0426 56.0745 18.782 54.8218 18.782 53.2819C18.782 51.742 20.0346 50.4814 21.5825 50.4814C23.1304 50.4814 24.3671 51.734 24.3671 53.2819C24.3671 54.8298 23.1144 56.0745 21.5825 56.0745ZM21.5825 51.5266C20.6091 51.5266 19.8192 52.3165 19.8192 53.2899C19.8192 54.2633 20.6091 55.0452 21.5825 55.0452C22.5559 55.0452 23.3299 54.2633 23.3299 53.2899C23.3299 52.3165 22.5479 51.5266 21.5825 51.5266Z" fill="#FF0042"/>
</g>
<defs>
<clipPath id="clip0_696_305">
<rect width="54" height="63.1755" fill="white"/>
</clipPath>
</defs>
</svg>
