<svg width="64" height="64" viewBox="0 0 64 64" fill="none" xmlns="http://www.w3.org/2000/svg">
<path fill-rule="evenodd" clip-rule="evenodd" d="M46.3134 27.936C46.0428 33.6333 42.9694 39.0827 37.6668 42.1427C35.4874 43.4051 33.0581 44.1752 30.5494 44.3987C30.3731 44.4115 30.201 44.4593 30.0433 44.5392C29.8856 44.6192 29.7453 44.7297 29.6307 44.8644C29.5161 44.9991 29.4295 45.1552 29.3758 45.3237C29.3221 45.4922 29.3025 45.6697 29.318 45.8458C29.3336 46.022 29.384 46.1933 29.4664 46.3497C29.5488 46.5062 29.6615 46.6447 29.798 46.7572C29.9344 46.8697 30.0919 46.9539 30.2612 47.005C30.4305 47.0561 30.6082 47.073 30.7841 47.0547C33.6799 46.7972 36.4842 45.9088 39.0001 44.452C45.1174 40.92 48.6641 34.636 48.9774 28.064C48.9944 27.7107 48.8704 27.3652 48.6326 27.1034C48.3948 26.8416 48.0627 26.685 47.7094 26.668C47.3562 26.651 47.0106 26.7751 46.7488 27.0129C46.487 27.2507 46.3304 27.5827 46.3134 27.936ZM13.7468 35.3653C9.30677 27.148 12.1921 16.8213 20.3334 12.1213C22.422 10.913 24.7403 10.1552 27.1392 9.89667C29.5382 9.63811 31.9647 9.8845 34.2628 10.62C34.5961 10.7149 34.9533 10.6763 35.2586 10.5124C35.5639 10.3485 35.7935 10.0721 35.8985 9.74183C36.0036 9.41158 35.9759 9.05339 35.8214 8.74318C35.6669 8.43297 35.3977 8.19511 35.0708 8.08C32.4195 7.23133 29.6201 6.94688 26.8523 7.24494C24.0846 7.543 21.4098 8.41698 19.0001 9.81067C9.60544 15.2347 6.27611 27.1507 11.4001 36.6333C11.5681 36.9445 11.8528 37.1762 12.1916 37.2775C12.5304 37.3788 12.8956 37.3413 13.2068 37.1733C13.518 37.0054 13.7497 36.7207 13.8509 36.3818C13.9522 36.043 13.9147 35.6765 13.7468 35.3653Z" fill="#FF0042"/>
<path fill-rule="evenodd" clip-rule="evenodd" d="M23.6667 17.8933C21.2177 19.3086 19.4308 21.6384 18.6987 24.3706C17.9667 27.1028 18.3494 30.0138 19.7627 32.464C21.178 34.913 23.5078 36.6999 26.24 37.432C28.9722 38.164 31.8832 37.7813 34.3334 36.368C36.7824 34.9527 38.5693 32.6229 39.3014 29.8907C40.0334 27.1585 39.6507 24.2475 38.2374 21.7973C36.8221 19.3483 34.4923 17.5614 31.7601 16.8293C29.0279 16.0973 26.1169 16.48 23.6667 17.8933ZM25 20.2027C26.8378 19.1433 29.0209 18.8566 31.0699 19.4056C33.1188 19.9546 34.8661 21.2944 35.928 23.1307C36.9878 24.9685 37.2748 27.152 36.7257 29.2012C36.1767 31.2505 34.8367 32.9981 33 34.06C31.162 35.1197 28.9785 35.4064 26.9292 34.8571C24.8799 34.3079 23.1324 32.9675 22.0707 31.1307C21.0114 29.2927 20.725 27.1095 21.2742 25.0605C21.8235 23.0116 23.1635 21.2643 25 20.2027ZM34.2494 43.6533C34.0597 43.7141 33.8861 43.8166 33.7411 43.9532C33.5961 44.0898 33.4836 44.2571 33.4116 44.4428C33.3396 44.6285 33.3101 44.828 33.3252 45.0266C33.3403 45.2252 33.3996 45.4179 33.4987 45.5907L41.048 58.6667C41.7603 59.8816 42.9242 60.7655 44.2858 61.1255C45.6474 61.4855 47.0961 61.2923 48.3157 60.5881C49.5354 59.8839 50.427 58.7259 50.796 57.3667C51.165 56.0076 50.9815 54.5576 50.2854 53.3333L42.7374 40.2587C42.6377 40.086 42.5006 39.9378 42.3362 39.8252C42.1717 39.7125 41.984 39.6381 41.787 39.6075C41.59 39.577 41.3887 39.591 41.1978 39.6485C41.0069 39.706 40.8313 39.8056 40.684 39.94C39.7608 40.7814 38.7491 41.5204 37.6667 42.144C36.5614 42.7827 35.4174 43.2827 34.2494 43.6533ZM36.6027 45.6333C38.2532 44.9522 39.8063 44.0556 41.2214 42.9667L47.976 54.6653C48.1539 54.9687 48.27 55.3043 48.3176 55.6527C48.3653 56.0012 48.3435 56.3556 48.2536 56.6956C48.1637 57.0356 48.0075 57.3544 47.7939 57.6338C47.5803 57.9132 47.3135 58.1475 47.0089 58.3234C46.7044 58.4992 46.368 58.6131 46.0193 58.6584C45.6705 58.7037 45.3163 58.6796 44.9769 58.5875C44.6375 58.4953 44.3197 58.337 44.0417 58.1215C43.7638 57.906 43.5312 57.6377 43.3574 57.332L36.6027 45.6333ZM44.096 21.24C44.9919 20.698 45.6396 19.8266 45.9002 18.8126C46.1609 17.7985 46.0137 16.7227 45.4903 15.816C44.9668 14.9092 44.1089 14.2438 43.1004 13.9623C42.0919 13.6809 41.0134 13.806 40.096 14.3107C39.2072 14.8559 38.5664 15.7266 38.3099 16.7374C38.0535 17.7481 38.2018 18.819 38.7232 19.722C39.2446 20.6251 40.0979 21.2889 41.1014 21.5722C42.1049 21.8555 43.1794 21.7358 44.096 21.2387V21.24ZM42.7627 18.9293C42.611 19.0169 42.4435 19.0737 42.2698 19.0965C42.0962 19.1193 41.9197 19.1077 41.7505 19.0623C41.5813 19.017 41.4227 18.9387 41.2838 18.832C41.1448 18.7254 41.0283 18.5924 40.9407 18.4407C40.8532 18.2889 40.7964 18.1215 40.7735 17.9478C40.7507 17.7741 40.7623 17.5976 40.8077 17.4284C40.8531 17.2593 40.9313 17.1007 41.038 16.9617C41.1447 16.8228 41.2777 16.7062 41.4294 16.6187C41.7358 16.4418 42.0999 16.394 42.4416 16.4856C42.7833 16.5773 43.0746 16.8009 43.2514 17.1073C43.4282 17.4137 43.476 17.7778 43.3844 18.1195C43.2928 18.4612 43.0691 18.7525 42.7627 18.9293ZM24.4187 46.44C25.1415 45.6842 25.5397 44.6755 25.5281 43.6298C25.5164 42.5841 25.0958 41.5845 24.3563 40.845C23.6169 40.1056 22.6173 39.685 21.5716 39.6733C20.5259 39.6617 19.5172 40.0599 18.7614 40.7827C18.0446 41.5396 17.6514 42.5463 17.6657 43.5887C17.6799 44.6311 18.1004 45.6267 18.8376 46.3638C19.5748 47.1008 20.5706 47.5211 21.6129 47.535C22.6553 47.549 23.662 47.1557 24.4187 46.4387V46.44ZM22.5334 44.552C22.4096 44.6759 22.2626 44.7742 22.1008 44.8412C21.9391 44.9083 21.7656 44.9429 21.5905 44.9429C21.4154 44.943 21.242 44.9086 21.0801 44.8416C20.9183 44.7746 20.7713 44.6764 20.6474 44.5527C20.5235 44.4289 20.4252 44.2819 20.3581 44.1201C20.2911 43.9583 20.2565 43.7849 20.2564 43.6098C20.2564 43.4347 20.2908 43.2612 20.3578 43.0994C20.4247 42.9376 20.5229 42.7905 20.6467 42.6667C20.8969 42.4165 21.2362 42.2759 21.59 42.2759C21.9439 42.2759 22.2832 42.4165 22.5334 42.6667C22.7836 42.9168 22.9241 43.2562 22.9241 43.61C22.9241 43.9638 22.7836 44.3018 22.5334 44.552ZM50 10.132C50.8889 9.58672 51.5297 8.71601 51.7862 7.70528C52.0426 6.69455 51.8943 5.62364 51.3729 4.7206C50.8515 3.81756 49.9982 3.15372 48.9947 2.87045C47.9911 2.58718 46.9167 2.70685 46 3.20399C45.1112 3.74926 44.4704 4.61996 44.2139 5.6307C43.9575 6.64143 44.1058 7.71233 44.6272 8.61538C45.1486 9.51842 46.0019 10.1823 47.0054 10.4655C48.009 10.7488 49.0834 10.6291 50 10.132ZM48.6667 7.82266C48.515 7.9102 48.3475 7.96701 48.1738 7.98983C48.0002 8.01266 47.8237 8.00105 47.6545 7.95567C47.4853 7.91029 47.3267 7.83204 47.1878 7.72537C47.0488 7.6187 46.9323 7.48571 46.8447 7.33399C46.7572 7.18227 46.7004 7.01479 46.6775 6.84112C46.6547 6.66744 46.6663 6.49097 46.7117 6.32178C46.7571 6.15259 46.8353 5.994 46.942 5.85506C47.0487 5.71611 47.1817 5.59954 47.3334 5.51199C47.6398 5.33518 48.0039 5.28733 48.3456 5.37897C48.6873 5.47062 48.9786 5.69424 49.1554 6.00066C49.3322 6.30707 49.38 6.67117 49.2884 7.01286C49.1968 7.35455 48.9731 7.64584 48.6667 7.82266ZM12.1614 49.2667C12.8784 48.5099 13.2717 47.5032 13.2578 46.4609C13.2438 45.4185 12.8235 44.4227 12.0865 43.6855C11.3494 42.9483 10.3538 42.5278 9.31142 42.5136C8.26905 42.4994 7.26228 42.8925 6.50538 43.6093C5.79328 44.3668 5.40397 45.3717 5.4199 46.4113C5.43583 47.4508 5.85575 48.4434 6.59073 49.1787C7.32571 49.914 8.31804 50.3344 9.35757 50.3508C10.3971 50.3672 11.4022 49.9784 12.16 49.2667H12.1614ZM10.276 47.38C10.1522 47.5038 10.0051 47.602 9.84329 47.6689C9.68147 47.7359 9.50804 47.7703 9.33291 47.7703C9.15778 47.7702 8.98437 47.7356 8.8226 47.6686C8.66082 47.6015 8.51384 47.5032 8.39005 47.3793C8.26625 47.2554 8.16807 47.1084 8.10111 46.9466C8.03415 46.7847 7.99972 46.6113 7.99978 46.4362C7.99984 46.261 8.0344 46.0876 8.10147 45.9259C8.16855 45.7641 8.26683 45.6171 8.39071 45.4933C8.6409 45.2433 8.98016 45.1029 9.33385 45.1031C9.68755 45.1032 10.0267 45.2438 10.2767 45.494C10.5267 45.7442 10.6671 46.0834 10.667 46.4371C10.6669 46.7908 10.5262 47.13 10.276 47.38ZM52.6667 14.7507C51.7779 15.2959 51.137 16.1666 50.8806 17.1774C50.6242 18.1881 50.7724 19.259 51.2938 20.162C51.8152 21.0651 52.6685 21.7289 53.6721 22.0122C54.6756 22.2955 55.7501 22.1758 56.6667 21.6787C57.5555 21.1334 58.1964 20.2627 58.4528 19.2519C58.7092 18.2412 58.561 17.1703 58.0396 16.2673C57.5182 15.3642 56.6649 14.7004 55.6613 14.4171C54.6578 14.1338 53.5833 14.2535 52.6667 14.7507ZM54 17.06C54.1518 16.9724 54.3192 16.9156 54.4929 16.8928C54.6666 16.87 54.8431 16.8816 55.0122 16.927C55.1814 16.9724 55.34 17.0506 55.479 17.1573C55.6179 17.2639 55.7345 17.3969 55.822 17.5487C55.9096 17.7004 55.9664 17.8679 55.9892 18.0415C56.012 18.2152 56.0004 18.3917 55.9551 18.5609C55.9097 18.73 55.8314 18.8886 55.7248 19.0276C55.6181 19.1665 55.4851 19.2831 55.3334 19.3707C55.027 19.5475 54.6629 19.5953 54.3212 19.5037C53.9795 19.412 53.6882 19.1884 53.5114 18.882C53.3346 18.5756 53.2867 18.2115 53.3784 17.8698C53.47 17.5281 53.6936 17.2368 54 17.06ZM15.9334 53.0373C15.2106 53.7931 14.8124 54.8018 14.824 55.8475C14.8357 56.8932 15.2563 57.8928 15.9958 58.6323C16.7352 59.3717 17.7348 59.7923 18.7805 59.804C19.8262 59.8157 20.8349 59.4175 21.5907 58.6947C22.3135 57.9389 22.7117 56.9302 22.7001 55.8845C22.6884 54.8388 22.2678 53.8392 21.5283 53.0997C20.7889 52.3602 19.7893 51.9396 18.7436 51.928C17.6979 51.9163 16.6892 52.3145 15.9334 53.0373ZM17.8187 54.924C17.9426 54.8002 18.0896 54.702 18.2515 54.6351C18.4133 54.5681 18.5867 54.5337 18.7619 54.5337C18.937 54.5338 19.1104 54.5683 19.2722 54.6354C19.4339 54.7025 19.5809 54.8008 19.7047 54.9247C19.8285 55.0485 19.9267 55.1956 19.9936 55.3574C20.0606 55.5192 20.095 55.6927 20.095 55.8678C20.0949 56.0429 20.0604 56.2163 19.9933 56.3781C19.9262 56.5399 19.8279 56.6869 19.704 56.8107C19.4539 57.0607 19.1146 57.201 18.7609 57.2009C18.4072 57.2008 18.0681 57.0602 17.818 56.81C17.568 56.5598 17.4277 56.2205 17.4278 55.8668C17.4279 55.5132 17.5685 55.174 17.8187 54.924Z" fill="black"/>
<path fill-rule="evenodd" clip-rule="evenodd" d="M39.6081 16.1293L39.6241 16.1547L39.6587 16.2093L39.6747 16.232C40.1187 16.8747 40.7641 16.7973 40.7641 16.7973L40.8441 16.7653C41.1987 16.6147 42.5774 15.9387 41.9094 14.7813L41.2521 13.6427C41.0753 13.3364 41.0273 12.9725 41.1189 12.6309C41.2104 12.2894 41.4338 11.9981 41.7401 11.8213L46.3587 9.15466C46.6625 8.9766 46.8834 8.68561 46.9734 8.34522C47.0634 8.00483 47.0151 7.64265 46.8391 7.33774C46.663 7.03282 46.3735 6.80991 46.0337 6.71766C45.694 6.62541 45.3315 6.67131 45.0254 6.84533L40.4067 9.512C39.488 10.0424 38.8177 10.9161 38.5431 11.9408C38.2686 12.9655 38.4123 14.0573 38.9427 14.976L39.6001 16.1147L39.6081 16.128V16.1293ZM18.7494 42.656L18.7947 42.7L18.8081 42.7133L18.8227 42.7267L18.8401 42.74L18.8574 42.756C19.3001 43.128 19.7041 43.06 19.7041 43.06L19.7907 43.008C20.1734 42.7747 21.6401 41.776 20.6334 40.7707L19.7041 39.8413C18.9539 39.0914 17.9367 38.6702 16.8761 38.6702C15.8154 38.6702 14.7982 39.0914 14.0481 39.8413L10.2774 43.612C10.0403 43.8644 9.9108 44.1992 9.91618 44.5454C9.92155 44.8917 10.0614 45.2223 10.3062 45.4672C10.551 45.7122 10.8815 45.8523 11.2277 45.8579C11.5739 45.8635 11.9088 45.7342 12.1614 45.4973L15.9321 41.7253C16.0559 41.6014 16.2029 41.503 16.3648 41.4359C16.5267 41.3688 16.7002 41.3343 16.8754 41.3343C17.0506 41.3343 17.2241 41.3688 17.386 41.4359C17.5478 41.503 17.6949 41.6014 17.8187 41.7253L18.7494 42.656ZM42.2841 20.7653L42.9414 21.904C43.4718 22.8227 44.3455 23.493 45.3702 23.7676C46.3949 24.0421 47.4867 23.8984 48.4054 23.368L53.0241 20.7013C53.3278 20.5233 53.5488 20.2323 53.6388 19.8919C53.7288 19.5515 53.6805 19.1893 53.5044 18.8844C53.3284 18.5795 53.0389 18.3566 52.6991 18.2643C52.3593 18.1721 51.9968 18.218 51.6907 18.392L47.0721 21.0587C46.7658 21.2355 46.4019 21.2834 46.0603 21.1919C45.7188 21.1003 45.4275 20.8769 45.2507 20.5707L44.5934 19.432C43.8361 18.1213 43.4294 21.416 43.4294 21.416C42.6934 18.7493 42.0961 19.3467 42.0961 20.0827C42.0961 20.332 42.1654 20.5653 42.2841 20.7653ZM22.5467 46.4507L23.4761 47.3813C23.6003 47.505 23.699 47.652 23.7663 47.8139C23.8336 47.9758 23.8682 48.1493 23.8682 48.3247C23.8682 48.5 23.8336 48.6736 23.7663 48.8355C23.699 48.9973 23.6003 49.1443 23.4761 49.268L19.7054 53.0387C19.4625 53.2901 19.3281 53.6269 19.3312 53.9765C19.3342 54.3261 19.4744 54.6605 19.7216 54.9078C19.9688 55.155 20.3033 55.2952 20.6529 55.2982C21.0025 55.3013 21.3393 55.1669 21.5907 54.924L25.3614 51.152C25.733 50.7808 26.0278 50.3399 26.229 49.8547C26.4301 49.3694 26.5336 48.8493 26.5336 48.324C26.5336 47.7987 26.4301 47.2786 26.229 46.7933C26.0278 46.3081 25.733 45.8672 25.3614 45.496L24.4321 44.5653C23.2881 43.4227 23.4761 46.8293 23.4761 46.8293C22.7401 44.1627 22.1427 44.76 22.1427 45.496C22.1427 45.8707 22.2974 46.2093 22.5467 46.4507Z" fill="black"/>
</svg>
