<svg width="64" height="64" viewBox="0 0 64 64" fill="none" xmlns="http://www.w3.org/2000/svg">
<path d="M44.9836 55.2404L41.8159 52.0725L48.3779 45.5107L51.5457 48.6785L44.9836 55.2404Z" fill="#FF0042"/>
<path d="M38.4004 48.5184L35.2326 45.3505L38.6268 41.9565L41.7946 45.1244L38.4004 48.5184Z" fill="#FF0042"/>
<path d="M18.8044 28.6946L15.6367 25.5267L22.1987 18.9649L25.3665 22.1328L18.8044 28.6946Z" fill="#FF0042"/>
<path d="M12.219 22.4307L9.05121 19.2628L12.4454 15.8687L15.6132 19.0366L12.219 22.4307Z" fill="#FF0042"/>
<path d="M44.8 9.27999L46.7201 7.35999C48.0001 6.07999 49.92 6.07999 51.2 7.35999L56.6401 12.8C57.9201 14.08 57.9201 16 56.6401 17.28L54.7201 19.2" stroke="black" stroke-width="2.5" stroke-miterlimit="10" stroke-linecap="round" stroke-linejoin="round"/>
<path d="M42.2942 12.1174L52.0238 21.8474L21.4763 52.3938L11.7466 42.6639L42.2942 12.1174Z" stroke="black" stroke-width="2.5" stroke-miterlimit="10" stroke-linecap="round" stroke-linejoin="round"/>
<path d="M14.1426 46.5356L45.3679 15.3092L48.5358 18.477L17.3105 49.7034L14.1426 46.5356Z" fill="#FF0042"/>
<path d="M6.71997 57.28L11.52 42.56L21.44 52.48L6.71997 57.28Z" stroke="black" stroke-width="2.5" stroke-miterlimit="10" stroke-linecap="round" stroke-linejoin="round"/>
<path d="M8.31997 52.48L6.71997 57.28L11.52 55.68L8.31997 52.48Z" fill="black"/>
<path d="M55.3599 18.56L51.5199 22.08L41.9199 12.48L45.4399 8.64001" stroke="black" stroke-width="2.5" stroke-miterlimit="10" stroke-linecap="round" stroke-linejoin="round"/>
<path d="M41.6 32L56.96 47.36C57.6 48 57.6 48.96 56.96 49.6L49.28 57.28C48.64 57.92 47.68 57.92 47.04 57.28L32 41.92" stroke="black" stroke-width="2.5" stroke-miterlimit="10"/>
<path d="M22.08 32L6.71999 16.96C6.07999 16.32 6.07999 15.36 6.71999 14.72L14.4 7.04C15.04 6.4 16 6.4 16.64 7.04L31.68 22.08" stroke="black" stroke-width="2.5" stroke-miterlimit="10"/>
</svg>
