<svg width="64" height="64" viewBox="0 0 64 64" fill="none" xmlns="http://www.w3.org/2000/svg">
<path d="M51.4534 14.9867C51.4394 14.8729 51.4126 14.7611 51.3734 14.6533C51.3734 14.6533 51.3734 14.56 51.3734 14.5333C51.3191 14.3941 51.2375 14.2672 51.1334 14.16L43.6801 6.29333L43.5734 6.21333C43.491 6.13613 43.3964 6.07306 43.2934 6.02666H43.1468C43.0405 6.01382 42.9331 6.01382 42.8268 6.02666H13.8668C13.5132 6.02666 13.174 6.16714 12.924 6.41719C12.6739 6.66724 12.5334 7.00637 12.5334 7.36V56.7867C12.5334 57.1403 12.6739 57.4794 12.924 57.7295C13.174 57.9795 13.5132 58.12 13.8668 58.12H50.1334C50.4871 58.12 50.8262 57.9795 51.0763 57.7295C51.3263 57.4794 51.4668 57.1403 51.4668 56.7867V15.08C51.4668 15.08 51.4534 15.0267 51.4534 14.9867ZM44.0001 10.56L47.0268 13.7467H44.0001V10.56ZM15.2001 55.4533V8.54666H41.3334V15.08C41.3334 15.4336 41.4739 15.7728 41.724 16.0228C41.974 16.2729 42.3132 16.4133 42.6668 16.4133H48.8001V55.4533H15.2001Z" fill="black"/>
<path d="M27.8135 28H20.1868C19.8332 28 19.4941 28.1405 19.244 28.3905C18.994 28.6406 18.8535 28.9797 18.8535 29.3333V36.9333C18.8535 37.287 18.994 37.6261 19.244 37.8761C19.4941 38.1262 19.8332 38.2667 20.1868 38.2667H27.8135C28.1671 38.2667 28.5063 38.1262 28.7563 37.8761C29.0064 37.6261 29.1468 37.287 29.1468 36.9333V29.3333C29.1468 28.9797 29.0064 28.6406 28.7563 28.3905C28.5063 28.1405 28.1671 28 27.8135 28ZM26.4802 35.6133H21.5202V30.6667H26.4802V35.6133ZM33.3335 22.1867H44.0002C44.3538 22.1867 44.6929 22.0462 44.943 21.7961C45.193 21.5461 45.3335 21.207 45.3335 20.8533C45.3335 20.4997 45.193 20.1606 44.943 19.9105C44.6929 19.6605 44.3538 19.52 44.0002 19.52H33.3335C32.9799 19.52 32.6408 19.6605 32.3907 19.9105C32.1407 20.1606 32.0002 20.4997 32.0002 20.8533C32.0002 21.207 32.1407 21.5461 32.3907 21.7961C32.6408 22.0462 32.9799 22.1867 33.3335 22.1867ZM44.0002 31.7867H33.3335C32.9799 31.7867 32.6408 31.9271 32.3907 32.1772C32.1407 32.4272 32.0002 32.7664 32.0002 33.12C32.0002 33.4736 32.1407 33.8128 32.3907 34.0628C32.6408 34.3129 32.9799 34.4533 33.3335 34.4533H44.0002C44.3538 34.4533 44.6929 34.3129 44.943 34.0628C45.193 33.8128 45.3335 33.4736 45.3335 33.12C45.3335 32.7664 45.193 32.4272 44.943 32.1772C44.6929 31.9271 44.3538 31.7867 44.0002 31.7867ZM27.8135 40.4H20.1868C19.8332 40.4 19.4941 40.5405 19.244 40.7905C18.994 41.0406 18.8535 41.3797 18.8535 41.7333V49.3333C18.8535 49.687 18.994 50.0261 19.244 50.2761C19.4941 50.5262 19.8332 50.6667 20.1868 50.6667H27.8135C28.1671 50.6667 28.5063 50.5262 28.7563 50.2761C29.0064 50.0261 29.1468 49.687 29.1468 49.3333V41.7333C29.1468 41.3797 29.0064 41.0406 28.7563 40.7905C28.5063 40.5405 28.1671 40.4 27.8135 40.4ZM26.4802 48.0133H21.5202V43.0667H26.4802V48.0133ZM45.3335 44.2H33.3335C32.9799 44.2 32.6408 44.3405 32.3907 44.5905C32.1407 44.8406 32.0002 45.1797 32.0002 45.5333C32.0002 45.887 32.1407 46.2261 32.3907 46.4761C32.6408 46.7262 32.9799 46.8667 33.3335 46.8667H45.3335C45.6871 46.8667 46.0263 46.7262 46.2763 46.4761C46.5264 46.2261 46.6668 45.887 46.6668 45.5333C46.6668 45.1797 46.5264 44.8406 46.2763 44.5905C46.0263 44.3405 45.6871 44.2 45.3335 44.2ZM31.9202 15.28C31.6829 15.0189 31.3518 14.8624 30.9995 14.8449C30.6471 14.8274 30.3021 14.9503 30.0402 15.1867L23.2802 21.3333L21.4135 19.3733C21.165 19.1456 20.8395 19.0204 20.5025 19.0229C20.1654 19.0255 19.8419 19.1556 19.5969 19.387C19.3519 19.6185 19.2036 19.9342 19.182 20.2706C19.1603 20.6069 19.2669 20.939 19.4802 21.2L22.2268 24.12C22.3523 24.2516 22.5034 24.3562 22.6708 24.4273C22.8382 24.4984 23.0183 24.5345 23.2002 24.5333C23.5306 24.5325 23.849 24.4089 24.0935 24.1867L31.8402 17.1733C31.9705 17.0547 32.0761 16.9115 32.1507 16.7519C32.2254 16.5923 32.2676 16.4194 32.2751 16.2433C32.2825 16.0673 32.255 15.8915 32.1941 15.7261C32.1332 15.5608 32.0401 15.4092 31.9202 15.28Z" fill="#FF0042"/>
</svg>
