<svg width="65" height="68" viewBox="0 0 65 68" fill="none" xmlns="http://www.w3.org/2000/svg">
<path fill-rule="evenodd" clip-rule="evenodd" d="M27.5842 34.7071C27.5842 37.0635 29.4941 38.9734 31.8504 38.9734C34.2068 38.9734 36.1167 37.0635 36.1167 34.7071C36.1167 32.3508 34.2068 30.4409 31.8504 30.4409C29.4941 30.4409 27.5842 32.3508 27.5842 34.7071Z" stroke="black" stroke-width="2.04805" stroke-linecap="round"/>
<path fill-rule="evenodd" clip-rule="evenodd" d="M48.6704 30.9068L46.8899 26.2722L42.4715 27.5805C41.6567 26.3661 40.6541 25.3237 39.5165 24.4747L41.0552 20.126L36.5202 18.1081L34.3202 22.1624C32.9266 21.8851 31.4818 21.8382 30.0341 22.0473L28.0489 17.8877L23.4143 19.6681L24.7241 24.0865C23.5082 24.8999 22.4658 25.9039 21.6168 27.0416L17.2681 25.5029L15.2502 30.0393L19.3031 32.2393C19.0272 33.6315 18.9803 35.0777 19.1894 36.524L15.0298 38.5106L16.8102 43.1437L21.2286 41.8354C22.042 43.0499 23.046 44.0908 24.1823 44.9412L22.645 49.2899L27.18 51.3078L29.3799 47.2535C30.7736 47.5294 32.2184 47.5777 33.6661 47.3687L35.6513 51.5283L40.2858 49.7478L38.9761 45.3294C40.192 44.5146 41.2343 43.512 42.0833 42.3744L46.432 43.9131L48.4499 39.3781L44.3956 37.1781C44.6715 35.7859 44.7198 34.3397 44.5108 32.892L48.6704 30.9068Z" stroke="black" stroke-width="2.04805" stroke-linecap="round"/>
<path d="M41.8086 7.69385H31.8616V14.8101" stroke="#FF0042" stroke-width="2.04805" stroke-linecap="round"/>
<path d="M50.3384 34.7236H56.0392V46.086" stroke="#FF0042" stroke-width="2.04805" stroke-linecap="round"/>
<path d="M13.3632 34.7238H7.66235V21.9067" stroke="#FF0042" stroke-width="2.04805" stroke-linecap="round"/>
<path d="M31.8606 54.6182V60.319H17.6282" stroke="#FF0042" stroke-width="2.04805" stroke-linecap="round"/>
<path fill-rule="evenodd" clip-rule="evenodd" d="M6.26636 58.8838L17.6287 66V51.7676L6.26636 58.8838Z" stroke="#FF0042" stroke-width="2.04805" stroke-linecap="round"/>
<path fill-rule="evenodd" clip-rule="evenodd" d="M56.0208 46.0859L63.137 53.2022L56.0208 60.3184L48.9045 53.2022L56.0208 46.0859Z" stroke="#FF0042" stroke-width="2.04805" stroke-linecap="round"/>
<path fill-rule="evenodd" clip-rule="evenodd" d="M2 21.9068H13.3624V10.5444H2V21.9068Z" stroke="#FF0042" stroke-width="2.04805" stroke-linecap="round"/>
<path fill-rule="evenodd" clip-rule="evenodd" d="M41.8057 7.68829C41.8057 4.54693 44.3526 2 47.494 2C50.6353 2 53.1823 4.54693 53.1823 7.68829C53.1823 10.8297 50.6353 13.3766 47.494 13.3766C44.3526 13.3766 41.8057 10.8297 41.8057 7.68829Z" stroke="#FF0042" stroke-width="2.04805" stroke-linecap="round"/>
</svg>
